<svg width="20" height="20" viewBox="0 0 20 20" fill="none" xmlns="http://www.w3.org/2000/svg">
<g clip-path="url(#clip0_33_50)">
<path d="M0.199839 12.7977L1.20177 13.7995C1.33528 13.9333 1.48907 14 1.66294 14C1.83639 14 1.99011 13.9333 2.12362 13.7995L9.99989 5.92368L17.8758 13.7993C18.0094 13.9331 18.1631 13.9998 18.3368 13.9998C18.5105 13.9998 18.6642 13.9331 18.7977 13.7993L19.7995 12.7974C19.9333 12.6639 20 12.5102 20 12.3364C20 12.1628 19.9331 12.0091 19.7995 11.8756L10.4609 2.53673C10.3273 2.40315 10.1736 2.3364 9.99989 2.3364C9.82624 2.3364 9.67272 2.40315 9.53929 2.53673L0.199838 11.8756C0.0663317 12.0092 -1.60603e-07 12.1629 -1.45434e-07 12.3364C-1.30246e-07 12.5102 0.0663317 12.6639 0.199839 12.7977Z" fill="white"/>
</g>
<defs>
<clipPath id="clip0_33_50">
<rect width="20" height="20" fill="white"/>
</clipPath>
</defs>
</svg>
