<svg width="180" height="46" viewBox="0 0 180 46" fill="none" xmlns="http://www.w3.org/2000/svg">
<path d="M52.6308 10.3374C48.9291 10.3374 46.0663 11.2283 44.0424 13.0105C42.0451 14.7926 40.9932 17.2266 40.8867 20.3122V32.1218C40.8867 33.3454 40.8601 34.3695 40.8067 35.1941C40.78 35.9921 40.6469 36.6439 40.4072 37.1493C40.1941 37.628 39.8345 37.9737 39.3286 38.1865C38.8493 38.3994 38.1703 38.5059 37.2914 38.5059V40.3014H49.1156V38.5059H48.7162C47.9172 38.5059 47.3048 38.3994 46.8787 38.1865C46.4526 37.9737 46.1329 37.628 45.9199 37.1493C45.7067 36.6439 45.5737 35.9921 45.5205 35.1941C45.4939 34.3695 45.4804 33.3454 45.4804 32.1218V28.5709C47.3179 29.6881 49.7014 30.2467 52.6308 30.2467C56.1461 30.2467 58.8891 29.369 60.8599 27.6135C62.8306 25.8314 63.8824 23.3976 64.0156 20.3122C63.8825 17.2266 62.8306 14.7926 60.8599 13.0105C58.8892 11.2283 56.1462 10.3374 52.6308 10.3374ZM45.4806 19.5936C45.4806 18.2636 45.6803 17.1598 46.0798 16.282C46.5058 15.3777 47.0517 14.6596 47.7175 14.1276C48.3833 13.5956 49.129 13.2233 49.9545 13.0105C50.7801 12.7709 51.6056 12.6644 52.4312 12.6911C53.2567 12.6644 54.0823 12.7576 54.9078 12.9704C55.76 13.1833 56.519 13.5557 57.1847 14.0876C57.8505 14.6195 58.3832 15.3378 58.7826 16.2422C59.2087 17.1466 59.4218 18.2636 59.4218 19.5936V20.9901C59.4218 22.32 59.2087 23.4371 58.7826 24.3415C58.3832 25.2458 57.8505 25.9641 57.1847 26.4961C56.519 27.0281 55.76 27.4005 54.9078 27.6133C54.0823 27.8261 53.2567 27.9192 52.4312 27.8926C51.6323 27.9192 50.8333 27.8395 50.0344 27.6533C49.2354 27.4404 48.5031 27.0945 47.8373 26.6158C47.1981 26.1104 46.6523 25.4588 46.1996 24.6608C45.7734 23.8363 45.5338 22.8121 45.4806 21.5886V19.5936Z" fill="white"/>
<path d="M74.4849 32.3538C74.4849 31.2632 74.6181 30.3589 74.8844 29.6407C75.1774 28.9225 75.5635 28.3374 76.0429 27.8853C76.5222 27.4331 77.0681 27.1006 77.6806 26.8878C78.2931 26.6749 78.9457 26.5419 79.6381 26.4888H80.7166C81.3824 26.5421 82.0215 26.6751 82.634 26.8878C83.2731 27.1006 83.8323 27.4332 84.3117 27.8853C84.791 28.3374 85.1772 28.9225 85.4701 29.6407C85.7631 30.3589 85.9096 31.2632 85.9096 32.3538V33.0721C85.9096 34.2957 85.8829 35.2666 85.8295 35.9847C85.8028 36.7029 85.6697 37.2481 85.43 37.6205C85.2169 37.9929 84.8575 38.2323 84.3515 38.3387C83.8722 38.445 83.193 38.4981 82.3142 38.4981V40.2936H94.1381V38.4981H93.7387C93.0197 38.4981 92.4471 38.445 92.0211 38.3387C91.595 38.2057 91.2621 37.9663 91.0224 37.6205C90.8093 37.2747 90.6628 36.8092 90.583 36.224C90.5296 35.6389 90.5029 34.8675 90.5029 33.9099C90.5029 31.8352 90.0902 30.0664 89.2646 28.6034C88.4391 27.1139 87.2273 26.01 85.6294 25.2918C87.1474 24.6002 88.3192 23.576 89.1447 22.2195C89.9703 20.8364 90.4098 19.174 90.463 17.2324C90.463 16.1684 90.4896 15.3039 90.543 14.6389C90.5963 13.9739 90.7295 13.4554 90.9424 13.083C91.1556 12.7106 91.4751 12.4712 91.9012 12.3648C92.3272 12.2319 92.9265 12.1653 93.6988 12.1653H94.0982V10.3699H82.2739V12.1653C83.1527 12.1653 83.8319 12.2185 84.3112 12.3248C84.8172 12.4311 85.1767 12.6705 85.3897 13.0429C85.6295 13.4153 85.7627 13.9605 85.7892 14.6787C85.8425 15.3969 85.8693 16.3678 85.8693 17.5913V18.1898C85.8693 19.307 85.7228 20.238 85.4298 20.9827C85.1369 21.7009 84.7374 22.2862 84.2314 22.7384C83.7521 23.1906 83.1795 23.5229 82.5137 23.7356C81.8746 23.9219 81.2089 24.0416 80.5165 24.0946H79.8773C79.1849 24.0413 78.5059 23.9216 77.8401 23.7356C77.201 23.5228 76.6283 23.1905 76.1223 22.7384C75.643 22.2862 75.2568 21.7009 74.9639 20.9827C74.6709 20.238 74.5245 19.307 74.5245 18.1898V17.5913C74.5245 16.3678 74.5379 15.3969 74.5645 14.6787C74.6179 13.9605 74.7511 13.4153 74.964 13.0429C75.2038 12.6705 75.5633 12.4312 76.0425 12.3248C76.5485 12.2185 77.2409 12.1653 78.1197 12.1653V10.3699H66.2955V12.1653H66.6949C67.4406 12.1653 68.0265 12.2319 68.4526 12.3648C68.9053 12.4711 69.2382 12.7105 69.4513 13.083C69.6644 13.4554 69.7975 13.9739 69.8507 14.6389C69.9041 15.3039 69.9307 16.1684 69.9307 17.2324C69.984 19.1741 70.4235 20.8364 71.249 22.2195C72.0745 23.576 73.2463 24.6002 74.7643 25.2918C73.1664 26.01 71.9546 27.1139 71.1291 28.6034C70.3035 30.0664 69.8908 31.8352 69.8908 33.9099C69.8908 34.8675 69.8509 35.6389 69.7711 36.224C69.7178 36.8092 69.5713 37.2747 69.3317 37.6205C69.1186 37.9663 68.799 38.2057 68.373 38.3387C67.9469 38.445 67.3744 38.4981 66.6553 38.4981H66.2559V40.2936H78.0802V38.4981C77.2014 38.4981 76.5089 38.445 76.0029 38.3387C75.5235 38.2323 75.1641 37.993 74.9244 37.6205C74.7113 37.2481 74.5781 36.7029 74.5249 35.9847C74.4982 35.2666 74.4848 34.2957 74.4848 33.0721L74.4849 32.3538Z" fill="white"/>
<path d="M119.967 20.8555C119.967 19.233 119.714 17.7834 119.208 16.5066C118.702 15.2033 117.957 14.0994 116.971 13.195C115.986 12.2907 114.787 11.599 113.376 11.1202C111.965 10.6148 110.367 10.3621 108.582 10.3621C104.774 10.3621 101.858 11.3065 99.834 13.195C97.8367 15.057 96.8381 17.6104 96.8381 20.8555V29.8326C96.8381 33.0778 97.8367 35.6446 99.834 37.5331C101.858 39.395 104.774 40.3258 108.582 40.3258C110.367 40.3258 111.965 40.0865 113.376 39.6077C114.787 39.1023 115.986 38.3974 116.971 37.4931C117.957 36.5887 118.702 35.4982 119.208 34.2215C119.714 32.9181 119.967 31.455 119.967 29.8324V20.8555ZM101.432 31.0694V19.6187C101.432 18.2888 101.632 17.1849 102.032 16.3071C102.458 15.4028 103.003 14.6844 103.669 14.1525C104.335 13.6205 105.081 13.2482 105.906 13.0354C106.732 12.7958 107.557 12.6893 108.383 12.716C109.209 12.6893 110.034 12.7824 110.86 12.9953C111.712 13.2082 112.471 13.5806 113.137 14.1124C113.802 14.6444 114.335 15.3627 114.734 16.2671C115.16 17.1715 115.374 18.2885 115.374 19.6185V31.0694C115.374 32.3993 115.16 33.5164 114.734 34.4208C114.335 35.3251 113.802 36.0434 113.137 36.5754C112.471 37.1074 111.712 37.4798 110.86 37.6926C110.034 37.9054 109.209 37.9985 108.383 37.9719C107.557 37.9985 106.732 37.9054 105.906 37.6926C105.081 37.453 104.335 37.0672 103.669 36.5354C103.003 36.0034 102.458 35.2985 102.032 34.4208C101.632 33.5164 101.432 32.3993 101.432 31.0694Z" fill="white"/>
<path d="M122.572 38.5743H122.971C123.77 38.5743 124.382 38.4678 124.809 38.2549C125.235 38.042 125.554 37.6963 125.767 37.2176C125.98 36.7122 126.1 36.0606 126.127 35.2627C126.18 34.4381 126.207 33.414 126.207 32.1904V10.4058H130.8V23.4128H140.028V10.4058H144.622V32.1904C144.622 33.414 144.635 34.4381 144.662 35.2627C144.715 36.0606 144.848 36.7122 145.061 37.2176C145.301 37.6964 145.661 38.0421 146.14 38.2549C146.646 38.4678 147.338 38.5743 148.217 38.5743V40.3697H136.393V38.5743H136.792C137.591 38.5743 138.204 38.4678 138.63 38.2549C139.056 38.042 139.375 37.6963 139.588 37.2176C139.802 36.7122 139.922 36.0606 139.948 35.2627C140.002 34.4381 140.028 33.414 140.028 32.1904V25.2481H130.801V32.1904C130.801 33.414 130.814 34.4381 130.841 35.2627C130.894 36.0606 131.027 36.7122 131.24 37.2176C131.48 37.6964 131.84 38.0421 132.319 38.2549C132.825 38.4678 133.517 38.5743 134.396 38.5743V40.3697H122.572L122.572 38.5743Z" fill="white"/>
<path d="M166.684 10.3222L175.682 10.8774L176.909 10.0938L179.375 11.3714L176.909 12.8363L175.682 11.9738L167.82 12.8848V39.4739C167.719 41.4852 166.383 43.4463 165.079 45.4398C163.821 43.4638 162.594 41.4772 162.468 39.4746V39.4747V12.8875L155.074 11.9728L153.666 12.8361L151.357 11.3716L153.666 10.0939L155.073 10.8775L163.555 10.3223V4.68176L162.492 3.58244L165.079 0.474609L167.666 3.58131L166.684 4.68176L166.684 10.3222Z" fill="white" stroke="white" stroke-width="0.161" stroke-linecap="round"/>
<path d="M165.073 9.31557C164.997 9.31804 164.925 9.35033 164.872 9.40543C164.82 9.46052 164.791 9.53402 164.793 9.61001C164.815 11.5833 164.77 14.3014 164.793 15.9571C164.793 16.0331 164.823 16.1059 164.877 16.1596C164.931 16.2134 165.004 16.2438 165.08 16.2443C165.118 16.2441 165.156 16.2362 165.191 16.2213C165.227 16.2063 165.259 16.1844 165.285 16.1571C165.312 16.1297 165.333 16.0973 165.347 16.0617C165.361 16.0262 165.368 15.9882 165.368 15.9499C165.345 14.3137 165.39 11.591 165.368 9.60288C165.367 9.56461 165.359 9.52678 165.344 9.49157C165.329 9.45636 165.308 9.42446 165.28 9.39775C165.253 9.37103 165.22 9.35 165.185 9.33591C165.149 9.32181 165.111 9.3149 165.073 9.3156L165.073 9.31557Z" fill="#660000"/>
<path d="M162.824 11.0533C162.786 11.0526 162.748 11.0595 162.712 11.0736C162.677 11.0877 162.644 11.1087 162.617 11.1354C162.589 11.1621 162.567 11.194 162.552 11.2292C162.537 11.2645 162.53 11.3023 162.529 11.3405C162.53 11.3788 162.537 11.4166 162.552 11.4519C162.567 11.4871 162.589 11.519 162.617 11.5457C162.644 11.5724 162.677 11.5934 162.712 11.6075C162.748 11.6216 162.786 11.6285 162.824 11.6278H167.41C167.448 11.6285 167.486 11.6216 167.522 11.6075C167.557 11.5934 167.59 11.5724 167.617 11.5457C167.645 11.519 167.666 11.4871 167.681 11.4519C167.696 11.4166 167.704 11.3788 167.704 11.3405C167.704 11.3023 167.696 11.2645 167.681 11.2292C167.666 11.194 167.645 11.1621 167.617 11.1354C167.59 11.1087 167.557 11.0877 167.522 11.0736C167.486 11.0595 167.448 11.0526 167.41 11.0533H162.824Z" fill="#660000"/>
<path d="M111.373 29.1732L108.69 27.8095L106.039 29.2347L106.514 26.2752L104.332 24.2083L107.309 23.7431L108.611 21.0405L109.976 23.7124L112.962 24.109L110.829 26.2256L111.373 29.1732Z" fill="white"/>
<path d="M108.651 26.3783C109.129 26.3783 109.515 25.9919 109.515 25.5151C109.515 25.0384 109.129 24.652 108.651 24.652C108.174 24.652 107.787 25.0384 107.787 25.5151C107.787 25.9919 108.174 26.3783 108.651 26.3783Z" fill="#660000"/>
<path d="M16.0186 10.2619L8.26884 28.6952C7.46991 30.6901 6.73763 32.3259 6.07187 33.6025C5.43273 34.8527 4.80683 35.8502 4.19431 36.595C3.58182 37.3397 2.94279 37.8583 2.27702 38.1509C1.61123 38.4435 0.852172 38.6298 0 38.7096V40.3055H12.5829V38.6695H11.2248C10.2661 38.6695 9.54702 38.5365 9.06766 38.2705C8.5883 37.9779 8.34866 37.486 8.34866 36.7945C8.34866 36.1029 8.52173 35.1985 8.86792 34.0814C9.24076 32.9376 9.78674 31.4878 10.5058 29.7323H21.2113C21.9037 31.4612 22.423 32.8976 22.7692 34.0413C23.142 35.1851 23.3284 36.1026 23.3284 36.7942C23.3284 37.5124 23.0888 38.0045 22.6094 38.2705C22.1301 38.5365 21.3844 38.6695 20.3724 38.6695H19.0142V40.3053H33.9142V38.7093C33.0088 38.6561 32.2098 38.4301 31.5174 38.0312C30.825 37.6323 30.1726 37.0337 29.5601 36.2358C28.9475 35.4378 28.3351 34.4271 27.7226 33.2035C27.1101 31.9534 26.4443 30.4505 25.7252 28.695L17.9359 10.2617L16.0186 10.2619ZM15.9386 16.8055L20.4925 27.937H11.2651L15.9386 16.8055Z" fill="white"/>
<path d="M122.572 12.2223H122.971C123.77 12.2223 124.382 12.3288 124.809 12.5417C125.235 12.7546 125.554 13.1135 125.767 13.6188C125.98 14.0976 126.1 14.7494 126.127 15.574C126.18 16.3719 126.207 17.3827 126.207 18.6062V40.3909H130.801V27.3838H140.028V40.3909H144.622V18.6062C144.622 17.3827 144.635 16.3719 144.662 15.574C144.715 14.7494 144.849 14.0976 145.062 13.6188C145.301 13.1134 145.661 12.7545 146.14 12.5417C146.646 12.3288 147.339 12.2223 148.217 12.2223V10.4269H136.394V12.2223H136.793C137.592 12.2223 138.204 12.3288 138.63 12.5417C139.057 12.7546 139.376 13.1135 139.589 13.6188C139.802 14.0976 139.922 14.7494 139.949 15.574C140.002 16.3719 140.028 17.3827 140.028 18.6062V25.5485H130.801V18.6062C130.801 17.3827 130.814 16.3719 130.841 15.574C130.894 14.7494 131.028 14.0976 131.241 13.6188C131.48 13.1134 131.84 12.7545 132.319 12.5417C132.825 12.3288 133.517 12.2223 134.396 12.2223V10.4269H122.572L122.572 12.2223Z" fill="white"/>
<path d="M61.9235 20.8404C61.9311 19.966 61.8129 19.0834 61.5782 18.2175C61.4895 17.8917 61.5668 17.5417 61.7827 17.2825L63.2309 15.5501L62.1452 13.6705L59.9191 14.0569C59.5858 14.1146 59.2452 14.0072 59.0058 13.7678C58.3705 13.1303 57.6633 12.5892 56.905 12.158C56.6099 11.9895 56.415 11.6877 56.3844 11.3496L56.1825 9.10479L54.075 8.54077L52.7751 10.3847C52.5793 10.6625 52.2593 10.8267 51.9196 10.8248C51.0474 10.8172 50.1637 10.9348 49.2934 11.1697C48.9681 11.2583 48.6171 11.181 48.3588 10.9642L46.6254 9.51809L44.7431 10.6035L45.1313 12.8262C45.1891 13.1591 45.0815 13.5002 44.8414 13.7384C44.2031 14.3729 43.6605 15.0791 43.2294 15.8375C43.0611 16.1323 42.7588 16.3271 42.42 16.3576L40.1706 16.5585L39.6059 18.6635L41.452 19.9618C41.7305 20.1559 41.8948 20.476 41.8926 20.8164C41.885 21.6876 42.0028 22.5701 42.238 23.4384C42.3267 23.7641 42.2493 24.1139 42.0323 24.373L40.5831 26.1051L41.6701 27.9841L43.8962 27.5976C44.2299 27.5388 44.571 27.6474 44.8091 27.8883C45.4426 28.5243 46.1486 29.0659 46.9108 29.4984C47.206 29.6669 47.4012 29.9672 47.4317 30.3058L47.6333 32.5515L49.7408 33.1155L51.0409 31.2706C51.2356 30.9928 51.5554 30.8293 51.8952 30.8312C52.772 30.835 53.6553 30.7211 54.5203 30.4863C54.8487 30.3992 55.1989 30.475 55.4574 30.691L57.1918 32.1373L59.0727 31.0527L58.6858 28.8293C58.6273 28.4952 58.7368 28.1546 58.9768 27.9163C59.613 27.2856 60.1547 26.5792 60.5886 25.8181C60.7565 25.5248 61.0579 25.3294 61.3967 25.2989L63.6451 25.0976L64.2098 22.9926L62.3627 21.694C62.0842 21.4999 61.9207 21.1809 61.9229 20.8407L61.9235 20.8404ZM50.2344 26.3989C47.2735 25.6064 45.5107 22.5569 46.3041 19.5994C47.0975 16.6419 50.1506 14.8813 53.1117 15.6737C56.0727 16.4662 57.8354 19.5157 57.042 22.4732C56.2486 25.4305 53.1955 27.1913 50.2344 26.3989Z" fill="white"/>
<path d="M53.8229 7.85657L52.2821 10.0434C52.1991 10.1612 52.0653 10.2283 51.9209 10.2275C50.9937 10.2202 50.0521 10.348 49.1343 10.5957C48.9997 10.6323 48.851 10.5975 48.7436 10.5073L46.6868 8.79169L44.0845 10.2938L44.5416 12.9298C44.5661 13.0717 44.517 13.2128 44.4162 13.3127C43.7407 13.9841 43.1648 14.7364 42.7059 15.5437C42.6343 15.6693 42.5104 15.7517 42.3668 15.7646L39.6982 16.0002L38.9168 18.9087L41.1062 20.455C41.222 20.5357 41.2915 20.6702 41.2905 20.8158C41.2834 21.7419 41.4111 22.6758 41.6592 23.5917V23.599C41.6961 23.735 41.6624 23.8798 41.5707 23.9893L39.853 26.0436L41.3643 28.6428L43.9961 28.1863H44.0036C44.1441 28.1615 44.2792 28.2099 44.3796 28.3115H44.3871C45.0576 28.9846 45.8026 29.5597 46.6135 30.0197C46.7412 30.0926 46.8218 30.2154 46.8346 30.3584L47.0779 33.0239L49.9898 33.8044L51.5306 31.6175C51.6119 31.5015 51.7465 31.4253 51.8918 31.4261C52.8198 31.4301 53.756 31.313 54.671 31.0653C54.814 31.0274 54.9695 31.0642 55.0765 31.1536L57.1259 32.8619L59.7356 31.3598L59.2785 28.7238C59.2536 28.5826 59.2944 28.4422 59.3965 28.3409C60.0707 27.6724 60.6457 26.926 61.1068 26.1172C61.1783 25.9922 61.3106 25.9092 61.4533 25.8963L64.1142 25.6534L64.8956 22.7449L62.7061 21.206C62.5899 21.125 62.5209 20.9914 62.5218 20.8452C62.5297 19.9135 62.4016 18.978 62.1532 18.0619C62.1162 17.9261 62.1504 17.7738 62.2417 17.6643L63.9594 15.61L62.4555 13.0108L59.8163 13.4673C59.674 13.4919 59.5351 13.4442 59.433 13.3421C58.7604 12.6673 58.0055 12.0998 57.1992 11.6412C57.0731 11.5692 56.991 11.4382 56.9781 11.2952L56.7422 8.63706L53.8229 7.85657ZM54.3242 9.22612L55.6216 9.57219L55.7912 11.4056C55.8395 11.9388 56.1453 12.4145 56.6095 12.6794C57.3196 13.0833 57.9798 13.5888 58.5778 14.1889H58.5853C58.9622 14.5656 59.4986 14.7361 60.0229 14.6454L61.8364 14.3288L62.4999 15.4848L61.3204 16.8985C60.9798 17.3074 60.863 17.8556 61.0034 18.3712C61.2199 19.1699 61.3225 19.9858 61.3204 20.7863V20.8378C61.317 21.3719 61.5798 21.878 62.0207 22.1853L63.5246 23.2382L63.1781 24.5415L61.3425 24.7035C60.8073 24.7517 60.3315 25.0592 60.0671 25.5208C59.6604 26.2341 59.154 26.9012 58.5558 27.4942C58.1778 27.8693 58.0065 28.4031 58.0988 28.93L58.4084 30.7413L57.2584 31.4114L55.843 30.2333C55.4329 29.8907 54.8822 29.773 54.3684 29.9093H54.3609C53.5484 30.1299 52.7219 30.2368 51.8988 30.2333C51.3645 30.2303 50.8579 30.4858 50.5497 30.9254L49.4881 32.4275L48.1907 32.0814L48.0285 30.2553C47.9804 29.7212 47.6728 29.2456 47.2102 28.9815C46.4967 28.5767 45.831 28.0635 45.2345 27.4647C44.8604 27.0862 44.3214 26.9182 43.797 27.0082H43.7894L41.9759 27.3248L41.3124 26.1688L42.492 24.7551C42.8343 24.3463 42.9567 23.7979 42.8163 23.2824C42.5947 22.4643 42.4849 21.6369 42.492 20.8231C42.4954 20.2914 42.2351 19.7838 41.799 19.4757L41.7914 19.4683L40.2949 18.4154L40.6414 17.1195L42.4697 16.9501H42.4772C43.0114 16.902 43.4876 16.5969 43.7526 16.1328C44.1559 15.4231 44.6627 14.7569 45.2638 14.1595C45.6433 13.7829 45.8118 13.2475 45.7209 12.7236L45.4039 10.9123L46.5613 10.2422L47.9767 11.4204C48.386 11.7637 48.935 11.8849 49.4511 11.7443C50.2714 11.523 51.0986 11.4133 51.9134 11.4204C52.4486 11.4234 52.9537 11.1661 53.2625 10.7282L54.3242 9.22612ZM53.27 15.0946C49.9952 14.2182 46.6059 16.1753 45.7284 19.4462C44.851 22.7171 46.8032 26.1023 50.0779 26.9787C53.3528 27.8552 56.742 25.8978 57.6194 22.6271C58.4969 19.3562 56.5448 15.971 53.27 15.0946ZM52.953 16.2506C55.6003 16.9591 57.1714 19.6737 56.4621 22.3178C55.7528 24.9618 53.0348 26.5312 50.3875 25.8227C47.7405 25.1143 46.1765 22.3996 46.8858 19.7555C47.5952 17.1113 50.3057 15.5421 52.953 16.2506H52.953Z" fill="#660000"/>
<path d="M65.9999 21.7452L63.991 20.3337C63.9608 19.6332 63.8691 18.9317 63.7143 18.2395L65.2903 16.3547C65.5696 16.0222 65.6104 15.5494 65.3926 15.1736L63.5814 12.0403C63.3648 11.6628 62.9343 11.4632 62.5052 11.5381L60.084 11.9591C59.5593 11.478 58.9974 11.0475 58.4055 10.6725L58.1859 8.22995C58.1466 7.79599 57.8424 7.43351 57.4217 7.32094L53.9159 6.38268C53.4962 6.27033 53.0502 6.43206 52.7993 6.78719L51.3863 8.79277C50.6869 8.82293 49.9849 8.91416 49.2896 9.0691L47.4016 7.49474C47.0683 7.21576 46.5952 7.17504 46.2191 7.39257L43.0821 9.20154C42.705 9.41907 42.504 9.84779 42.579 10.2764L43.0016 12.695C42.5196 13.2189 42.0878 13.7801 41.7137 14.3704L39.2672 14.5894C38.8334 14.6298 38.4703 14.9348 38.3579 15.354L37.4185 18.8556C37.3056 19.2759 37.468 19.7202 37.8238 19.9699L39.8317 21.3812C39.8619 22.0816 39.9533 22.7809 40.108 23.4764L38.5314 25.3599C38.2517 25.6939 38.2113 26.1652 38.4291 26.542L40.2402 29.6752C40.458 30.0519 40.8882 30.2531 41.3154 30.1773L43.7376 29.7564C44.2605 30.2363 44.8223 30.6676 45.4151 31.0429L45.6344 33.4863C45.6759 33.92 45.9812 34.2825 46.4009 34.3948L49.9067 35.3331C50.3273 35.4458 50.7723 35.2837 51.022 34.9293L52.4353 32.9227C53.1366 32.8926 53.8389 32.8009 54.533 32.6468L56.419 34.2206C56.753 34.4995 57.2264 34.5402 57.6025 34.3231L60.7395 32.5141C61.1166 32.2966 61.3176 31.8678 61.2426 31.4392L60.821 29.0209C61.3014 28.4986 61.7332 27.9376 62.1092 27.3444L64.5556 27.1254C64.9891 27.0862 65.352 26.782 65.4647 26.3618L66.4041 22.8602C66.5166 22.4411 66.3546 21.9956 66 21.7453L65.9999 21.7452ZM63.6486 25.1274L61.399 25.3294C61.0604 25.3596 60.759 25.5538 60.5908 25.8488C60.1569 26.6098 59.6153 27.3162 58.9791 27.947C58.739 28.1848 58.6296 28.5257 58.6881 28.8598L59.075 31.0833L57.194 32.1679L55.4596 30.7216C55.2011 30.5044 54.8507 30.4301 54.5226 30.5168C53.6576 30.7517 52.7742 30.8671 51.8974 30.8618C51.5585 30.8601 51.239 31.0232 51.0431 31.3011L49.7443 33.1453L47.6368 32.5813L47.4345 30.3343C47.4043 29.9957 47.2099 29.6952 46.9136 29.5268C46.1524 29.0944 45.4453 28.5527 44.8118 27.9168C44.5737 27.6759 44.2324 27.5677 43.8988 27.6265L41.6727 28.0129L40.5858 26.134L42.0349 24.4019C42.2515 24.1425 42.3293 23.7933 42.2406 23.4672C42.0055 22.599 41.8888 21.7164 41.8952 20.8452C41.8972 20.5059 41.7329 20.1863 41.4546 19.9906L39.6093 18.6936L40.174 16.5887L42.4226 16.3862C42.7616 16.3561 43.0638 16.1612 43.232 15.8663C43.6629 15.1086 44.2055 14.4025 44.8441 13.7671C45.0841 13.5292 45.1925 13.189 45.134 12.8549L44.7465 10.6334L46.6287 9.54804L48.3621 10.9942C48.6207 11.2113 48.9715 11.2879 49.2969 11.1997C50.1671 10.9652 51.0508 10.8487 51.923 10.8547C52.2627 10.8567 52.5828 10.6922 52.7786 10.4146L54.0785 8.57072L56.1859 9.13474L56.3886 11.3808C56.4188 11.7189 56.6132 12.0209 56.9093 12.1892C57.6678 12.6193 58.3747 13.1615 59.01 13.799C59.2493 14.0388 59.5899 14.1466 59.9233 14.0881L62.1494 13.7017L63.2351 15.5814L61.7869 17.3137C61.5691 17.5727 61.4937 17.9226 61.5824 18.2487C61.8171 19.1146 61.9338 19.9962 61.9277 20.8716C61.9258 21.2109 62.0893 21.5304 62.3673 21.726L64.2139 23.0223L63.6486 25.1274Z" fill="white"/>
</svg>
