<svg width="20" height="20" viewBox="0 0 20 20" fill="none" xmlns="http://www.w3.org/2000/svg">
<path d="M10 0.247512C4.47563 0.247512 0 4.72689 0 10.2475C0 14.6681 2.865 18.415 6.83563 19.7369C7.3375 19.8313 7.51875 19.5219 7.51875 19.2544C7.51875 19.0169 7.51313 18.3888 7.50938 17.555C4.72625 18.1575 4.14 16.2106 4.14 16.2106C3.68438 15.0581 3.02687 14.7488 3.02687 14.7488C2.12187 14.1306 3.09875 14.1438 3.09875 14.1438C4.10125 14.2119 4.62875 15.1719 4.62875 15.1719C5.52063 16.7019 6.96875 16.2594 7.54188 16.0019C7.62938 15.3575 7.89 14.9144 8.17375 14.6675C5.95375 14.4169 3.61937 13.5575 3.61937 9.72564C3.61937 8.63126 4.00687 7.74001 4.6475 7.04001C4.53687 6.78939 4.19813 5.77064 4.73563 4.39314C4.73563 4.39314 5.5725 4.12626 7.48563 5.41876C8.28625 5.19689 9.13625 5.08626 9.98563 5.08064C10.8356 5.08626 11.685 5.19751 12.4856 5.41876C14.3875 4.12626 15.2237 4.39314 15.2237 4.39314C15.7606 5.77064 15.4219 6.78876 15.3244 7.04001C15.9587 7.74001 16.3462 8.63189 16.3462 9.72564C16.3462 13.5663 14.0087 14.4131 11.7862 14.6575C12.1337 14.9569 12.4594 15.5725 12.4594 16.5069C12.4594 17.8444 12.4469 18.9219 12.4469 19.2475C12.4469 19.5075 12.6219 19.82 13.1369 19.7194C17.1369 18.4113 19.9987 14.6613 19.9987 10.2469C19.9987 4.72626 15.5231 0.246887 9.99875 0.246887L10 0.247512Z" fill="#A3403B" fill-opacity="0.5"/>
</svg>
