<svg width="30" height="30" viewBox="0 0 30 30" fill="none" xmlns="http://www.w3.org/2000/svg">
<g clip-path="url(#clip0_17_8)">
<path d="M15 4.96991C13.0067 4.96991 11.0582 5.55742 9.4009 6.65816C7.74356 7.75889 6.45182 9.32341 5.68903 11.1539C4.92624 12.9843 4.72666 14.9985 5.11553 16.9417C5.50439 18.8849 6.46424 20.6698 7.87369 22.0708C9.28314 23.4718 11.0789 24.4259 13.0339 24.8124C14.9888 25.1989 17.0152 25.0005 18.8567 24.2423C20.6983 23.4841 22.2723 22.2002 23.3797 20.5528C24.4871 18.9054 25.0781 16.9687 25.0781 14.9874C25.0781 12.3306 24.0163 9.7826 22.1263 7.90396C20.2363 6.02532 17.6729 4.96991 15 4.96991ZM22.3734 20.3456C21.7051 19.9561 20.9983 19.6361 20.2641 19.3904C20.6145 18.1059 20.8065 16.7839 20.8359 15.4533H24.1172C24.0303 17.2186 23.424 18.9196 22.3734 20.3456ZM5.8711 15.4533H9.16407C9.1925 16.7846 9.38375 18.1074 9.7336 19.3927C8.99938 19.6384 8.29253 19.9585 7.62422 20.3479C6.56993 18.9224 5.9603 17.2204 5.8711 15.4533ZM7.62657 9.6292C8.29488 10.0186 9.00172 10.3387 9.73594 10.5844C9.38549 11.8688 9.19346 13.1909 9.16407 14.5215H5.88282C5.96973 12.7562 6.57605 11.0551 7.62657 9.6292ZM15.4688 11.4044C16.7787 11.374 18.0806 11.191 19.3477 10.8593C19.681 12.0531 19.866 13.2829 19.8984 14.5215H15.4688V11.4044ZM15.4688 10.4725V5.94603C16.9453 6.22093 18.2555 7.76548 19.0617 9.97166C17.8875 10.2758 16.6818 10.4439 15.4688 10.4725ZM14.5313 5.94603V10.4725C13.3182 10.4439 12.1125 10.2758 10.9383 9.97166C11.7445 7.76548 13.0547 6.22093 14.5313 5.94603ZM14.5313 11.4044V14.5215H10.1016C10.1341 13.2829 10.319 12.0531 10.6523 10.8593C11.9194 11.191 13.2213 11.374 14.5313 11.4044ZM10.1016 15.4533H14.5313V18.5704C13.2213 18.6008 11.9194 18.7837 10.6523 19.1155C10.319 17.9217 10.1341 16.6918 10.1016 15.4533ZM14.5313 19.5022V24.0287C13.0547 23.7538 11.7445 22.2093 10.9383 20.0031C12.1125 19.6989 13.3182 19.5309 14.5313 19.5022ZM15.4688 24.0287V19.5022C16.6818 19.5309 17.8875 19.6989 19.0617 20.0031C18.2555 22.2093 16.9453 23.7538 15.4688 24.0287ZM15.4688 18.5704V15.4533H19.8984C19.866 16.6918 19.681 17.9217 19.3477 19.1155C18.0806 18.7837 16.7787 18.6008 15.4688 18.5704ZM20.8359 14.5215C20.8075 13.1902 20.6163 11.8674 20.2664 10.582C21.0006 10.3364 21.7075 10.0163 22.3758 9.62687C23.4343 11.0511 24.048 12.7532 24.1406 14.5215H20.8359ZM21.7734 8.89536C21.2034 9.21747 20.6038 9.48503 19.9828 9.69443C19.5824 8.48805 18.9343 7.37744 18.0797 6.43293C19.4967 6.93911 20.7662 7.78491 21.7758 8.89536H21.7734ZM11.918 6.43526C11.0633 7.37977 10.4153 8.49038 10.0148 9.69676C9.39386 9.48736 8.7943 9.2198 8.22422 8.89769C9.23311 7.78755 10.5018 6.94178 11.918 6.43526ZM8.22422 21.0794C8.7943 20.7573 9.39386 20.4897 10.0148 20.2803C10.4153 21.4867 11.0633 22.5973 11.918 23.5418C10.5018 23.0353 9.23311 22.1895 8.22422 21.0794ZM18.082 23.5395C18.9367 22.595 19.5847 21.4844 19.9852 20.278C20.6061 20.4874 21.2057 20.755 21.7758 21.0771C20.7669 22.1872 19.4982 23.033 18.082 23.5395Z" fill="#A3403B"/>
<path d="M15 1.83742e-07C12.3802 0.000440833 9.80619 0.682883 7.5342 1.9794C5.2622 3.27592 3.37145 5.14129 2.05012 7.38985C0.728803 9.63842 0.0229984 12.1917 0.00296215 14.7957C-0.0170741 17.3997 0.649357 19.9634 1.93592 22.2318L0.0163914 29.2207C-0.00448206 29.2905 -0.00861736 29.3642 0.00431712 29.4358C0.0172516 29.5075 0.046896 29.5751 0.0908734 29.6333C0.134851 29.6915 0.191938 29.7387 0.257557 29.771C0.323176 29.8033 0.395502 29.8199 0.468735 29.8195C0.509161 29.8198 0.549421 29.8143 0.588266 29.8032L7.71092 27.9394C9.71286 29.0463 11.9432 29.6826 14.231 29.7997C16.5188 29.9168 18.8031 29.5115 20.9088 28.6149C23.0146 27.7183 24.8857 26.3542 26.3787 24.6273C27.8718 22.9003 28.9471 20.8564 29.5221 18.6523C30.0971 16.4482 30.1566 14.1425 29.696 11.912C29.2354 9.68145 28.267 7.58543 26.865 5.78468C25.463 3.98393 23.6646 2.52628 21.6079 1.52355C19.5512 0.520818 17.2908 -0.000357264 15 1.83742e-07ZM15 28.8876C12.5458 28.8834 10.1355 28.2409 8.00858 27.0239C7.93714 26.9836 7.85632 26.9628 7.7742 26.9633C7.73395 26.9634 7.69384 26.9681 7.65467 26.9773L1.13436 28.6966L2.88983 22.29C2.90615 22.2305 2.91041 22.1683 2.90237 22.1072C2.89432 22.046 2.87412 21.987 2.84295 21.9336C1.2865 19.2718 0.657739 16.1736 1.0543 13.1202C1.45086 10.0667 2.85055 7.22883 5.03605 5.04713C7.22155 2.86543 10.0706 1.46199 13.1408 1.0547C16.211 0.64742 19.3306 1.25908 22.0152 2.79472C24.6998 4.33037 26.7993 6.70406 27.9875 9.54727C29.1758 12.3905 29.3865 15.5441 28.5868 18.5185C27.7871 21.4929 26.0218 24.1217 23.5651 25.9966C21.1083 27.8716 18.0974 28.8878 15 28.8876Z" fill="#A3403B"/>
</g>
<defs>
<clipPath id="clip0_17_8">
<rect width="30" height="29.8195" fill="white"/>
</clipPath>
</defs>
</svg>
