<svg width="31" height="30" viewBox="0 0 31 30" fill="none" xmlns="http://www.w3.org/2000/svg">
<path d="M15.0031 4.96991C13.0098 4.96991 11.0613 5.55742 9.40395 6.65816C7.74661 7.75889 6.45487 9.32341 5.69208 11.1539C4.92929 12.9843 4.72971 14.9985 5.11858 16.9417C5.50745 18.8849 6.46729 20.6698 7.87675 22.0708C9.2862 23.4718 11.0819 24.4259 13.0369 24.8124C14.9919 25.1989 17.0183 25.0005 18.8598 24.2423C20.7013 23.4841 22.2753 22.2002 23.3827 20.5528C24.4901 18.9054 25.0812 16.9687 25.0812 14.9874C25.0812 12.3306 24.0194 9.7826 22.1294 7.90396C20.2394 6.02532 17.6759 4.96991 15.0031 4.96991ZM22.3765 20.3456C21.7082 19.9561 21.0013 19.6361 20.2671 19.3904C20.6176 18.1059 20.8096 16.7839 20.839 15.4533H24.1202C24.0333 17.2186 23.427 18.9196 22.3765 20.3456ZM5.87415 15.4533H9.16712C9.19556 16.7846 9.38681 18.1074 9.73665 19.3927C9.00243 19.6384 8.29558 19.9585 7.62727 20.3479C6.57298 18.9224 5.96335 17.2204 5.87415 15.4533ZM7.62962 9.6292C8.29793 10.0186 9.00477 10.3387 9.73899 10.5844C9.38855 11.8688 9.19651 13.1909 9.16712 14.5215H5.88587C5.97279 12.7562 6.5791 11.0551 7.62962 9.6292ZM15.4718 11.4044C16.7818 11.374 18.0836 11.191 19.3507 10.8593C19.684 12.0531 19.869 13.2829 19.9015 14.5215H15.4718V11.4044ZM15.4718 10.4725V5.94603C16.9484 6.22093 18.2585 7.76548 19.0648 9.97166C17.8906 10.2758 16.6849 10.4439 15.4718 10.4725ZM14.5343 5.94603V10.4725C13.3212 10.4439 12.1155 10.2758 10.9413 9.97166C11.7476 7.76548 13.0577 6.22093 14.5343 5.94603ZM14.5343 11.4044V14.5215H10.1046C10.1371 13.2829 10.3221 12.0531 10.6554 10.8593C11.9225 11.191 13.2243 11.374 14.5343 11.4044ZM10.1046 15.4533H14.5343V18.5704C13.2243 18.6008 11.9225 18.7837 10.6554 19.1155C10.3221 17.9217 10.1371 16.6918 10.1046 15.4533ZM14.5343 19.5022V24.0287C13.0577 23.7538 11.7476 22.2093 10.9413 20.0031C12.1155 19.6989 13.3212 19.5309 14.5343 19.5022ZM15.4718 24.0287V19.5022C16.6849 19.5309 17.8906 19.6989 19.0648 20.0031C18.2585 22.2093 16.9484 23.7538 15.4718 24.0287ZM15.4718 18.5704V15.4533H19.9015C19.869 16.6918 19.684 17.9217 19.3507 19.1155C18.0836 18.7837 16.7818 18.6008 15.4718 18.5704ZM20.839 14.5215C20.8106 13.1902 20.6193 11.8674 20.2695 10.582C21.0037 10.3364 21.7105 10.0163 22.3788 9.62687C23.4373 11.0511 24.0511 12.7532 24.1437 14.5215H20.839ZM21.7765 8.89536C21.2064 9.21747 20.6069 9.48503 19.9859 9.69443C19.5855 8.48805 18.9374 7.37744 18.0827 6.43293C19.4998 6.93911 20.7693 7.78491 21.7788 8.89536H21.7765ZM11.921 6.43526C11.0664 7.37977 10.4183 8.49038 10.0179 9.69676C9.39692 9.48736 8.79735 9.2198 8.22727 8.89769C9.23616 7.78755 10.5049 6.94178 11.921 6.43526ZM8.22727 21.0794C8.79735 20.7573 9.39692 20.4897 10.0179 20.2803C10.4183 21.4867 11.0664 22.5973 11.921 23.5418C10.5049 23.0353 9.23616 22.1895 8.22727 21.0794ZM18.0851 23.5395C18.9397 22.595 19.5878 21.4844 19.9882 20.278C20.6092 20.4874 21.2088 20.755 21.7788 21.0771C20.77 22.1872 19.5013 23.033 18.0851 23.5395Z" fill="#A3403B" fill-opacity="0.5"/>
<path d="M15.003 1.83742e-07C12.3832 0.000440833 9.80924 0.682883 7.53725 1.9794C5.26525 3.27592 3.3745 5.14129 2.05318 7.38985C0.731855 9.63842 0.0260502 12.1917 0.0060139 14.7957C-0.0140223 17.3997 0.652409 19.9634 1.93897 22.2318L0.0194432 29.2207C-0.00143031 29.2905 -0.0055656 29.3642 0.00736887 29.4358C0.0203033 29.5075 0.0499477 29.5751 0.0939251 29.6333C0.137903 29.6915 0.194989 29.7387 0.260609 29.771C0.326228 29.8033 0.398554 29.8199 0.471787 29.8195C0.512213 29.8198 0.552473 29.8143 0.591318 29.8032L7.71397 27.9394C9.71591 29.0463 11.9463 29.6826 14.2341 29.7997C16.5218 29.9168 18.8062 29.5115 20.9119 28.6149C23.0176 27.7183 24.8888 26.3542 26.3818 24.6273C27.8748 22.9003 28.9501 20.8564 29.5251 18.6523C30.1002 16.4482 30.1597 14.1425 29.6991 11.912C29.2385 9.68145 28.27 7.58543 26.868 5.78468C25.466 3.98393 23.6677 2.52628 21.611 1.52355C19.5543 0.520818 17.2938 -0.000357264 15.003 1.83742e-07ZM15.003 28.8876C12.5489 28.8834 10.1386 28.2409 8.01163 27.0239C7.94019 26.9836 7.85937 26.9628 7.77726 26.9633C7.737 26.9634 7.69689 26.9681 7.65772 26.9773L1.13741 28.6966L2.89288 22.29C2.9092 22.2305 2.91346 22.1683 2.90542 22.1072C2.89737 22.046 2.87718 21.987 2.84601 21.9336C1.28955 19.2718 0.660791 16.1736 1.05735 13.1202C1.45391 10.0667 2.8536 7.22883 5.0391 5.04713C7.2246 2.86543 10.0736 1.46199 13.1438 1.0547C16.214 0.64742 19.3336 1.25908 22.0182 2.79472C24.7029 4.33037 26.8023 6.70406 27.9906 9.54727C29.1789 12.3905 29.3896 15.5441 28.5899 18.5185C27.7902 21.4929 26.0249 24.1217 23.5681 25.9966C21.1113 27.8716 18.1005 28.8878 15.003 28.8876Z" fill="#A3403B" fill-opacity="0.5"/>
</svg>
