<?xml version="1.0" encoding="UTF-8"?>
<!-- Created with Inkscape (http://www.inkscape.org/) -->
<svg width="80.497mm" height="22.245mm" version="1.1" viewBox="0 0 80.497 22.245" xmlns="http://www.w3.org/2000/svg">
<defs>
<marker id="Arrow1Lstart-9" overflow="visible" orient="auto">
<path transform="matrix(.8 0 0 .8 10 0)" d="m0 0 5-5-17.5 5 17.5 5z" fill="context-stroke" fill-rule="evenodd" stroke="context-stroke" stroke-width="1pt"/>
</marker>
</defs>
<g transform="translate(-284.55 -556.54)">
<g transform="matrix(.41679 0 0 .41679 88.353 226.29)" fill="#8e7440"></g>
<g transform="matrix(.41679 0 0 .41679 88.353 226.29)" fill="#dace68"></g>
<g transform="matrix(.41679 0 0 .41679 88.353 226.29)" fill="#87583c"></g>
<g transform="matrix(.41679 0 0 .41679 179.93 385.3)" fill="#8e7440"></g>
<g transform="matrix(.41679 0 0 .41679 179.93 385.3)" fill="#dace68"></g>
<g transform="matrix(.41679 0 0 .41679 179.93 385.3)" fill="#87583c"></g>
<g transform="translate(-.11971 -2.7787)" fill="#fff">
<g stroke-width=".26458" aria-label="оследний">
<path d="m304.96 564.49q0-0.64558-0.20108-1.1536-0.20108-0.51858-0.59266-0.87841-0.39159-0.35983-0.9525-0.55033-0.56092-0.20109-1.27-0.20109-1.5134 0-2.3177 0.75142-0.79375 0.74083-0.79375 2.032v2.3812q0 1.2912 0.79375 2.0426 0.80433 0.74083 2.3177 0.74083 0.70908 0 1.27-0.1905 0.56091-0.20108 0.9525-0.56091 0.39158-0.35983 0.59266-0.86783 0.20108-0.51858 0.20108-1.1642zm-4.9106 2.7093v-3.0374q0-0.52917 0.15875-0.87841 0.16933-0.35984 0.43392-0.5715 0.26458-0.21167 0.59266-0.29633 0.32808-0.0952 0.65617-0.0847 0.32808-0.0106 0.65616 0.0741 0.33867 0.0847 0.60325 0.29633 0.26458 0.21167 0.42333 0.5715 0.16933 0.35983 0.16933 0.889v3.0374q0 0.52916-0.16933 0.88899-0.15875 0.35984-0.42333 0.5715-0.26458 0.21167-0.60325 0.29633-0.32808 0.0847-0.65616 0.0741-0.32809 0.0106-0.65617-0.0741-0.32808-0.0952-0.59266-0.30691-0.26459-0.21167-0.43392-0.56092-0.15875-0.35983-0.15875-0.88899z"/>
<path d="m307.8 565.7q0-1.5875 0.64558-2.4447 0.64558-0.86783 1.7462-0.86783 0.80433 0 1.3652 0.45508 0.5715 0.45508 0.86783 1.5028h0.3175q-0.0953-0.43392-0.127-0.83608-0.0212-0.41275-0.0317-0.71967-0.0106-0.31749-0.0212-0.49741 0-0.1905-0.0635-0.1905-0.254 0-0.56091-0.0635-0.30692-0.0635-0.635-0.13758-0.3175-0.0847-0.64558-0.14817-0.32808-0.0635-0.62442-0.0635-0.79374 0-1.4605 0.29633-0.65617 0.29634-1.143 0.83608-0.48683 0.52917-0.76199 1.2806-0.26459 0.74083-0.26459 1.6404 0 0.6985 0.16934 1.3335 0.16933 0.62442 0.50799 1.143 0.33867 0.508 0.83608 0.87841 0.49742 0.35983 1.1536 0.508 0.46567 0.11642 0.94192 0.11642 0.29633 0 0.62441-0.0635 0.32809-0.0635 0.64558-0.13759 0.32809-0.0847 0.635-0.14816 0.30692-0.0635 0.56092-0.0635 0.0635 0 0.0635-0.17992 0.0106-0.1905 0.0212-0.49741 0.0106-0.3175 0.0318-0.71967 0.0317-0.41275 0.127-0.84666h-0.3175q-0.29633 1.0477-0.86783 1.5028-0.56091 0.45508-1.3652 0.45508-0.0529 0.0317-0.21167 0.0106-0.14816-0.0212-0.32808-0.0529-0.16933-0.0423-0.3175-0.0952t-0.1905-0.10583q-0.62441-0.35983-0.97366-1.1642t-0.34925-1.9156z"/>
<path d="m314.99 561.71v0.47625q0.34924 0 0.53974 0.0847 0.20109 0.0847 0.28575 0.28575 0.0953 0.1905 0.10584 0.51858 0.0212 0.3175 0.0212 0.80433v3.3337q0 0.51859-0.15875 0.86783-0.15875 0.34925-0.41275 0.5715-0.254 0.21167-0.56091 0.30692-0.30692 0.0847-0.59267 0.0847-0.11641 0-0.22225-0.0106-0.10583-0.0212-0.21166-0.0423v0.65616q0.0847 0.0106 0.17992 0.0106 0.0952 0.0106 0.20108 0.0106 0.70908 0 1.2594-0.1905 0.56092-0.20108 0.94191-0.56092 0.39159-0.35983 0.59267-0.86783 0.20108-0.51858 0.20108-1.1642v-3.0057q0-0.44449 0.0106-0.75141 0.0106-0.3175 0.0741-0.508 0.0635-0.20108 0.20108-0.29633 0.13758-0.0952 0.381-0.10583h1.8944v5.2599q0 0.48683-0.0212 0.81491-0.0106 0.3175-0.0953 0.51858-0.0847 0.1905-0.254 0.27517-0.16933 0.0847-0.48683 0.0847h-0.10583v0.47625h3.1327v-0.47625q-0.34925 0-0.55034-0.0847-0.19049-0.0847-0.28574-0.27517-0.0847-0.20108-0.10584-0.51858-0.0106-0.32808-0.0106-0.81491v-5.2599h0.9525v-0.508z"/>
<path d="m325.23 565.63h2.8892v-0.48683h-2.8892l-0.0106-2.6458h3.1856q0.26459 0 0.40217 0.0212t0.1905 0.11641q0.0635 0.0847 0.0635 0.27517 0.0106 0.1905 0.0318 0.53975h0.47625v-1.7462l-6.5087 0.0106v0.47625q0.34925 0 0.53974 0.0847 0.20109 0.0847 0.28575 0.28575 0.0953 0.1905 0.10584 0.51858 0.0212 0.3175 0.0212 0.80433v4.9742h-0.95249v0.79375h6.5193v-1.7462h-0.47625q-0.0212 0.34925-0.0318 0.53975 0 0.1905-0.0635 0.28575-0.0529 0.0847-0.1905 0.10583-0.13758 0.0212-0.40216 0.0212h-3.1856z"/>
<path d="m331.26 561.74v0.47625q0.34925 0 0.53975 0.0847 0.20108 0.0847 0.28575 0.28575 0.0953 0.1905 0.10583 0.51858 0.0212 0.3175 0.0212 0.80433v3.302q0 0.67733-0.27517 1.0795-0.26458 0.39158-0.635 0.57149h-0.60325v1.7568h0.47625v-0.32808q0.0106-0.26458 0.0635-0.40217 0.0529-0.12699 0.22225-0.17991 0.17992-0.0529 0.508-0.0529 0.33867 0 0.89958 0h4.3815q0.26458 0 0.40216 0.0212t0.1905 0.10583q0.0635 0.0952 0.0635 0.28575 0.0106 0.1905 0.0318 0.53975h0.47625v-1.7462h-1.2171l-0.0106-6.6146h0.97366v-0.508zm2.1696 5.1435v-2.9739q0-0.4445 0.0106-0.75141 0.0106-0.3175 0.0741-0.508 0.0635-0.20108 0.20108-0.29633 0.13759-0.0952 0.381-0.10584h1.8944v6.6146h-3.2914q0.17991-0.0952 0.3175-0.29633 0.13758-0.21166 0.22225-0.47625 0.0952-0.27516 0.13758-0.58208 0.0529-0.3175 0.0529-0.62441z"/>
<path d="m339.67 569.2h0.10583q0.3175 0 0.48683-0.0847t0.254-0.27516q0.0847-0.20108 0.0953-0.51858 0.0212-0.32809 0.0212-0.81492v-5.7785h1.2171v3.4502h2.4447v-3.4502h1.2171v5.7785q0 0.48683 0.0106 0.81492 0.0212 0.3175 0.10583 0.51858 0.0953 0.1905 0.28575 0.27516 0.20108 0.0847 0.55033 0.0847v0.47625h-3.1326v-0.47625h0.10583q0.3175 0 0.48683-0.0847t0.254-0.27516q0.0847-0.20108 0.0952-0.51858 0.0212-0.32809 0.0212-0.81492v-1.8415h-2.4447v1.8415q0 0.48683 0.0106 0.81492 0.0212 0.3175 0.10583 0.51858 0.0952 0.1905 0.28575 0.27516 0.20108 0.0847 0.55033 0.0847v0.47625h-3.1326z"/>
<path d="m348.75 563.87q0-0.48683-0.0212-0.80433-0.0106-0.32808-0.10583-0.51858-0.0847-0.20108-0.28575-0.28575-0.1905-0.0847-0.53975-0.0847v-0.47625h3.1327v0.47625h-0.10583q-0.3175 0-0.48683 0.0847-0.16934 0.0847-0.254 0.28575-0.0847 0.1905-0.10584 0.51858-0.0106 0.3175-0.0106 0.80433v3.0903l3.6301-4.064q-0.0529-0.39158-0.254-0.55033-0.1905-0.15875-0.66675-0.15875v-0.47625h3.1327v0.47625h-0.10583q-0.40217 0-0.60325 0.14816-0.20108 0.14817-0.254 0.49742v4.6461q0 0.48683 0.0106 0.81491 0.0212 0.3175 0.10584 0.51858 0.0953 0.1905 0.28575 0.27517 0.20108 0.0847 0.55033 0.0847v0.47625h-3.1327v-0.47625h0.10583q0.3175 0 0.48684-0.0847 0.16933-0.0847 0.254-0.27517 0.0847-0.20108 0.0953-0.51858 0.0212-0.32808 0.0212-0.81491v-2.9422q-0.67733 0.70908-1.6087 1.7462-0.92075 1.0266-1.9791 2.3812 0.0847 0.27516 0.27517 0.39158 0.20108 0.10583 0.60325 0.10583v0.47625h-3.1327v-0.47625h0.10583q0.3175 0 0.48683-0.0847 0.16934-0.0847 0.254-0.27516 0.0847-0.20108 0.0953-0.51858 0.0212-0.32809 0.0212-0.81492z"/>
<path d="m358.11 563.87q0-0.48683-0.0212-0.80433-0.0106-0.32808-0.10583-0.51858-0.0847-0.20108-0.28575-0.28575-0.1905-0.0847-0.53975-0.0847v-0.47625h3.1327v0.47625h-0.10584q-0.3175 0-0.48683 0.0847t-0.254 0.28575q-0.0847 0.1905-0.10583 0.51858-0.0106 0.3175-0.0106 0.80433v3.0903l3.6301-4.064q-0.0529-0.39158-0.254-0.55033-0.1905-0.15875-0.66675-0.15875v-0.47625h3.1327v0.47625h-0.10584q-0.40216 0-0.60324 0.14816-0.20109 0.14817-0.254 0.49742v4.6461q0 0.48683 0.0106 0.81491 0.0212 0.3175 0.10583 0.51858 0.0952 0.1905 0.28575 0.27517 0.20109 0.0847 0.55033 0.0847v0.47625h-3.1326v-0.47625h0.10583q0.3175 0 0.48683-0.0847 0.16934-0.0847 0.254-0.27517 0.0847-0.20108 0.0952-0.51858 0.0212-0.32808 0.0212-0.81491v-2.9422q-0.67733 0.70908-1.6087 1.7462-0.92075 1.0266-1.9791 2.3812 0.0847 0.27516 0.27517 0.39158 0.20108 0.10583 0.60324 0.10583v0.47625h-3.1326v-0.47625h0.10583q0.3175 0 0.48683-0.0847t0.254-0.27516q0.0847-0.20108 0.0953-0.51858 0.0212-0.32809 0.0212-0.81492zm3.1221-3.7359q-0.17992 0-0.28575-0.0635-0.10583-0.0741-0.15875-0.1905-0.0529-0.11642-0.0847-0.254-0.0212-0.14817-0.0317-0.30692h-0.635q-0.0212 0.254 0.0423 0.49742 0.0635 0.24341 0.21167 0.43391 0.15875 0.1905 0.39158 0.30692 0.23283 0.11641 0.56091 0.10583 0.34925-0.0106 0.59267-0.127 0.24341-0.11641 0.39158-0.30691t0.21167-0.42334q0.0635-0.24341 0.0635-0.48683h-0.59267q-0.0212 0.14817-0.0529 0.29633-0.0317 0.13759-0.10584 0.254-0.0741 0.11642-0.20108 0.1905-0.127 0.0741-0.3175 0.0741z"/>
</g>
<path d="m335.91 561.51c-0.24485-0.0577-0.19905 0.45892-0.12128 0.63263-0.63462-0.36485-0.39767-0.96438-0.42651-1.0236-0.16884-0.13684-0.37412-0.147-0.63443-0.0551 0.15282-0.28435 0.54023-0.51182 0.96675-0.43007 0.19618 0.0376 0.21611-0.43747 0.1084-0.62022 0.32589 0.17431 0.37466 0.38597 0.43075 0.58767 0.0646 0.23382-0.0593 0.39153 0.0438 0.47328 0.14287 0.11325 0.42132 0.0966 0.58823 5e-3 -0.15591 0.3602-0.66802 0.49781-0.95566 0.43009zm-0.23401-0.34432c0.0897 0.0898 0.24397 0.0483 0.27691-0.0744 0.0329-0.12272-0.0798-0.23549-0.20251-0.20255-0.12271 0.033-0.16416 0.18715-0.0744 0.27693z" stroke-width=".0031177"/>
<g transform="translate(262.54 436.43)" stroke-width="0">
<rect x="25.792" y="124.69" width="1.1414" height="8.0038" marker-start="url(#Arrow1Lstart-9)"/>
<rect x="28.884" y="124.74" width="1.1414" height="1.5933" marker-start="url(#Arrow1Lstart-9)"/>
<path d="m25.073 133.18 0.71861-0.47919 1.1431-2.7e-4 0.76206 0.47677z" marker-start="url(#Arrow1Lstart-9)"/>
<path d="m31.116 133.17 0.71862-0.47916 1.1431-2.7e-4 0.76206 0.47679z" marker-start="url(#Arrow1Lstart-9)"/>
<rect x="31.84" y="124.71" width="1.1366" height="7.9864" marker-start="url(#Arrow1Lstart-9)"/>
<path d="m22.129 124.18c5.0488 0.68902 9.9999 0.63485 14.873 4.1e-4l-0.4551 0.47425c-4.4793 0.60941-9.1263 0.67391-13.983 0z" marker-start="url(#Arrow1Lstart-9)"/>
<path d="m23.209 125.12c4.3826 0.73067 8.5934 0.70279 12.683 7.3e-4l-0.25132 0.83056c-3.7734 0.63123-7.985 0.59553-12.188-0.031z" marker-start="url(#Arrow1Lstart-9)"/>
</g>
<g transform="translate(-47.387 6.2801)" stroke-width=".093243px">
<path d="m348.84 573.74 0.16167-1.0989c-3.1686 0.63391-4.3324 0.0436-5.2579-0.80475 0.15622 0.60295 0.7948 1.1 1.9248 1.4709 0.0778 0.0216 0.0876 0.0484 0.10114 0.075l0.0526 0.32073c-0.31136 0.0328-0.57915 0.13979-1.2778-0.0803-0.0926-0.0291-0.0427-0.26853-0.15254-0.32325-0.108-0.0466-0.22293 0.0767-0.36137 0.0905-0.27785 0.0277-0.55282-0.26663-0.58682-0.35995-0.0533-0.14623-0.0213-0.30617-0.0771-0.36687-0.10639-0.0866-0.31157 0.0495-0.37986-0.0422 0 0-0.22121-0.20357-0.25428-0.34163-0.0299-0.1248 0.065-0.37948 0.065-0.37948 0.0213-0.0298-0.27105-0.10714-0.35905-0.21285-0.0712-0.0856-0.10351-0.2113-0.0897-0.32179 0.0181-0.14468 0.21755-0.37948 0.21755-0.37948 0.029-6e-3 -0.24752-0.12199-0.30512-0.23839-0.0464-0.0939-0.0327-0.21915 0.0118-0.31392 0.0641-0.13643 0.33537-0.31869 0.30858-0.33013 0.0249-0.0448-0.1265-0.25939-0.12523-0.38402 1e-3 -0.11223 0.0534-0.23197 0.13588-0.30808 0.0952-0.0878 0.36956-0.13337 0.37252-0.14443 0.0185 2e-3 -0.0105-0.27022 0.0342-0.38651 0.0338-0.0877 0.12646-0.15105 0.21506-0.18259 0.12929-0.046 0.41167 8e-3 0.41167 8e-3 0.042 7e-3 0.0782-0.24844 0.15057-0.33826 0.0834-0.10351 0.23329-0.18379 0.36445-0.16205 0.12084 0.02 0.31255 0.21952 0.32112 0.20069 0.0858-0.0681 0.14143-0.15287 0.20954-0.23075 0.0815-0.0932 0.41753-0.025 0.46815 0.0241 0.10944 0.10624 0.19458 0.23037 0.32977 0.31767 0.0621 0.0258 0.25059-0.0846 0.3515-0.0381 0.46424 0.21417 0.70642 0.77895 0.86952 1.2635 0.15621 0.44516-0.34772 1.864-0.75766 1.699 0.0219-0.65282-0.0765-1.0634-0.86849-1.2395-0.43977-0.0646-0.83714 0.15583-0.73805 0.63785 0.15953 0.72078 0.48886 0.96113 1.3296 1.0893 1.1193 0.15785 1.4335-0.32948 1.9829-0.94381 0.0811-0.0846 0.46787-0.86969 0.29895-1.6786-0.17899-0.6229-0.42384-1.5094-1.5266-1.9439-1.1022-0.37069-1.9057-0.26262-2.6034 0.14342-0.66697 0.31758-0.97858 0.66586-1.3954 1.3124-0.49827 0.95659-0.58218 1.8804-0.32856 2.8924 0.21847 0.97901 0.76682 1.4899 1.307 2.0124 0.58977 0.48026 1.3178 0.89251 2.608 1.0412 9.3e-4 0.12684 1e-3 0.25375 0.0594 0.37491l2.4921 0.0999 0.12567-0.63225c-0.51333 0.57896-1.5264-0.24661-1.0598-0.95556 0.41291-0.49906 0.99201-0.25216 1.2239 0.0884z" stroke="#fff"/>
<path d="m346.33 573.31c0.3108-0.0829 0.67472-0.15636 1.1093-0.16411-3e-3 0.21284-0.0113 0.42652-0.17669 0.60033-0.35065-0.0803-0.60298-0.14821-0.93259-0.43622z" stroke="#000"/>
</g>
<g stroke-width=".26458" aria-label="амурай">
<path d="m306.9 573.6-2.0532 4.8895q-0.31749 0.79374-0.58208 1.3017-0.254 0.49742-0.49741 0.79375-0.24342 0.29633-0.508 0.41275t-0.60325 0.14817v0.42333h3.3337v-0.43392h-0.35983q-0.381 0-0.5715-0.10583-0.1905-0.11642-0.1905-0.39158 0-0.27517 0.13758-0.71967 0.14817-0.45508 0.43392-1.1536h2.8363q0.27517 0.68792 0.41275 1.143 0.14817 0.45508 0.14817 0.73025 0 0.28575-0.1905 0.39158t-0.59267 0.10583h-0.35983v0.43392h3.9476v-0.42333q-0.35983-0.0212-0.635-0.17992-0.27516-0.15875-0.51858-0.47625-0.24341-0.3175-0.48683-0.80433-0.24341-0.49741-0.52916-1.1959l-2.0638-4.8895zm-0.0212 1.7357 1.2065 2.9527h-2.4447z"/>
<path d="m319.03 576.42v2.9422q0 0.48683-0.0212 0.81492-0.0106 0.31749-0.0953 0.51858-0.0847 0.1905-0.254 0.27516-0.16933 0.0847-0.48683 0.0847h-0.10583v0.47625h3.1326v-0.47625q-0.34924 0-0.55033-0.0847-0.1905-0.0847-0.28575-0.27516-0.0847-0.20109-0.10583-0.51858-0.0106-0.32809-0.0106-0.81492v-4.6461q0.0529-0.34925 0.254-0.49741 0.20108-0.14817 0.60324-0.14817h0.10584v-0.47625h-3.1327v0.47625q0.47625 0 0.66675 0.15875 0.20108 0.15875 0.254 0.55033l-2.032 2.2966h-0.0212l0.0106-0.0106-2.0426-2.286q0.0529-0.39158 0.24342-0.55033 0.20108-0.15875 0.67733-0.15875v-0.47625h-3.1327v0.47625h0.10584q0.40216 0 0.60325 0.14817 0.20108 0.14816 0.25399 0.49741v4.6461q0 0.48683-0.0212 0.81492-0.0106 0.31749-0.10583 0.51858-0.0847 0.1905-0.28575 0.27516-0.1905 0.0847-0.53975 0.0847v0.47625h3.1326v-0.47625h-0.10583q-0.3175 0-0.48683-0.0847t-0.254-0.27516q-0.0847-0.20109-0.10583-0.51858-0.0106-0.32809-0.0106-0.81492v-2.9422q0.42334 0.4445 0.94192 1.016 0.51858 0.56092 1.1218 1.2594v0.0106l0.0212-0.0423v0.0317q0.60325-0.69849 1.1112-1.2594 0.51858-0.5715 0.9525-1.016zm-2.0638 2.2754-0.0106 0.0106q0 0.0106 0.0106 0.0106zm-0.0106 0.0106h-0.0106v0.0106z"/>
<path d="m323.24 581.54h3.048v-0.47625q-0.27517 0-0.45508-0.0106-0.17992-0.0212-0.28575-0.0847-0.0952-0.0741-0.14817-0.21167-0.0423-0.13758-0.0529-0.39158 0.0423-0.27516 0.17992-0.4445 0.13758-0.16933 0.33867-0.27516 0.21166-0.10584 0.45508-0.15875 0.24341-0.0529 0.48683-0.10584 0.96308-0.21166 1.397-0.91016 0.44449-0.70908 0.44449-1.7886v-0.91016q0-0.48683 0.0106-0.80433 0.0212-0.32808 0.10583-0.51858 0.0847-0.20109 0.254-0.28575 0.16933-0.0847 0.48683-0.0847l0.10583-0.0317v-0.4445h-3.1326v0.47625q0.34925 0 0.53975 0.0847 0.20108 0.0847 0.28575 0.28575 0.0953 0.1905 0.10583 0.51858 0.0212 0.3175 0.0212 0.80433v1.2382q0 0.52916-0.10583 0.88899-0.0952 0.34925-0.28575 0.56092-0.17991 0.21166-0.4445 0.30691-0.26458 0.0847-0.59266 0.0741-0.32808 0.0106-0.59267-0.0741-0.25399-0.0847-0.43391-0.29633-0.17992-0.21167-0.27517-0.5715-0.0952-0.35983-0.0952-0.88899v-1.2382q0-0.48683 0.0106-0.80433 0.0212-0.32808 0.10583-0.51858 0.0952-0.20109 0.28575-0.28575 0.20108-0.0847 0.55033-0.0847v-0.47625h-3.1327v0.47625h0.10584q0.3175 0 0.48683 0.0847t0.254 0.28575q0.0847 0.1905 0.0952 0.51858 0.0212 0.3175 0.0212 0.80433v0.91016q0 0.89958 0.30692 1.5346t0.92075 0.96308q0.127 0.0847 0.254 0.11642 0.127 0.0212 0.26458 0.0741-0.24342 0.127-0.42333 0.254-0.17992 0.11642-0.30692 0.254t-0.20108 0.3175q-0.0635 0.17991-0.0847 0.42333 0.0106 0.15875-0.0212 0.254-0.0212 0.0847-0.11642 0.127-0.0847 0.0423-0.26458 0.0529-0.16934 0.0106-0.45509 0.0106h-0.0212z"/>
<path d="m334.79 573.59q-1.4711 0-2.2754 0.70908-0.79375 0.70908-0.83609 1.9367v3.1327q0 0.48683-0.0212 0.81492-0.0106 0.31749-0.10584 0.51858-0.0847 0.1905-0.28574 0.27516-0.1905 0.0847-0.53975 0.0847v0.47625h3.1326v-0.47625h-0.10583q-0.3175 0-0.48683-0.0847t-0.254-0.27516q-0.0847-0.20109-0.10583-0.51858-0.0106-0.32809-0.0106-0.81492v-0.94191q0.73025 0.4445 1.8944 0.4445 1.397 0 2.1802-0.6985 0.78317-0.70908 0.83608-1.9368-0.0529-1.2277-0.83608-1.9367-0.78316-0.70908-2.1802-0.70908zm-1.8944 2.4553q0-0.52917 0.15875-0.87842 0.16934-0.35983 0.43392-0.5715 0.26458-0.21166 0.59266-0.29633 0.32809-0.0952 0.65617-0.0847 0.32808-0.0106 0.65616 0.0741 0.33867 0.0847 0.60325 0.29633 0.26458 0.21167 0.42333 0.5715 0.16934 0.35983 0.16934 0.889v0.37041q0 0.52917-0.16934 0.889-0.15875 0.35983-0.42333 0.5715-0.26458 0.21166-0.60325 0.29633-0.32808 0.0847-0.65616 0.0741-0.3175 0.0106-0.635-0.0635-0.3175-0.0847-0.58208-0.27516-0.254-0.20109-0.43392-0.51859-0.16933-0.32808-0.1905-0.81491z"/>
<path d="m343.06 573.6-2.0532 4.8895q-0.3175 0.79374-0.58208 1.3017-0.254 0.49742-0.49741 0.79375-0.24342 0.29633-0.508 0.41275t-0.60325 0.14817v0.42333h3.3337v-0.43392h-0.35983q-0.381 0-0.5715-0.10583-0.1905-0.11642-0.1905-0.39158 0-0.27517 0.13758-0.71967 0.14817-0.45508 0.43392-1.1536h2.8363q0.27517 0.68792 0.41275 1.143 0.14817 0.45508 0.14817 0.73025 0 0.28575-0.1905 0.39158t-0.59267 0.10583h-0.35983v0.43392h3.9476v-0.42333q-0.35983-0.0212-0.635-0.17992-0.27516-0.15875-0.51858-0.47625-0.24341-0.3175-0.48683-0.80433-0.24342-0.49741-0.52916-1.1959l-2.0638-4.8895zm-0.0212 1.7357 1.2065 2.9527h-2.4447z"/>
<path d="m349.88 575.76q0-0.48684-0.0212-0.80433-0.0106-0.32809-0.10584-0.51859-0.0847-0.20108-0.28574-0.28575-0.1905-0.0847-0.53975-0.0847v-0.47625h3.1326v0.47625h-0.10583q-0.3175 0-0.48683 0.0847t-0.254 0.28575q-0.0847 0.1905-0.10583 0.51859-0.0106 0.31749-0.0106 0.80433v3.0903l3.6301-4.064q-0.0529-0.39158-0.254-0.55033-0.1905-0.15875-0.66675-0.15875v-0.47625h3.1327v0.47625h-0.10584q-0.40216 0-0.60325 0.14817-0.20108 0.14816-0.254 0.49741v4.6461q0 0.48683 0.0106 0.81492 0.0212 0.31749 0.10583 0.51858 0.0953 0.1905 0.28575 0.27516 0.20108 0.0847 0.55033 0.0847v0.47625h-3.1326v-0.47625h0.10583q0.3175 0 0.48683-0.0847t0.254-0.27516q0.0847-0.20109 0.0953-0.51858 0.0212-0.32809 0.0212-0.81492v-2.9422q-0.67734 0.70908-1.6087 1.7462-0.92074 1.0266-1.9791 2.3812 0.0847 0.27517 0.27516 0.39158 0.20109 0.10584 0.60325 0.10584v0.47624h-3.1327v-0.47624h0.10584q0.3175 0 0.48683-0.0847t0.254-0.27517q0.0847-0.20108 0.0952-0.51858 0.0212-0.32808 0.0212-0.81491zm3.1221-3.7359q-0.17992 0-0.28575-0.0635-0.10583-0.0741-0.15875-0.1905-0.0529-0.11641-0.0847-0.254-0.0212-0.14816-0.0317-0.30691h-0.635q-0.0212 0.254 0.0423 0.49741 0.0635 0.24342 0.21166 0.43392 0.15875 0.1905 0.39159 0.30691 0.23283 0.11642 0.56091 0.10584 0.34925-0.0106 0.59267-0.127 0.24341-0.11642 0.39158-0.30692 0.14816-0.1905 0.21166-0.42333 0.0635-0.24342 0.0635-0.48683h-0.59266q-0.0212 0.14816-0.0529 0.29633-0.0317 0.13758-0.10583 0.254-0.0741 0.11642-0.20108 0.1905-0.127 0.0741-0.3175 0.0741z"/>
</g>
<g transform="translate(-39.394 19.177)" stroke-width=".0031177">
<path d="m384.79 556.11c0.13237 0.21392 0.46526-0.18375 0.5331-0.36158 0.19075 0.70675-0.40073 0.96312-0.42222 1.0254 0.0226 0.21614 0.16059 0.3685 0.40966 0.48757-0.30913 0.093-0.74392-0.0201-0.98771-0.3795-0.11213-0.16531-0.46215 0.15654-0.51521 0.36191-0.10718-0.35369 8e-3 -0.53784 0.11097-0.72012 0.11972-0.21098 0.31879-0.23491 0.30371-0.3656-0.0209-0.18109-0.22963-0.36621-0.41217-0.4197 0.36494-0.14445 0.82437 0.12034 0.97987 0.37162zm-0.078 0.40895c0-0.12692-0.13834-0.20668-0.24842-0.14322-0.11007 0.0635-0.11007 0.22297 0 0.28643 0.11008 0.0635 0.24842-0.0163 0.24842-0.14321z"/>
<path d="m379.65 560.24c-0.24485-0.0577-0.19905 0.45892-0.12128 0.63263-0.63462-0.36486-0.39767-0.96438-0.42651-1.0236-0.16884-0.13684-0.37412-0.14701-0.63443-0.0551 0.15282-0.28435 0.54023-0.51182 0.96675-0.43007 0.19618 0.0376 0.21611-0.43747 0.1084-0.62022 0.32589 0.17431 0.37466 0.38597 0.43075 0.58767 0.0646 0.23382-0.0593 0.39153 0.0438 0.47328 0.14287 0.11325 0.42132 0.0966 0.58823 5e-3 -0.15591 0.3602-0.66802 0.49781-0.95566 0.43009zm-0.23401-0.34432c0.0897 0.0898 0.24397 0.0483 0.27691-0.0744 0.0329-0.12272-0.0798-0.23549-0.20251-0.20255-0.12271 0.033-0.16416 0.18715-0.0744 0.27693z"/>
</g>
</g>
</g>
<style type="text/css">.st0{fill:#94A6B0;}
	.st1{fill:#4A5A63;}</style>
<style type="text/css">.st0{fill:#94A6B0;}
	.st1{fill:#4A5A63;}</style>
<style type="text/css">.st0{fill:#94A6B0;}
	.st1{fill:#4A5A63;}</style>
<style type="text/css">.st0{fill:#94A6B0;}
	.st1{fill:#4A5A63;}</style>
</svg>
