<?xml version="1.0" encoding="UTF-8"?>
<!-- Created with Inkscape (http://www.inkscape.org/) -->
<svg width="93.906mm" height="22.252mm" version="1.1" viewBox="0 0 93.906 22.252" xmlns="http://www.w3.org/2000/svg">
<g transform="translate(-182.8 -362.96)">
<g transform="matrix(.41679 0 0 .41679 88.353 226.29)" fill="#8e7440"></g>
<g transform="matrix(.41679 0 0 .41679 88.353 226.29)" fill="#dace68"></g>
<g transform="matrix(.41679 0 0 .41679 88.353 226.29)" fill="#87583c"></g>
<g transform="matrix(.41679 0 0 .41679 179.93 385.3)" fill="#8e7440"></g>
<g transform="matrix(.41679 0 0 .41679 179.93 385.3)" fill="#dace68"></g>
<g transform="matrix(.41679 0 0 .41679 179.93 385.3)" fill="#87583c"></g>
<g stroke-width=".26458" aria-label="THE LAST   AMURAI">
<path d="m223.75 363.75q0.26458 0 0.40217 0.0212 0.13758 0.0212 0.19049 0.11641 0.0635 0.0847 0.0635 0.27517 0.0106 0.1905 0.0318 0.53975h0.47625v-1.7462h-6.5828v1.7568h0.47625v-0.32808q0.0106-0.26458 0.0635-0.39158 0.0529-0.13759 0.22225-0.1905 0.17991-0.0529 0.508-0.0529 0.33866 0 0.89958 0h0.51858v4.9742q0 0.48683-0.0212 0.81492-0.0106 0.3175-0.10583 0.51858-0.0847 0.1905-0.28575 0.27516-0.1905 0.0847-0.53975 0.0847v0.47625h3.1327v-0.47625h-0.10583q-0.3175 0-0.48684-0.0847-0.16933-0.0847-0.254-0.27516-0.0847-0.20108-0.10583-0.51858-0.0106-0.32809-0.0106-0.81492v-4.9742z"/>
<path d="m226.16 363.43h0.10583q0.3175 0 0.48683 0.0847 0.16934 0.0847 0.254 0.28575 0.0847 0.1905 0.0952 0.51858 0.0212 0.3175 0.0212 0.80433v5.7785h1.2171v-3.4502h2.4447v3.4502h1.2171v-5.7785q0-0.48683 0.0106-0.80433 0.0212-0.32808 0.10584-0.51858 0.0952-0.20108 0.28575-0.28575 0.20108-0.0847 0.55033-0.0847v-0.47625h-3.1327v0.47625h0.10583q0.3175 0 0.48684 0.0847 0.16933 0.0847 0.25399 0.28575 0.0847 0.1905 0.0953 0.51858 0.0212 0.3175 0.0212 0.80433v1.8415h-2.4447v-1.8415q0-0.48683 0.0106-0.80433 0.0212-0.32808 0.10583-0.51858 0.0952-0.20108 0.28575-0.28575 0.20109-0.0847 0.55034-0.0847v-0.47625h-3.1327z"/>
<path d="m240.24 370.31h-2.2331q-0.32808 0-0.65616-0.0847t-0.59267-0.29633q-0.25399-0.22225-0.42333-0.5715-0.15875-0.34925-0.15875-0.87841v-1.5981h2.8892v-0.48683h-2.8892v-1.1748q0-0.43392 0.0106-0.74083 0.0106-0.30692 0.0741-0.49742 0.0741-0.20108 0.21167-0.30691 0.14816-0.10583 0.40216-0.13758h3.3761v-0.58209h-6.2547v0.4445l0.10584 0.0317q0.3175 0 0.48683 0.0847t0.254 0.28575q0.0847 0.1905 0.0952 0.51858 0.0212 0.3175 0.0212 0.80433v3.0162q0 1.2806 0.78317 2.0214 0.78316 0.74083 2.2648 0.75142h2.2331z"/>
<path d="m189.04 383.6h-2.2331q-0.32808 0-0.65616-0.0847-0.32809-0.0847-0.59267-0.29633-0.254-0.22225-0.42333-0.5715-0.15875-0.34925-0.15875-0.87841v-3.4078q0-0.43391 0.0106-0.74083 0.0106-0.30691 0.0741-0.49741 0.0741-0.20108 0.21166-0.30692 0.14817-0.10583 0.40217-0.13758h0.14816v-0.48683h-3.0268v0.4445l0.10583 0.0317q0.3175 0 0.48683 0.0847 0.16934 0.0847 0.254 0.28575 0.0847 0.1905 0.0952 0.51858 0.0212 0.3175 0.0212 0.80433v3.0162q0 1.2806 0.78316 2.0214 0.78317 0.74083 2.2648 0.75141h2.2331z"/>
<path d="m190.06 384.13h3.1326v-0.47625q-0.34925 0-0.55033-0.0847-0.1905-0.0847-0.28575-0.27517-0.0847-0.20108-0.10583-0.51858-0.0106-0.32808-0.0106-0.81491v-1.3547h3.6936v1.3547q0 0.48683-0.0212 0.81491-0.0106 0.3175-0.10583 0.51858-0.0847 0.1905-0.28575 0.27517-0.1905 0.0847-0.53975 0.0847v0.47625h3.1327v-0.47625h-0.10584q-0.31749 0-0.48683-0.0847-0.16933-0.0847-0.254-0.27517-0.0847-0.20108-0.10583-0.51858-0.0106-0.32808-0.0106-0.81491v-2.9845q0-0.64558-0.20109-1.1536-0.20108-0.51859-0.59266-0.87842t-0.9525-0.55033q-0.56091-0.20108-1.27-0.20108-1.5134 0-2.3178 0.75141-0.79374 0.74083-0.79374 2.032v2.9845q0 0.48683-0.0212 0.81491-0.0106 0.3175-0.0953 0.51858-0.0847 0.1905-0.254 0.27517-0.16933 0.0847-0.48683 0.0847l-0.10583 0.0317zm2.1802-5.4822q0-0.52916 0.15875-0.87841 0.16933-0.35983 0.43391-0.5715 0.26458-0.21166 0.59267-0.29633 0.32808-0.0953 0.65616-0.0847 0.32808-0.0106 0.65617 0.0741 0.33866 0.0847 0.60324 0.29633 0.26459 0.21166 0.42334 0.5715 0.16933 0.35983 0.16933 0.88899v1.4711h-3.6936z"/>
<path d="m199.45 378.25q-0.0212 0.60325 0.39158 1.1324 0.41275 0.51859 1.2594 0.8255l1.6722 0.60325q0.28575 0.10583 0.46567 0.29633 0.1905 0.17992 0.29633 0.39158 0.11642 0.20109 0.16933 0.41275 0.0529 0.21167 0.0529 0.35984 0.0106 0.35983-0.10583 0.59266-0.11642 0.23283-0.32808 0.37042-0.20109 0.127-0.48684 0.1905-0.27516 0.0529-0.59266 0.0529-0.381-0.0317-0.73025-0.0741-0.33866-0.0529-0.61383-0.14817-0.26458-0.10583-0.42333-0.26458-0.14817-0.16933-0.14817-0.43392l0.0106-0.89958h-0.508q-0.0212 0.20109-0.0529 0.45509-0.0318 0.254-0.0741 0.51858-0.0317 0.26458-0.0741 0.51858-0.0317 0.254-0.0741 0.45508 0.70908 0.22225 1.4076 0.381 0.70908 0.14817 1.4393 0.14817 0.52916 0 0.98425-0.13759 0.46566-0.14816 0.80433-0.41275 0.34925-0.27516 0.55033-0.65616 0.21166-0.381 0.23283-0.86783 0.0106-0.28575-0.0635-0.58208-0.0635-0.30692-0.23283-0.58208-0.16933-0.28575-0.4445-0.52917-0.26458-0.24341-0.64558-0.40216l-1.5663-0.65617q-0.28575-0.11641-0.55033-0.26458t-0.46567-0.3175q-0.1905-0.17992-0.3175-0.35983-0.11641-0.17992-0.11641-0.35983-0.0106-0.28575 0.11641-0.49742 0.127-0.22225 0.33867-0.37041 0.22225-0.14817 0.508-0.22225 0.28575-0.0741 0.59266-0.0953 0.28575 0.0212 0.62442 0.0847 0.33866 0.0529 0.62441 0.16934 0.28575 0.10583 0.47625 0.28574 0.20108 0.16934 0.20108 0.41275l-0.0212 0.89958 0.508 0.0106q0.0318-0.20109 0.0635-0.45508 0.0317-0.254 0.0635-0.51859 0.0423-0.26458 0.0741-0.51858 0.0423-0.254 0.0847-0.45508-0.75141-0.28575-1.4393-0.40217-0.67734-0.12699-1.4922-0.12699-1.1748 0.0741-1.8097 0.53974-0.62442 0.45509-0.635 1.5028z"/>
<path d="m211.63 376.98q0.26458 0 0.40216 0.0212 0.13759 0.0212 0.1905 0.11642 0.0635 0.0847 0.0635 0.27516 0.0106 0.1905 0.0317 0.53975h0.47625v-1.7462h-6.5828v1.7568h0.47625v-0.32809q0.0106-0.26458 0.0635-0.39158 0.0529-0.13758 0.22225-0.1905 0.17991-0.0529 0.50799-0.0529 0.33867 0 0.89958 0h0.51859v4.9742q0 0.48683-0.0212 0.81491-0.0106 0.3175-0.10583 0.51858-0.0847 0.1905-0.28575 0.27517-0.1905 0.0847-0.53975 0.0847v0.47625h3.1327v-0.47625h-0.10584q-0.3175 0-0.48683-0.0847t-0.254-0.27517q-0.0847-0.20108-0.10583-0.51858-0.0106-0.32808-0.0106-0.81491v-4.9742z"/>
<path d="m227.46 384.13h3.1327v-0.47625q-0.34925 0-0.55033-0.0847-0.1905-0.0847-0.28575-0.27517-0.0847-0.20108-0.10584-0.51858-0.0106-0.32808-0.0106-0.81491v-1.3547h3.6936v1.3547q0 0.48683-0.0212 0.81491-0.0106 0.3175-0.10584 0.51858-0.0847 0.1905-0.28575 0.27517-0.1905 0.0847-0.53974 0.0847v0.47625h3.1326v-0.47625h-0.10583q-0.3175 0-0.48683-0.0847t-0.254-0.27517q-0.0847-0.20108-0.10583-0.51858-0.0106-0.32808-0.0106-0.81491v-2.9845q0-0.64558-0.20108-1.1536-0.20108-0.51859-0.59266-0.87842-0.39159-0.35983-0.9525-0.55033-0.56092-0.20108-1.27-0.20108-1.5134 0-2.3177 0.75141-0.79375 0.74083-0.79375 2.032v2.9845q0 0.48683-0.0212 0.81491-0.0106 0.3175-0.0953 0.51858-0.0847 0.1905-0.254 0.27517-0.16934 0.0847-0.48684 0.0847l-0.10583 0.0317zm2.1802-5.4822q0-0.52916 0.15875-0.87841 0.16933-0.35983 0.43392-0.5715 0.26458-0.21166 0.59266-0.29633 0.32808-0.0953 0.65617-0.0847 0.32808-0.0106 0.65616 0.0741 0.33867 0.0847 0.60325 0.29633 0.26458 0.21166 0.42333 0.5715 0.16933 0.35983 0.16933 0.88899v1.4711h-3.6936z"/>
<path d="m242.14 376.8q0.33867 0.0423 0.70908 0.16933 0.37042 0.11642 0.67733 0.33867 0.30692 0.21166 0.508 0.52916t0.20108 0.762v3.3549q0 0.48683-0.0212 0.81491-0.0106 0.3175-0.10584 0.51858-0.0847 0.1905-0.28574 0.27517-0.1905 0.0847-0.53975 0.0847v0.47625h3.1326v-0.47625h-0.10583q-0.3175 0-0.48683-0.0847t-0.254-0.27517q-0.0847-0.20108-0.10583-0.51858-0.0106-0.32808-0.0106-0.81491v-3.0268q0-0.58208-0.27516-1.0583-0.26458-0.48683-0.71967-0.84666-0.45508-0.35983-1.0477-0.5715-0.58208-0.22225-1.2277-0.28575 0.0529-0.34925 0.24342-0.48683 0.20108-0.14817 0.66675-0.14817v-0.47624h-3.1327v0.47624h0.10583q0.41275 0 0.58209 0.15875 0.17991 0.14817 0.23283 0.51859-0.635 0.0952-1.2171 0.32808-0.58208 0.22225-1.0266 0.5715-0.43392 0.34924-0.6985 0.81491-0.254 0.45508-0.254 1.0054v3.0268q0 0.48683-0.0212 0.81491-0.0106 0.3175-0.0953 0.51858-0.0847 0.1905-0.254 0.27517-0.16934 0.0847-0.48684 0.0847l-0.10583 0.0317v0.4445h3.1327v-0.47625q-0.34925 0-0.55033-0.0847-0.1905-0.0847-0.28575-0.27517-0.0847-0.20108-0.10584-0.51858-0.0106-0.32808-0.0106-0.81491v-3.3549q0-0.41275 0.17992-0.70908 0.1905-0.30692 0.48683-0.51858 0.29633-0.21167 0.64558-0.33867 0.35983-0.13758 0.70908-0.20108v4.1804q0 0.48683-0.0212 0.79375-0.0106 0.29633-0.10583 0.46567-0.0847 0.16933-0.28575 0.23283-0.1905 0.0529-0.53975 0.0529v0.47625h3.1327v-0.47625h-0.10583q-0.3175 0-0.48683-0.0529-0.16934-0.0635-0.254-0.23283-0.0847-0.16934-0.10584-0.46567-0.0106-0.30692-0.0106-0.79375z"/>
<path d="m249.29 381.67v-3.3126q0-0.48683 0.0106-0.80433 0.0212-0.32808 0.10583-0.51858 0.0952-0.20108 0.28575-0.28575 0.20108-0.0847 0.55033-0.0847v-0.47625h-3.1327v0.4445l0.10584 0.0317q0.3175 0 0.48683 0.0847t0.254 0.28575q0.0847 0.1905 0.0952 0.51858 0.0212 0.3175 0.0212 0.80433v2.9845q0 1.2912 0.79374 2.0426 0.80433 0.74083 2.3178 0.74083 0.70908 0 1.27-0.1905 0.56092-0.20108 0.9525-0.56091t0.59266-0.86783q0.20109-0.51858 0.20109-1.1642v-2.9845q0-0.48683 0.0106-0.80433 0.0212-0.32808 0.10583-0.51858 0.0847-0.20108 0.254-0.28575 0.16933-0.0847 0.48683-0.0847h0.10584v-0.47625h-3.1327v0.47625q0.34925 0 0.53975 0.0847 0.20108 0.0847 0.28575 0.28575 0.0952 0.1905 0.10583 0.51858 0.0212 0.3175 0.0212 0.80433v3.3126q0 0.52916-0.16934 0.88899-0.15875 0.35984-0.42333 0.5715-0.26458 0.21167-0.60325 0.29634-0.32808 0.0847-0.65616 0.0741-0.32808 0.0106-0.65617-0.0741-0.32808-0.0953-0.59266-0.30692-0.26458-0.21167-0.43392-0.56092-0.15875-0.35983-0.15875-0.88899z"/>
<path d="m259.02 384.13v-0.47625h-0.10584q-0.3175 0-0.48683-0.0847t-0.254-0.27517q-0.0847-0.20108-0.10583-0.51858-0.0106-0.32808-0.0106-0.81491v-1.2065q0.28575 0.27517 0.64559 0.4445 0.35983 0.16933 0.65616 0.24342 0.37042 0.14816 0.60325 0.26458 0.24341 0.11641 0.39158 0.26458 0.14817 0.13758 0.21167 0.35983 0.0741 0.21167 0.10583 0.56092-0.0212 0.254-0.0635 0.40216-0.0423 0.14817-0.14817 0.23284-0.10583 0.0741-0.28575 0.10583-0.16933 0.0212-0.44449 0.0212v0.47625h3.048v-0.47625h-0.0212q-0.28575 0-0.46567-0.0212-0.16933-0.0212-0.26458-0.0741-0.0847-0.0529-0.11641-0.14817-0.0212-0.10583-0.0106-0.26458 0-0.35984-0.0741-0.635-0.0635-0.27517-0.1905-0.47625-0.127-0.21167-0.3175-0.37042t-0.4445-0.29633q0.97367-0.21166 1.5134-0.86783 0.53975-0.65616 0.58209-1.6722-0.0529-1.2277-0.83608-1.9367-0.78317-0.70908-2.1802-0.70908-1.4711 0-2.2754 0.70908-0.79375 0.70908-0.83608 1.9367v3.1327q0 0.48683-0.0212 0.81491-0.0106 0.3175-0.10583 0.51858-0.0847 0.1905-0.28575 0.27517-0.1905 0.0847-0.53975 0.0847v0.47625zm-0.96309-5.4927q0-0.52916 0.15875-0.87841 0.16934-0.35984 0.43392-0.5715 0.26458-0.21167 0.59266-0.29633 0.32809-0.0953 0.65617-0.0847 0.32808-0.0106 0.65616 0.0741 0.33867 0.0847 0.60325 0.29634 0.26458 0.21166 0.42333 0.57149 0.16934 0.35984 0.16934 0.889v0.37042q0 0.52916-0.16934 0.88899-0.15875 0.35984-0.42333 0.5715-0.26458 0.21167-0.60325 0.29633-0.32808 0.0847-0.65616 0.0741-0.3175 0.0106-0.635-0.0635-0.3175-0.0847-0.58208-0.27517-0.254-0.20108-0.43392-0.51858-0.16933-0.32808-0.1905-0.81491z"/>
<path d="m264.22 384.13h3.1327v-0.47625q-0.34925 0-0.55033-0.0847-0.1905-0.0847-0.28575-0.27517-0.0847-0.20108-0.10583-0.51858-0.0106-0.32808-0.0106-0.81491v-1.3547h3.6936v1.3547q0 0.48683-0.0212 0.81491-0.0106 0.3175-0.10584 0.51858-0.0847 0.1905-0.28574 0.27517-0.1905 0.0847-0.53975 0.0847v0.47625h3.1326v-0.47625h-0.10583q-0.3175 0-0.48683-0.0847t-0.254-0.27517q-0.0847-0.20108-0.10583-0.51858-0.0106-0.32808-0.0106-0.81491v-2.9845q0-0.64558-0.20108-1.1536-0.20108-0.51859-0.59266-0.87842-0.39159-0.35983-0.9525-0.55033-0.56092-0.20108-1.27-0.20108-1.5134 0-2.3177 0.75141-0.79375 0.74083-0.79375 2.032v2.9845q0 0.48683-0.0212 0.81491-0.0106 0.3175-0.0953 0.51858-0.0847 0.1905-0.254 0.27517-0.16934 0.0847-0.48683 0.0847l-0.10584 0.0317zm2.1802-5.4822q0-0.52916 0.15875-0.87841 0.16933-0.35983 0.43392-0.5715 0.26458-0.21166 0.59266-0.29633 0.32808-0.0953 0.65617-0.0847 0.32808-0.0106 0.65616 0.0741 0.33867 0.0847 0.60325 0.29633 0.26458 0.21166 0.42333 0.5715 0.16933 0.35983 0.16933 0.88899v1.4711h-3.6936z"/>
<path d="m275.74 378.36q0-0.48683 0.0106-0.80433 0.0212-0.32808 0.10583-0.51858 0.0953-0.20108 0.28575-0.28575 0.20108-0.0847 0.55033-0.0847v-0.47625h-3.1327v0.47625h0.10584q0.31749 0 0.48683 0.0847 0.16933 0.0847 0.254 0.28575 0.0847 0.1905 0.0953 0.51858 0.0212 0.3175 0.0212 0.80433v3.5983q0 0.48683-0.0212 0.81491-0.0106 0.3175-0.10584 0.51858-0.0847 0.1905-0.28575 0.27517-0.1905 0.0847-0.53974 0.0847v0.47625h3.1326v-0.47625h-0.10583q-0.3175 0-0.48683-0.0847-0.16934-0.0847-0.254-0.27517-0.0847-0.20108-0.10583-0.51858-0.0106-0.32808-0.0106-0.81491z"/>
</g>
<g transform="matrix(.13302 0 0 .13302 266.59 359.69)">
<g transform="translate(-173.41 -.54645)">
<g stroke="#000" stroke-width=".50921px">
<path d="m92.04 166.04c-0.32834 2.5876-2.1953 4.8513-1.7336 7.496-2.7878 4.6418-1.8878 6.1396-3.5011 9.0918-0.38499 0.7745-1.6666 1.8141-1.298 2.323 0.35168 0.48555 1.6449 0.7872 2.674 1.3308 0.8339 0.44047 2.6779 1.7564 3.2622 1.9171 2.4522 0.84386 2.9664-0.38114 1.4029-1.8186-1.1293-0.9837-3.7103-2.3847-3.0093-3.5008 2.4355-3.878 3.3747-6.9714 3.9816-7.377 1.0409-1.0702 0.67548-1.613 0.74642-2.1744 1.1296-1.6123 1.7165-3.2329 1.7647-5.0728" fill="#fff"/>
<path d="m94.114 139.41c0.71576 0.0135 0.6976-1.0756 0.44675-1.3797-1.2723-1.8335-0.36673-2.6612 0.40841-2.5579 0.42335 0.0587 0.54498 0.92366 1.0533 0.77381 0.69656-0.20537 0.47629-1.5086 0-1.999-2.4555-2.5282-3.147-2.8042-3.0827-2.9537 1.0821-2.5165 5.8771-1.0014 5.8771-1.0014-0.16956-2.7239-0.55522-2.2586-1.5047-2.5579-2.224-0.2988-2.8425 0.39712-3.9766 0.9243-0.63878-0.20957-0.74078 0.0702-0.92387 0.2944-2.4326 0.69349-2.0646 1.8387-0.97275 3.1007-1.9452 4.1925 0.08083 6.3274 1.6197 7.0584 0.41723 0.19821 0.79866 0.29323 1.0554 0.29806z" fill="#fff"/>
<path d="m94.249 130.16c-0.51505-0.37873-0.74263-1.0511-0.918-1.628-0.76927 8.1e-4 -0.80422 0.12644-0.92387 0.2944 0.15762 0.77418 0.424 1.558 0.8961 1.9892z"/>
</g>
<g fill="#fff" stroke-width=".50921px">
<g stroke="#000">
<path d="m94.114 139.41c-0.31574-0.0464-0.7658-0.17899-1.1892-0.36113 0.04946 0.52951-0.10874 1.2162 0.09911 1.7758 1.1764 0.59544 2.3202 1.4522 3.4392 2.6493 0.16359-1.1286-0.1888-2.4853 0.28126-3.0737 0.45454-0.56896 1.3184 0.27044 2.1047 0.69315 0.59584 0.32034 1.025-0.0585 1.2682-0.44065 0.22724-1.1552 0.76521-2.3521 1.6229-3.364 0.21996-0.34392 0.093-0.68784-0.0216-1.0318-0.45001-0.67394-0.39864-0.95397-0.47289-1.3327-0.19246-2.3513-1.0649-3.8232-2.4289-4.6322-1.8182-0.60457-3.2473-0.64468-4.4997-0.25807-0.25204 0.12298-0.63536 0.38692-1.0812 0.77601-0.477 0.47786-0.37806 0.55329-0.04292 0.85979 1.0354 0.82389 2.0781 1.7887 3.0123 2.8353 0.26559 0.52722 0.31095 0.92426 0.14858 1.4287-0.37581 0.56912-0.69646 0.23998-0.79334 0.065-0.07583-0.18437-0.21164-0.42683-0.45141-0.51588-0.63416-0.2355-1.2414 0.17649-1.2037 0.87056 0.04677 0.86259 0.35168 1.2688 0.6556 1.6766 0.29165 0.5923 0.15339 1.2209-0.44679 1.3797z"/>
<path d="m118.26 142.01 2.8186-2.6086c0.2857-0.24625 0.65264-0.30431 0.91467-0.10624l1.5726 1.7021c0.34581 0.42387 0.0237 0.97639-0.16956 1.3601-0.33905 0.75287-1.0848 1.4222-2.1032 2.0098-0.66026-0.61331-1.88-1.4739-3.0331-2.3571z"/>
<path d="m117.49 137.04c-0.62206 0.78308-0.23139 0.8976-0.0679 1.132l1.7001 1.7925c0.34323 0.32495 0.69573 0.58365 1.1468 0.13838l0.87608-0.8409c0.39423-0.40304 0.35194-0.67891 0.0939-0.89188l-2.1707-2.1598c-0.51268-0.56384-0.87208 0.0722-1.5782 0.82974z"/>
<path d="m123.43 142.48 1.1448 1.2583c0.38295 0.49671 0.22366 0.89488-0.0379 1.1856l-0.85101 0.8224c-0.27783 0.3246-0.73251 0.21856-0.98147-0.0254l-1.4084-1.3534c0.81184-0.53136 1.6486-1.0129 2.134-1.8875z"/>
<path d="m115.94 138.72 2.5928 2.9624 1.2414-1.108c-0.92398-0.96592-1.9439-1.8399-2.77-2.9336-0.42325 0.39886-0.66775 0.67743-1.0642 1.0793z"/>
<path d="m119.09 135.35-4.3465 4.1557c-0.26838 0.25895-0.59892 0.18706-0.7749-0.0343l-0.57832-0.71498c-0.12471-0.2132-0.14626-0.45246 0.18746-0.78992l4.2483-3.864c0.26209-0.24538 0.53553-0.35581 0.84629-0.0225l0.50506 0.59846c0.16167 0.15916 0.25455 0.34178-0.0866 0.67154z"/>
</g>
<path d="m114.12 144.72c1.0968 2.2498 2.2012 4.2056 2.851 6.7774l-1.2886 0.32322c-0.74306-2.4174-1.4477-4.3369-2.5918-6.5052z" stroke="#fff"/>
<path d="m118.26 142.01c-0.73965 0.67337-1.5719 1.2438-2.4825 1.7274l2.0641 3.4243c1.1403-0.93401 2.0073-1.9345 3.4515-2.7946z" stroke="#000"/>
<path d="m115.94 138.72c-0.29684 0.59142-1.3504 1.1315-1.6473 1.5336l0.92146 3.4818c1.9921-1.041 1.9342-1.1957 3.3186-2.053z" stroke="#000"/>
</g>
<path d="m85.504 183.28c-0.32329 0.46095-0.54985 0.92439-0.64735 1.5468 1.1116 1.5679 4.8863 2.735 6.6731 4.1418 1.3556 1.0673 3.0378 1.2056 2.9834 0.71752-0.42377-3.8003-2.9651-4.3651-3.7596-5.1213-1.3773-1.003-0.0154-2.6472 0.77612-3.5141-2.3477-1.232-3.8597-2.1088-3.8597-2.1088-0.40214 1.546-1.1927 3.0702-2.1661 4.338z" stroke="#000" stroke-width=".49026px"/>
<g stroke-width=".50921px">
<path d="m113.59 145.02-1.5334-2.4088c-0.25604 0.20805-0.50391 0.41197-0.8175 0.64908l1.4141 2.2886z" fill="#fff" stroke="#fff"/>
<path d="m91.554 169.55c2.6242 2.5706 4.2327 5.0488 9.309 6.435-0.80062 6.7754 1.0128 8.2758 1.3547 12.283 0.37514 1.2657-0.97666 2.9315-0.12163 3.283 1.9466 0.80037 5.0573-0.29706 7.6712 0.22569 2.8266 0.0173 1.6606-2.1164-0.0968-2.3862-2.0817-0.91733-4.8606-0.27522-4.7063-1.0445 1.0337-5.1529 0.2053-8.2111 0.17167-12.481 0.35846-1.7731-0.85922-2.9366-2.1672-3.4194-1.0622-1.0574-1.8704-1.9336-2.6015-2.7177" fill="#fff" stroke="#000"/>
<path d="m101.59 190.09c-0.0314 0.54556-0.0408 1.1102 0.18187 1.7179 1.8055 0.83391 5.8523-0.0581 8.1962 0.28487 1.7783 0.26024 3.3903-0.47927 3.0957-0.88859-2.2939-3.1866-4.9077-2.3882-6.0153-2.6578-1.766-0.19149-1.3407-2.3637-1.0501-3.5462-2.7707 0.10142-4.5969 0.0922-4.5969 0.0922 0.52879 1.1598 0.35628 4.0008 0.18842 4.9977z" stroke="#000"/>
</g>
<g fill="#fff" stroke="#000" stroke-width=".50921px">
<path d="m93.024 140.82c-0.38861 0.14819-0.77693 0.29634-0.88578 0.50044-0.10258 0.69874-0.0995 1.4327-0.03041 2.1887-0.97189 0.32746-1.1652 0.81064-1.2919 1.3071-0.29369 0.31773-0.57852 0.55564-0.92716 1.3679-0.12914 2.7701-0.2331 5.5528-0.47117 8.2684 0.35583 1.3379 1.0576 2.0417 1.7479 2.7663 0.09546 0.62931 0.02425 1.2643-0.09122 2.3255-2.5478 4.3073-2.1312 7.3416-2.316 10.537 3.6123-0.30376 9.9388-0.12491 14.093 0.0568-1.5747-3.3754-1.4714-8.6521-4.9477-10.617l0.06447-2.2355c0.55637-0.0747 1.5901-0.11317 1.4818-2.2607 0.06216-1.36 1.3909-6.0222-2.9864-11.555-1.2662-1.3452-2.3718-2.071-3.4392-2.6493z"/>
<path d="m94.866 150.06c2.65 0.95534 10.893 3.8037 14.208 3.137 3.6535-0.9906 7.7084-1.2269 10.094-2.5795 0.0747-2.1322-2.1484-4.3905-3.391-6.8821-2.5867 1.1175-5.4985 3.5998-7.439 4.5757-3.4828 1.7706-8.1787-2.3872-12.422-3.1496-6.691 0.79779-2.3731 4.4934-1.0502 4.8986z"/>
<path d="m114.29 140.25c-2.1776 2.5367-4.5838 4.216-6.549 5.3749-6.0775 1.9133-8.1655-0.92531-11.28-2.1573 0.31973 0.51034 0.66013 1.3893 1.0997 2.1609 0.87766 0.24456 1.9797 0.77339 2.9114 1.1866 1.9721 0.76975 5.9693 3.0785 8.447 1.1678 1.8588-1.0067 3.0734-2.2228 6.3522-4.0211-0.33572-1.3248-0.66374-2.6665-0.98168-3.7118z"/>
</g>
<path d="m97.903 159.52c-2.2764-0.12221-4.5527-0.0824-6.8291 0.0237 0.1097-0.77512 0.20643-1.5503 0.09122-2.3254 2.2513 0.15108 4.5224 0.14376 6.8023 0.0662-0.02155 0.76933-0.04292 1.5232-0.06447 2.2355z" stroke="#000" stroke-width=".50921px"/>
<path d="m114.88 136.49c-10.311-7.9465-20.695-12.625-29.48-17.225 1.6558-1.5829 3.5499-0.58012 6.9716 1.1777 5.0034 2.7259 16.361 8.1399 24.122 14.695z" fill="#fff" stroke="#000" stroke-width=".50349px"/>
<path d="m88.928 120.61c2.4162 1.237 19.157 9.6554 25.891 15.478l1.1053-0.95814c-0.60266-0.51303-1.2364-1.0188-1.8856-1.486-0.23805 0.27307-0.21448 0.42003-0.20542 0.81118-5.5215-4.1722-14.857-9.5367-23.056-13.733-0.79925-0.45451-1.5877-0.47252-1.9317-0.0424z" stroke="#fff" stroke-width=".22511"/>
</g>
</g>
<g transform="matrix(1.1357 0 0 1.1357 140.17 267.1)">
<path d="m68.828 99.444c0.66121-0.6871 0.96622-0.58197 1.3882-0.70259-0.65188 0.73639-0.45462 0.86058-0.55209 1.1973-0.1125-0.09135-0.2505-0.26501-0.45133-0.33949-0.13091-0.05032-0.28297-0.09784-0.38473-0.15519z" stroke="#000" stroke-width=".041485px"/>
<g transform="matrix(.2453 -.059498 .059498 .2453 40.063 77.437)">
<path d="m94.18 120.94c6.02 5.4861 11.913 3.6515 12.562 3.4294 3.452-1.4197 2.8436-4.1092 1.0141-5.4335-9.6749-6.8077-8.8748-8.9613-8.4691-10.882 2.4647-7.3633 8.6676-5.266 10.068-5.725-1.1748-2.1211-4.213-2.4116-4.213-2.4116 0.0914-0.04169 5.1529-1.6832 8.1085 2.3008 0.0694-0.77227 0.20315-1.5445 0.32995-2.3168 0.5616 0.83928 0.99794 1.6786 1.4124 2.5179 0.2382 0.94573 0.48394 1.6428 0.6087 2.7587 1.5285 1.0625 2.7442 1.96 4.3106 2.7634 0.55103 0.28263-0.85874 3.6946-0.9843 3.739-2.1363 2.5e-4 -9.2167-2.1459-9.2322-2.393-0.11437-1.8229-0.39516-2.7986-0.83714-2.9537-3.8339-0.36296-3.859 2.2882-3.8382 3.1906 0.28413 3.5814 6.9724 4.7809 9.6034 7.0278 5.7478 5.5559 0.1157 10.009-0.44751 10.445-6.1697 4.7431-10.364 3.485-11.227 3.3897-6.7152-1.2686-9.2006-4.6748-11.53-8.3931 0.69874-0.31621 2.3862-1.3741 2.7598-1.0538" stroke="#000" stroke-width=".26458px"/>
<path d="m110.45 103.62c0.9546 0.11538 1.5998 0.56354 2.2143 1.0447 1.0371 0.844 1.39 1.3398 1.9008 1.916-2.7954 0.53937-4.5466-0.0407-4.1152-2.9607z" fill="#fff" stroke="#000" stroke-width=".26458px"/>
</g>
<path d="m69.85 101.92c0.13986-0.0865 0.40902-0.25034 0.50199-0.33245-0.67322-0.47195-1.1125-1.4414-1.0525-2.032-0.3399 0.23202-0.24496 1.6778 0.55051 2.3645z" stroke="#000" stroke-width=".212px"/>
</g>
<g transform="translate(118.91 244.4)" stroke="#fff" stroke-width=".028426">
<path d="m75.73 129.77a0.36101 0.36101 0 0 1-0.15421-0.12342l-0.02712-0.0379a0.36297 0.36297 0 0 0-0.29534-0.15199h-0.16771a0.36297 0.36297 0 0 0-0.29534 0.15199l-0.02712 0.0379a0.36101 0.36101 0 0 1-0.15421 0.12343 5.1248 5.1248 0 0 0-0.54396 0.27004s-1.177 0.8374-1.5179 1.589c0 0 0.57704 0.93592 2.6223 0.93592s2.6421-0.94891 2.6421-0.94891c-0.32323-0.71255-1.4554-1.5284-1.4554-1.5284a5.182 5.182 0 0 0-0.62605-0.3176z"/>
<path d="m76.356 130.09c0.0036 0.24748-0.05256 0.92216-0.74504 1.1623a1.2292 1.2292 0 0 1-0.81912-6e-3c-0.7275-0.26348-0.73674-1.0132-0.72679-1.2042-0.51911 0.29594-1.2203 0.81013-1.5611 1.5617 0 0 0.62022 0.96307 2.6656 0.96307 2.0454 0 2.6656-0.96307 2.6656-0.96307-0.32334-0.71263-0.97043-1.2118-1.4792-1.5139z"/>
<path d="m78.086 130.56c-0.12567 0.26675-0.44998 0.8613-0.99746 1.256 0 0-0.32042 0.2848-0.5539 0.35248l0.86932 1.1806c0.09813 0.13423 0.24603 0.18636 0.38534 0.0956a0.68643 0.68643 0 0 1 0.08781-0.0396c0.39037-0.26865 1.0159-0.81298 1.2492-1.6586a0.47005 0.47005 0 0 0-0.11805-0.45692l-0.75345-0.75848a0.10452 0.10452 0 0 0-0.16882 0.0288z"/>
<circle cx="77.812" cy="131.76" r=".26069"/>
<path d="m72.254 130.56c0.12661 0.26868 0.45481 0.87006 1.0095 1.2646 0 0 0.32371 0.26848 0.55211 0.33454l-0.8777 1.2014c-0.09812 0.13422-0.26263 0.16828-0.40191 0.0775l-0.0718-0.0321c-0.39031-0.26834-1.0169-0.81298-1.2505-1.6594a0.47005 0.47005 0 0 1 0.11805-0.45692l0.75345-0.75848a0.10452 0.10452 0 0 1 0.16882 0.0288z"/>
<circle cx="72.528" cy="131.76" r=".26069"/>
<path d="m72.536 133.46a0.31234 0.31234 0 0 0 0.42315-0.0765l0.91596-1.2528a2.0266 2.0266 0 0 1-0.61189-0.30034c-0.0033 3e-3 -0.0066 7e-3 -0.0096 0.0103-0.0703 0.0833-0.17954 0.25779-0.18272 0.53958a0.17476 0.17476 0 0 0 0.03667 0.10875 0.17399 0.17399 0 0 1-0.0015 0.21507l-0.51658 0.64737a0.15469 0.15469 0 0 1-0.12564 0.0603c0.02507 0.0173 0.04923 0.0334 0.0722 0.0484z"/>
<path d="m77.771 133.35-0.51655-0.6474a0.17391 0.17391 0 0 1-0.0015-0.21507 0.17473 0.17473 0 0 0 0.03664-0.10875c-0.0032-0.28179-0.1124-0.45624-0.18272-0.53958a0.16623 0.16623 0 0 0-0.01876-0.0187 2.0318 2.0318 0 0 1-0.62398 0.30876l0.91596 1.2529a0.31234 0.31234 0 0 0 0.42315 0.0766q0.03505-0.0227 0.07345-0.0492a0.15495 0.15495 45 0 1-0.10569-0.0595z"/>
<path d="m76.776 131.78a0.63105 0.63105 0 0 0-0.14437-0.0794 0.42451 0.42451 0 0 0-0.28116-9e-3l-1.1808 0.37028-1.1808-0.37028a0.42451 0.42451 0 0 0-0.28116 9e-3 0.63361 0.63361 0 0 0-0.10594 0.0533c0.10608 0.15134 0.55092 0.68157 1.5785 0.68157 0.8812 0 1.3886-0.42852 1.5957-0.65553z"/>
<path d="m77.25 128.1a1.191 1.191 0 0 0-0.48324 0.35854 0.43287 0.43287 0 0 1-0.39728 0.15193 0.70124 0.70124 0 0 0-0.1842-4.8e-4 0.1998 0.1998 0 0 0-0.10694 0.34566c0.78308 0.71411 0.38091 1.7919 0.38091 1.7919-0.32673 0.9057-1.2897 0.83114-1.2897 0.83114s-0.96295 0.0747-1.2898-0.831c0 0-0.40217-1.0778 0.3809-1.7919a0.1998 0.1998 0 0 0-0.10694-0.34566 0.70124 0.70124 0 0 0-0.1842 4.9e-4 0.43287 0.43287 0 0 1-0.39728-0.15194 1.191 1.191 0 0 0-0.48324-0.35853 0.14119 0.14119 0 0 0-0.17601 0.20074l0.0063 0.0111a1.5894 1.5894 0 0 1 0.19136 0.92384c-0.06063 0.66988-0.10094 2.9106 2.0589 3.0067 2.1598-0.0961 2.1195-2.3368 2.0588-3.0068a1.5894 1.5894 0 0 1 0.19136-0.92384c0.0021-4e-3 0.0042-7e-3 0.0063-0.0111a0.14119 0.14119 0 0 0-0.17604-0.20075z"/>
<path d="m75.5 131.98a0.64456 0.64456 0 0 0 0.25424-0.50188 1.4716 1.4716 0 0 1-0.58418 0.0986 1.4716 1.4716 0 0 1-0.58418-0.0984 0.64456 0.64456 0 0 0 0.25424 0.50189 0.61613 0.61613 0 0 0 0.32994 0.11728 0.61613 0.61613 0 0 0 0.32994-0.11743z"/>
<path d="m78.726 132a0.1137 0.1137 0 1 1 0-0.22741 0.11333 0.11333 45 0 1 0.08044 0.0333 0.11385 0.11385 0 0 1-0.08044 0.19415z"/>
<path d="m78.346 132.59a0.11504 0.11504 0 0 1-0.08045-0.0333 0.11635 0.11635 0 0 1-0.01393-0.0173 0.11464 0.11464 0 0 1-0.01706-0.0409 0.10921 0.10921 0 0 1 0-0.0443 0.11464 0.11464 0 0 1 0.01706-0.0409 0.10253 0.10253 0 0 1 0.03127-0.0313 0.11464 0.11464 0 0 1 0.04093-0.0171 0.10597 0.10597 0 0 1 0.04435 0 0.11464 0.11464 0 0 1 0.04093 0.0171 0.11635 0.11635 0 0 1 0.01734 0.0139 0.13983 0.13983 0 0 1 0.01421 0.0173 0.1286 0.1286 0 0 1 0.01023 0.0196 0.10893 0.10893 0 0 1 0.0065 0.0213 0.10921 0.10921 0 0 1 0 0.0443 0.10893 0.10893 0 0 1-0.0065 0.0213 0.1286 0.1286 0 0 1-0.01023 0.0196 0.1137 0.1137 0 0 1-0.03155 0.0316 0.1286 0.1286 0 0 1-0.01961 0.0102 0.10893 0.10893 0 0 1-0.02132 7e-3 0.11737 0.11737 0 0 1-0.02217 2e-3z"/>
<path d="m77.864 133.08a0.11797 0.11797 0 0 1-0.02246-2e-3 0.11245 0.11245 0 0 1-0.02103-7e-3 0.10233 0.10233 0 0 1-0.0199-0.0105 0.11407 0.11407 0 0 1-0.01705-0.0139 0.10248 0.10248 0 0 1-0.01421-0.0173 0.13016 0.13016 0 0 1-0.01052-0.0196 0.10893 0.10893 0 0 1-0.0065-0.0213 0.10924 0.10924 0 0 1 0-0.0443 0.11464 0.11464 0 0 1 0.01706-0.0409 0.092412 0.092412 0 0 1 0.01421-0.0173 0.13701 0.13701 0 0 1 0.01706-0.0142 0.11939 0.11939 0 0 1 0.0199-0.0102 0.11245 0.11245 0 0 1 0.02103-7e-3 0.10734 0.10734 0 0 1 0.04463 0 0.12223 0.12223 0 0 1 0.02132 7e-3 0.1286 0.1286 0 0 1 0.01961 0.0102 0.13701 0.13701 0 0 1 0.01705 0.0142 0.105 0.105 0 0 1 0.01421 0.0173 0.11464 0.11464 0 0 1 0.01706 0.0409 0.10924 0.10924 0 0 1 0 0.0443 0.11464 0.11464 0 0 1-0.01706 0.0409 0.11828 0.11828 0 0 1-0.01421 0.0173 0.11407 0.11407 0 0 1-0.01706 0.0139 0.10881 0.10881 0 0 1-0.01961 0.0105 0.12223 0.12223 0 0 1-0.02132 7e-3 0.11737 0.11737 0 0 1-0.02217 2e-3z"/>
<path d="m71.613 132a0.11404 0.11404 0 1 1 0.08045-0.0335 0.1137 0.1137 0 0 1-0.08045 0.0335z"/>
<path d="m71.994 132.59a0.11737 0.11737 0 0 1-0.02217-2e-3 0.10893 0.10893 0 0 1-0.02132-7e-3 0.1286 0.1286 0 0 1-0.01961-0.0102 0.1137 0.1137 0 0 1-0.03155-0.0316 0.1286 0.1286 0 0 1-0.01023-0.0196 0.10893 0.10893 0 0 1-0.0065-0.0213 0.10924 0.10924 0 0 1 0-0.0443 0.10893 0.10893 0 0 1 0.0065-0.0213 0.1286 0.1286 0 0 1 0.01023-0.0196 0.13983 0.13983 0 0 1 0.01421-0.0173 0.11635 0.11635 0 0 1 0.01734-0.0139 0.11464 0.11464 0 0 1 0.04093-0.0171 0.106 0.106 0 0 1 0.04434 0 0.11464 0.11464 0 0 1 0.04093 0.0171 0.11635 0.11635 0 0 1 0.01734 0.0139 0.13983 0.13983 0 0 1 0.01421 0.0173 0.1286 0.1286 0 0 1 0.01023 0.0196 0.10893 0.10893 0 0 1 0.0065 0.0213 0.10921 0.10921 0 0 1 0 0.0443 0.10893 0.10893 0 0 1-0.0065 0.0213 0.1286 0.1286 0 0 1-0.01023 0.0196 0.1137 0.1137 0 0 1-0.03155 0.0316 0.1286 0.1286 0 0 1-0.01961 0.0102 0.10893 0.10893 0 0 1-0.02132 7e-3 0.11737 0.11737 0 0 1-0.02217 2e-3z"/>
<path d="m72.476 133.08a0.11356 0.11356 0 0 1-0.11342-0.1137 0.11694 0.11694 0 0 1 2e-3 -0.0222 0.11464 0.11464 0 0 1 0.01705-0.0409 0.092412 0.092412 0 0 1 0.01421-0.0173 0.1143 0.1143 0 0 1 0.10262-0.031 0.11245 0.11245 0 0 1 0.02104 7e-3 0.10165 0.10165 0 0 1 0.03695 0.0245 0.092412 0.092412 0 0 1 0.01421 0.0173 0.11464 0.11464 0 0 1 0.01705 0.0409 0.10921 0.10921 0 0 1 0 0.0443 0.11464 0.11464 0 0 1-0.01705 0.0409 0.10248 0.10248 0 0 1-0.01421 0.0173 0.11453 0.11453 0 0 1-0.08044 0.0332z"/>
<path d="m77.028 132.9 0.13528 0.18502a3.6965 3.6965 0 0 0 1.6814-1.9556l-0.17996-0.18116a3.5143 3.5143 0 0 1-1.6367 1.9517z"/>
<path d="m71.675 130.95-0.17996 0.18116a3.6965 3.6965 0 0 0 1.6814 1.9557l0.13528-0.18502a3.5143 3.5143 0 0 1-1.6367-1.9518z"/>
<path d="m75.564 131.16c-0.14054-0.21572-0.39395-0.21652-0.39395-0.21652s-0.25342 8e-4 -0.39392 0.21652a0.48483 0.48483 0 0 0 0.12834 0.65829 0.51471 0.51471 0 0 0 0.26558 0.0892 0.51491 0.51491 0 0 0 0.26561-0.0892 0.48489 0.48489 0 0 0 0.12834-0.65829z"/>
</g>
</g>
<style type="text/css">.st0{fill:#94A6B0;}
	.st1{fill:#4A5A63;}</style>
<style type="text/css">.st0{fill:#94A6B0;}
	.st1{fill:#4A5A63;}</style>
</svg>
