<?xml version="1.0" encoding="UTF-8"?>
<!-- Created with Inkscape (http://www.inkscape.org/) -->
<svg width="80.498mm" height="22.243mm" version="1.1" viewBox="0 0 80.498 22.243" xmlns="http://www.w3.org/2000/svg">
<defs>
<marker id="Arrow1Lstart-1" overflow="visible" orient="auto">
<path transform="matrix(.8 0 0 .8 10 0)" d="m0 0 5-5-17.5 5 17.5 5z" fill="context-stroke" fill-rule="evenodd" stroke="context-stroke" stroke-width="1pt"/>
</marker>
</defs>
<g transform="translate(-229.36 -463.15)">
<g transform="matrix(.41679 0 0 .41679 88.353 226.29)" fill="#8e7440"></g>
<g transform="matrix(.41679 0 0 .41679 88.353 226.29)" fill="#dace68"></g>
<g transform="matrix(.41679 0 0 .41679 88.353 226.29)" fill="#87583c"></g>
<g transform="matrix(.41679 0 0 .41679 179.93 385.3)" fill="#8e7440"></g>
<g transform="matrix(.41679 0 0 .41679 179.93 385.3)" fill="#dace68"></g>
<g transform="matrix(.41679 0 0 .41679 179.93 385.3)" fill="#87583c"></g>
<g stroke-width=".070004" aria-label="  оследний ">
<path d="m249.65 468.32q0-0.64558-0.20108-1.1536-0.20108-0.51858-0.59266-0.87841-0.39159-0.35983-0.9525-0.55033-0.56092-0.20108-1.27-0.20108-1.5134 0-2.3177 0.75141-0.79375 0.74083-0.79375 2.032v2.3812q0 1.2912 0.79375 2.0426 0.80433 0.74083 2.3177 0.74083 0.70908 0 1.27-0.1905 0.56091-0.20108 0.9525-0.56091 0.39158-0.35983 0.59266-0.86783 0.20108-0.51858 0.20108-1.1642zm-4.9106 2.7093v-3.0374q0-0.52916 0.15875-0.87841 0.16933-0.35984 0.43392-0.5715 0.26458-0.21167 0.59266-0.29633 0.32808-0.0953 0.65617-0.0847 0.32808-0.0106 0.65616 0.0741 0.33867 0.0847 0.60325 0.29634 0.26458 0.21166 0.42333 0.57149 0.16933 0.35984 0.16933 0.889v3.0374q0 0.52916-0.16933 0.88899-0.15875 0.35984-0.42333 0.5715-0.26458 0.21167-0.60325 0.29634-0.32808 0.0847-0.65616 0.0741-0.32809 0.0106-0.65617-0.0741-0.32808-0.0953-0.59266-0.30692-0.26459-0.21167-0.43392-0.56092-0.15875-0.35983-0.15875-0.88899z"/>
<path d="m252.49 469.54q0-1.5875 0.64558-2.4447 0.64558-0.86783 1.7462-0.86783 0.80434 0 1.3652 0.45508 0.5715 0.45508 0.86783 1.5028h0.3175q-0.0953-0.43392-0.127-0.83608-0.0212-0.41275-0.0318-0.71967-0.0106-0.31749-0.0212-0.49741 0-0.1905-0.0635-0.1905-0.254 0-0.56091-0.0635-0.30692-0.0635-0.635-0.13758-0.3175-0.0847-0.64558-0.14817-0.32808-0.0635-0.62441-0.0635-0.79375 0-1.4605 0.29633-0.65616 0.29634-1.143 0.83608-0.48683 0.52917-0.76199 1.2806-0.26459 0.74084-0.26459 1.6404 0 0.69849 0.16934 1.3335 0.16933 0.62442 0.50799 1.143 0.33867 0.508 0.83609 0.87841 0.49741 0.35983 1.1536 0.508 0.46566 0.11642 0.94191 0.11642 0.29633 0 0.62441-0.0635 0.32809-0.0635 0.64558-0.13759 0.32809-0.0847 0.635-0.14816 0.30692-0.0635 0.56092-0.0635 0.0635 0 0.0635-0.17992 0.0106-0.1905 0.0212-0.49741 0.0106-0.3175 0.0317-0.71967 0.0318-0.41275 0.127-0.84666h-0.3175q-0.29633 1.0477-0.86783 1.5028-0.56091 0.45508-1.3652 0.45508-0.0529 0.0317-0.21167 0.0106-0.14816-0.0212-0.32808-0.0529-0.16933-0.0423-0.3175-0.0953-0.14817-0.0529-0.1905-0.10584-0.62441-0.35983-0.97366-1.1642t-0.34925-1.9156z"/>
<path d="m259.68 465.55v0.47625q0.34924 0 0.53974 0.0847 0.20109 0.0847 0.28575 0.28575 0.0952 0.1905 0.10584 0.51858 0.0212 0.3175 0.0212 0.80433v3.3337q0 0.51859-0.15875 0.86783-0.15875 0.34925-0.41275 0.5715-0.254 0.21167-0.56091 0.30692-0.30692 0.0847-0.59267 0.0847-0.11641 0-0.22224-0.0106-0.10584-0.0212-0.21167-0.0423v0.65616q0.0847 0.0106 0.17992 0.0106 0.0952 0.0106 0.20108 0.0106 0.70908 0 1.2594-0.1905 0.56092-0.20108 0.94191-0.56091 0.39159-0.35984 0.59267-0.86784 0.20108-0.51858 0.20108-1.1642v-3.0057q0-0.44449 0.0106-0.75141 0.0106-0.3175 0.0741-0.508 0.0635-0.20108 0.20108-0.29633 0.13758-0.0953 0.381-0.10583h1.8944v5.2599q0 0.48683-0.0212 0.81491-0.0106 0.3175-0.0953 0.51858-0.0847 0.1905-0.254 0.27517-0.16933 0.0847-0.48683 0.0847h-0.10583v0.47625h3.1327v-0.47625q-0.34925 0-0.55033-0.0847-0.1905-0.0847-0.28575-0.27517-0.0847-0.20108-0.10584-0.51858-0.0106-0.32808-0.0106-0.81491v-5.2599h0.9525v-0.508z"/>
<path d="m269.92 469.46h2.8892v-0.48683h-2.8892l-0.0106-2.6458h3.1856q0.26458 0 0.40217 0.0212 0.13758 0.0212 0.1905 0.11642 0.0635 0.0847 0.0635 0.27516 0.0106 0.1905 0.0317 0.53975h0.47624v-1.7462l-6.5087 0.0106v0.47625q0.34924 0 0.53974 0.0847 0.20109 0.0847 0.28575 0.28575 0.0952 0.1905 0.10584 0.51858 0.0212 0.3175 0.0212 0.80433v4.9742h-0.95249v0.79374h6.5193v-1.7462h-0.47625q-0.0212 0.34925-0.0317 0.53975 0 0.1905-0.0635 0.28575-0.0529 0.0847-0.1905 0.10583-0.13758 0.0212-0.40216 0.0212h-3.1856z"/>
<path d="m275.95 465.57v0.47625q0.34924 0 0.53974 0.0847 0.20109 0.0847 0.28575 0.28575 0.0952 0.1905 0.10584 0.51858 0.0212 0.3175 0.0212 0.80433v3.302q0 0.67733-0.27516 1.0795-0.26459 0.39158-0.635 0.5715h-0.60325v1.7568h0.47625v-0.32808q0.0106-0.26458 0.0635-0.40216 0.0529-0.127 0.22225-0.17992 0.17991-0.0529 0.508-0.0529 0.33866 0 0.89958 0h4.3815q0.26459 0 0.40217 0.0212t0.1905 0.10583q0.0635 0.0952 0.0635 0.28575 0.0106 0.1905 0.0317 0.53975h0.47625v-1.7462h-1.2171l-0.0106-6.6146h0.97367v-0.508zm2.1696 5.1435v-2.9739q0-0.4445 0.0106-0.75141 0.0106-0.3175 0.0741-0.508 0.0635-0.20108 0.20108-0.29633 0.13758-0.0952 0.381-0.10584h1.8944v6.6146h-3.2914q0.17992-0.0953 0.3175-0.29634 0.13759-0.21166 0.22225-0.47625 0.0953-0.27516 0.13759-0.58208 0.0529-0.3175 0.0529-0.62441z"/>
<path d="m284.36 473.03h0.10583q0.3175 0 0.48683-0.0847t0.254-0.27516q0.0847-0.20108 0.0953-0.51858 0.0212-0.32808 0.0212-0.81492v-5.7785h1.2171v3.4502h2.4447v-3.4502h1.2171v5.7785q0 0.48684 0.0106 0.81492 0.0212 0.3175 0.10583 0.51858 0.0952 0.1905 0.28575 0.27516 0.20109 0.0847 0.55033 0.0847v0.47625h-3.1326v-0.47625h0.10583q0.3175 0 0.48683-0.0847 0.16934-0.0847 0.254-0.27516 0.0847-0.20108 0.0953-0.51858 0.0212-0.32808 0.0212-0.81492v-1.8415h-2.4447v1.8415q0 0.48684 0.0106 0.81492 0.0212 0.3175 0.10583 0.51858 0.0953 0.1905 0.28575 0.27516 0.20108 0.0847 0.55033 0.0847v0.47625h-3.1326z"/>
<path d="m293.44 467.71q0-0.48683-0.0212-0.80433-0.0106-0.32808-0.10583-0.51858-0.0847-0.20108-0.28575-0.28575-0.1905-0.0847-0.53975-0.0847v-0.47624h3.1327v0.47624h-0.10584q-0.31749 0-0.48683 0.0847-0.16933 0.0847-0.254 0.28575-0.0847 0.1905-0.10583 0.51858-0.0106 0.3175-0.0106 0.80433v3.0903l3.6301-4.064q-0.0529-0.39158-0.254-0.55033-0.1905-0.15875-0.66675-0.15875v-0.47625h3.1327v0.47625h-0.10583q-0.40217 0-0.60325 0.14816-0.20109 0.14817-0.254 0.49742v4.6461q0 0.48683 0.0106 0.81491 0.0212 0.3175 0.10583 0.51858 0.0953 0.1905 0.28575 0.27517 0.20109 0.0847 0.55034 0.0847v0.47625h-3.1327v-0.47625h0.10583q0.3175 0 0.48683-0.0847 0.16934-0.0847 0.254-0.27517 0.0847-0.20108 0.0953-0.51858 0.0212-0.32808 0.0212-0.81491v-2.9422q-0.67733 0.70908-1.6087 1.7462-0.92075 1.0266-1.9791 2.3812 0.0847 0.27516 0.27517 0.39158 0.20108 0.10583 0.60324 0.10583v0.47625h-3.1326v-0.47625h0.10583q0.3175 0 0.48683-0.0847 0.16934-0.0847 0.254-0.27516 0.0847-0.20108 0.0953-0.51858 0.0212-0.32808 0.0212-0.81492z"/>
<path d="m302.8 467.71q0-0.48683-0.0212-0.80433-0.0106-0.32808-0.10583-0.51858-0.0847-0.20108-0.28575-0.28575-0.1905-0.0847-0.53975-0.0847v-0.47624h3.1327v0.47624h-0.10584q-0.31749 0-0.48683 0.0847-0.16933 0.0847-0.254 0.28575-0.0847 0.1905-0.10583 0.51858-0.0106 0.3175-0.0106 0.80433v3.0903l3.6301-4.064q-0.0529-0.39158-0.254-0.55033-0.1905-0.15875-0.66675-0.15875v-0.47625h3.1327v0.47625h-0.10583q-0.40217 0-0.60325 0.14816-0.20108 0.14817-0.254 0.49742v4.6461q0 0.48683 0.0106 0.81491 0.0212 0.3175 0.10584 0.51858 0.0952 0.1905 0.28574 0.27517 0.20109 0.0847 0.55034 0.0847v0.47625h-3.1327v-0.47625h0.10583q0.3175 0 0.48683-0.0847 0.16934-0.0847 0.254-0.27517 0.0847-0.20108 0.0953-0.51858 0.0212-0.32808 0.0212-0.81491v-2.9422q-0.67733 0.70908-1.6087 1.7462-0.92075 1.0266-1.9791 2.3812 0.0847 0.27516 0.27517 0.39158 0.20108 0.10583 0.60324 0.10583v0.47625h-3.1326v-0.47625h0.10583q0.3175 0 0.48683-0.0847 0.16934-0.0847 0.254-0.27516 0.0847-0.20108 0.0953-0.51858 0.0212-0.32808 0.0212-0.81492zm3.1221-3.7359q-0.17991 0-0.28575-0.0635-0.10583-0.0741-0.15875-0.1905-0.0529-0.11642-0.0847-0.254-0.0212-0.14817-0.0317-0.30692h-0.635q-0.0212 0.254 0.0423 0.49742 0.0635 0.24341 0.21167 0.43391 0.15875 0.1905 0.39158 0.30692t0.56091 0.10583q0.34925-0.0106 0.59267-0.127 0.24342-0.11641 0.39158-0.30691 0.14817-0.1905 0.21167-0.42334 0.0635-0.24341 0.0635-0.48683h-0.59267q-0.0212 0.14817-0.0529 0.29634-0.0317 0.13758-0.10584 0.25399-0.0741 0.11642-0.20108 0.1905-0.127 0.0741-0.3175 0.0741z"/>
</g>
<path d="m280.6 465.34c-0.24485-0.0577-0.19905 0.45892-0.12128 0.63263-0.63462-0.36486-0.39767-0.96438-0.42651-1.0236-0.16884-0.13684-0.37412-0.14701-0.63443-0.0551 0.15282-0.28435 0.54023-0.51182 0.96675-0.43007 0.19618 0.0376 0.21611-0.43747 0.1084-0.62022 0.32589 0.17431 0.37466 0.38597 0.43075 0.58767 0.0646 0.23382-0.0593 0.39153 0.0438 0.47328 0.14287 0.11325 0.42132 0.0966 0.58823 5e-3 -0.15591 0.3602-0.66802 0.49781-0.95566 0.43009zm-0.23401-0.34432c0.0897 0.0898 0.24397 0.0483 0.27691-0.0744 0.0329-0.12272-0.0798-0.23549-0.20251-0.20255-0.12271 0.033-0.16416 0.18715-0.0744 0.27693z" stroke-width=".0031177"/>
<g transform="translate(207.23 340.25)" stroke-width="0">
<rect x="25.792" y="124.69" width="1.1414" height="8.0038" marker-start="url(#Arrow1Lstart-1)"/>
<rect x="28.884" y="124.74" width="1.1414" height="1.5933" marker-start="url(#Arrow1Lstart-1)"/>
<path d="m25.073 133.18 0.71861-0.47919 1.1431-2.7e-4 0.76206 0.47677z" marker-start="url(#Arrow1Lstart-1)"/>
<path d="m31.116 133.17 0.71862-0.47916 1.1431-2.7e-4 0.76206 0.47679z" marker-start="url(#Arrow1Lstart-1)"/>
<rect x="31.84" y="124.71" width="1.1366" height="7.9864" marker-start="url(#Arrow1Lstart-1)"/>
<path d="m22.129 124.18c5.0488 0.68902 9.9999 0.63485 14.873 4.1e-4l-0.4551 0.47425c-4.4793 0.60941-9.1263 0.67391-13.983 0z" marker-start="url(#Arrow1Lstart-1)"/>
<path d="m23.209 125.12c4.3826 0.73067 8.5934 0.70279 12.683 7.3e-4l-0.25132 0.83056c-3.7734 0.63123-7.985 0.59553-12.188-0.031z" marker-start="url(#Arrow1Lstart-1)"/>
</g>
<g transform="matrix(.34041 .091212 -.091212 .34041 214.86 434.44)" stroke="#000" stroke-width=".26458px">
<path d="m122.03 112.44-0.36396-3.1308c-8.2191 4.0645-11.842 3.3012-15.002 1.6557 0.871 1.5379 2.9863 2.4312 6.3558 2.618 0.22897 2e-3 0.27571 0.0684 0.33227 0.13123l0.37974 0.84045c-0.82929 0.31862-1.4847 0.80846-3.5613 0.71846-0.27509-0.0119-0.31426-0.70466-0.65549-0.77396-0.3302-0.0483-0.55471 0.37385-0.92401 0.51334-0.74122 0.27998-1.711-0.32478-1.8728-0.55559-0.25344-0.36168-0.28312-0.82355-0.48069-0.94893-0.35522-0.15935-0.81761 0.3645-1.0722 0.16319 0 0-0.75582-0.39551-0.94784-0.74961-0.17359-0.32012-0.10049-1.0878-0.10049-1.0878 0.0365-0.0972-0.82162-0.0946-1.1404-0.31972-0.25813-0.18223-0.43889-0.50312-0.48219-0.81611-0.0567-0.40982 0.31758-1.1999 0.31758-1.1999 0.0751-0.0375-0.76803-0.15259-1.0114-0.42932-0.19622-0.22313-0.25052-0.57664-0.19811-0.86911 0.0754-0.42096 0.68515-1.1198 0.60333-1.1315 0.0353-0.14105-0.53723-0.61804-0.62527-0.96057-0.0793-0.30845-0.024-0.67501 0.14616-0.94421 0.19636-0.31064 0.91498-0.63694 0.91498-0.66943 0.052-9e-3 -0.22734-0.7329-0.19001-1.0845 0.0282-0.26535 0.2357-0.50689 0.45535-0.65841 0.32058-0.22114 1.1343-0.27998 1.1343-0.27998 0.1206-0.011 0.0318-0.73835 0.16427-1.0377 0.1527-0.34498 0.50444-0.67507 0.87991-0.71182 0.34589-0.0339 1.0179 0.37214 1.0275 0.31425 0.18507-0.24959 0.27537-0.52287 0.40487-0.78635 0.15495-0.31526 1.126-0.37524 1.3008-0.27771 0.37799 0.21082 0.70249 0.48851 1.1372 0.6285 0.18908 0.0252 0.62469-0.41598 0.93545-0.36249 1.4297 0.24607 2.5083 1.6162 3.3112 2.8245 0.75508 1.1054 0.41592 5.3644-0.82889 5.2131-0.41942-1.8054-0.99055-2.8586-3.2908-2.7595-1.2528 0.14588-2.18 1.0419-1.5544 2.2903 0.9666 1.8584 2.0458 2.2753 4.4442 2.0092 3.1838-0.38939 3.6871-1.9558 4.7418-4.0432 0.16015-0.29138 0.64367-2.7273-0.41341-4.8204-0.94804-1.5758-2.2702-3.8259-5.6118-4.2068-3.2933-0.20652-5.4161 0.67974-7.0303 2.3051-1.5949 1.3603-2.1932 2.5437-2.8608 4.6219-0.66315 2.9878-0.21467 5.5816 1.2237 8.169 1.3178 2.5229 3.1959 3.5204 5.0602 4.5558 1.9692 0.88321 4.2674 1.4784 7.9127 0.93844 0.0957 0.34695 0.18934 0.69469 0.43822 0.98392l6.904-1.5565-0.11989-1.8252c-0.98178 1.9638-4.3648 0.4451-3.6064-1.8408 0.76521-1.6711 2.5338-1.4197 3.4195-0.65653z"/>
<path d="m114.84 113.11c0.79098-0.45545 1.7345-0.9241 2.9199-1.2645 0.14943 0.58521 0.28238 1.1773-0.0434 1.7752-1.0201 0.0374-1.7615 0.0366-2.8765-0.51071z" fill="#fff"/>
</g>
<g stroke-width=".26458" aria-label="амурай">
<path d="m251.59 477.43-2.0532 4.8895q-0.3175 0.79375-0.58208 1.3018-0.254 0.49741-0.49742 0.79374-0.24341 0.29634-0.50799 0.41275-0.26459 0.11642-0.60325 0.14817v0.42333h3.3337v-0.43391h-0.35984q-0.38099 0-0.57149-0.10584-0.1905-0.11641-0.1905-0.39158t0.13758-0.71966q0.14817-0.45509 0.43392-1.1536h2.8363q0.27517 0.68791 0.41275 1.143 0.14816 0.45508 0.14816 0.73025 0 0.28575-0.1905 0.39158-0.19049 0.10584-0.59266 0.10584h-0.35983v0.43391h3.9476v-0.42333q-0.35983-0.0212-0.635-0.17992-0.27517-0.15875-0.51858-0.47625-0.24342-0.31749-0.48683-0.80433-0.24342-0.49741-0.52917-1.1959l-2.0637-4.8895zm-0.0212 1.7357 1.2065 2.9527h-2.4447z"/>
<path d="m263.72 480.25v2.9422q0 0.48684-0.0212 0.81492-0.0106 0.3175-0.0953 0.51858-0.0847 0.1905-0.254 0.27517-0.16933 0.0847-0.48683 0.0847h-0.10584v0.47625h3.1327v-0.47625q-0.34925 0-0.55033-0.0847-0.1905-0.0847-0.28575-0.27517-0.0847-0.20108-0.10583-0.51858-0.0106-0.32808-0.0106-0.81492v-4.6461q0.0529-0.34925 0.254-0.49742 0.20109-0.14817 0.60325-0.14817h0.10583v-0.47624h-3.1326v0.47624q0.47625 0 0.66675 0.15875 0.20108 0.15875 0.25399 0.55034l-2.032 2.2966h-0.0212l0.0106-0.0106-2.0426-2.286q0.0529-0.39159 0.24342-0.55034 0.20108-0.15875 0.67733-0.15875v-0.47624h-3.1327v0.47624h0.10583q0.40217 0 0.60325 0.14817t0.254 0.49742v4.6461q0 0.48684-0.0212 0.81492-0.0106 0.3175-0.10583 0.51858-0.0847 0.1905-0.28575 0.27517-0.1905 0.0847-0.53975 0.0847v0.47625h3.1327v-0.47625h-0.10583q-0.3175 0-0.48683-0.0847-0.16934-0.0847-0.254-0.27517-0.0847-0.20108-0.10584-0.51858-0.0106-0.32808-0.0106-0.81492v-2.9422q0.42333 0.4445 0.94191 1.016 0.51859 0.56092 1.1218 1.2594v0.0106l0.0212-0.0423v0.0317q0.60325-0.6985 1.1112-1.2594 0.51858-0.57149 0.95249-1.016zm-2.0637 2.2754-0.0106 0.0106q0 0.0106 0.0106 0.0106zm-0.0106 0.0106h-0.0106v0.0106z"/>
<path d="m267.93 485.37h3.048v-0.47625q-0.27516 0-0.45508-0.0106-0.17991-0.0212-0.28575-0.0847-0.0953-0.0741-0.14816-0.21166-0.0423-0.13759-0.0529-0.39159 0.0423-0.27516 0.17992-0.44449 0.13758-0.16934 0.33866-0.27517 0.21167-0.10583 0.45508-0.15875 0.24342-0.0529 0.48684-0.10583 0.96308-0.21167 1.397-0.91017 0.4445-0.70908 0.4445-1.7886v-0.91017q0-0.48683 0.0106-0.80433 0.0212-0.32808 0.10584-0.51858 0.0847-0.20108 0.254-0.28575 0.16933-0.0847 0.48683-0.0847l0.10583-0.0317v-0.44449h-3.1327v0.47624q0.34925 0 0.53975 0.0847 0.20109 0.0847 0.28575 0.28575 0.0953 0.1905 0.10583 0.51858 0.0212 0.3175 0.0212 0.80433v1.2382q0 0.52916-0.10583 0.889-0.0953 0.34924-0.28575 0.56091-0.17992 0.21167-0.4445 0.30692-0.26458 0.0847-0.59266 0.0741-0.32809 0.0106-0.59267-0.0741-0.254-0.0847-0.43391-0.29634-0.17992-0.21166-0.27517-0.57149-0.0953-0.35984-0.0953-0.889v-1.2382q0-0.48683 0.0106-0.80433 0.0212-0.32808 0.10584-0.51858 0.0953-0.20108 0.28575-0.28575 0.20108-0.0847 0.55033-0.0847v-0.47624h-3.1327v0.47624h0.10583q0.3175 0 0.48684 0.0847 0.16933 0.0847 0.25399 0.28575 0.0847 0.1905 0.0953 0.51858 0.0212 0.3175 0.0212 0.80433v0.91017q0 0.89958 0.30692 1.5346 0.30691 0.635 0.92074 0.96308 0.127 0.0847 0.254 0.11642 0.127 0.0212 0.26459 0.0741-0.24342 0.127-0.42334 0.254-0.17991 0.11642-0.30691 0.254-0.127 0.13759-0.20109 0.3175-0.0635 0.17992-0.0847 0.42333 0.0106 0.15875-0.0212 0.254-0.0212 0.0847-0.11641 0.127-0.0847 0.0423-0.26459 0.0529-0.16933 0.0106-0.45508 0.0106h-0.0212z"/>
<path d="m279.48 477.42q-1.4711 0-2.2754 0.70908-0.79375 0.70908-0.83608 1.9368v3.1326q0 0.48684-0.0212 0.81492-0.0106 0.3175-0.10583 0.51858-0.0847 0.1905-0.28575 0.27517-0.1905 0.0847-0.53975 0.0847v0.47625h3.1327v-0.47625h-0.10583q-0.3175 0-0.48683-0.0847-0.16934-0.0847-0.254-0.27517-0.0847-0.20108-0.10584-0.51858-0.0106-0.32808-0.0106-0.81492v-0.94191q0.73025 0.4445 1.8944 0.4445 1.397 0 2.1802-0.6985 0.78316-0.70908 0.83608-1.9367-0.0529-1.2277-0.83608-1.9368-0.78316-0.70908-2.1802-0.70908zm-1.8944 2.4553q0-0.52917 0.15875-0.87842 0.16933-0.35983 0.43391-0.57149 0.26459-0.21167 0.59267-0.29634 0.32808-0.0952 0.65616-0.0847 0.32809-0.0106 0.65617 0.0741 0.33866 0.0847 0.60325 0.29633 0.26458 0.21167 0.42333 0.5715 0.16933 0.35983 0.16933 0.889v0.37041q0 0.52917-0.16933 0.889-0.15875 0.35983-0.42333 0.5715-0.26459 0.21167-0.60325 0.29633-0.32808 0.0847-0.65617 0.0741-0.31749 0.0106-0.63499-0.0635-0.3175-0.0847-0.58209-0.27516-0.25399-0.20108-0.43391-0.51858-0.16933-0.32808-0.1905-0.81492z"/>
<path d="m287.75 477.43-2.0532 4.8895q-0.3175 0.79375-0.58208 1.3018-0.254 0.49741-0.49742 0.79374-0.24341 0.29634-0.50799 0.41275-0.26459 0.11642-0.60325 0.14817v0.42333h3.3337v-0.43391h-0.35984q-0.38099 0-0.57149-0.10584-0.1905-0.11641-0.1905-0.39158t0.13758-0.71966q0.14817-0.45509 0.43391-1.1536h2.8363q0.27517 0.68791 0.41275 1.143 0.14816 0.45508 0.14816 0.73025 0 0.28575-0.1905 0.39158-0.19049 0.10584-0.59266 0.10584h-0.35983v0.43391h3.9476v-0.42333q-0.35983-0.0212-0.635-0.17992-0.27517-0.15875-0.51858-0.47625-0.24342-0.31749-0.48683-0.80433-0.24342-0.49741-0.52917-1.1959l-2.0637-4.8895zm-0.0212 1.7357 1.2065 2.9527h-2.4447z"/>
<path d="m294.57 479.59q0-0.48683-0.0212-0.80433-0.0106-0.32808-0.10583-0.51858-0.0847-0.20109-0.28575-0.28575-0.1905-0.0847-0.53975-0.0847v-0.47625h3.1327v0.47625h-0.10583q-0.3175 0-0.48683 0.0847-0.16934 0.0847-0.254 0.28575-0.0847 0.1905-0.10584 0.51858-0.0106 0.3175-0.0106 0.80433v3.0903l3.6301-4.064q-0.0529-0.39159-0.254-0.55034-0.1905-0.15875-0.66675-0.15875v-0.47624h3.1327v0.47624h-0.10583q-0.40217 0-0.60325 0.14817t-0.254 0.49742v4.6461q0 0.48684 0.0106 0.81492 0.0212 0.3175 0.10584 0.51858 0.0953 0.1905 0.28575 0.27517 0.20108 0.0847 0.55033 0.0847v0.47625h-3.1327v-0.47625h0.10583q0.3175 0 0.48684-0.0847 0.16933-0.0847 0.254-0.27517 0.0847-0.20108 0.0952-0.51858 0.0212-0.32808 0.0212-0.81492v-2.9422q-0.67733 0.70908-1.6087 1.7462-0.92075 1.0266-1.9791 2.3812 0.0847 0.27517 0.27517 0.39159 0.20108 0.10583 0.60325 0.10583v0.47625h-3.1327v-0.47625h0.10583q0.3175 0 0.48683-0.0847 0.16934-0.0847 0.254-0.27516 0.0847-0.20109 0.0952-0.51858 0.0212-0.32809 0.0212-0.81492zm3.1221-3.7359q-0.17991 0-0.28575-0.0635-0.10583-0.0741-0.15874-0.19049-0.0529-0.11642-0.0847-0.254-0.0212-0.14817-0.0317-0.30692h-0.635q-0.0212 0.254 0.0423 0.49742 0.0635 0.24341 0.21167 0.43391 0.15875 0.1905 0.39158 0.30692 0.23283 0.11641 0.56092 0.10583 0.34925-0.0106 0.59266-0.127 0.24342-0.11642 0.39158-0.30692 0.14817-0.1905 0.21167-0.42333 0.0635-0.24341 0.0635-0.48683h-0.59267q-0.0212 0.14817-0.0529 0.29633-0.0318 0.13759-0.10583 0.254-0.0741 0.11642-0.20109 0.1905-0.127 0.0741-0.3175 0.0741z"/>
</g>
<g transform="translate(-26.967 -13.518)" stroke-width=".0031177">
<path d="m317.05 492.63c0.13237 0.21392 0.46526-0.18375 0.5331-0.36158 0.19075 0.70675-0.40073 0.96312-0.42222 1.0254 0.0226 0.21614 0.16059 0.3685 0.40966 0.48757-0.30913 0.093-0.74392-0.0201-0.98771-0.3795-0.11213-0.16531-0.46215 0.15653-0.51521 0.36191-0.10718-0.35369 8e-3 -0.53784 0.11097-0.72012 0.11972-0.21098 0.31879-0.23492 0.30371-0.3656-0.0209-0.1811-0.22963-0.36621-0.41217-0.41971 0.36494-0.14445 0.82437 0.12034 0.97987 0.37163zm-0.078 0.40895c0-0.12692-0.13834-0.20668-0.24842-0.14322-0.11007 0.0635-0.11007 0.22297 0 0.28643 0.11008 0.0635 0.24842-0.0163 0.24842-0.14321z"/>
<path d="m311.92 496.76c-0.24485-0.0577-0.19905 0.45892-0.12128 0.63263-0.63462-0.36486-0.39767-0.96438-0.42651-1.0236-0.16884-0.13684-0.37412-0.14701-0.63443-0.0551 0.15282-0.28435 0.54023-0.51182 0.96675-0.43007 0.19618 0.0376 0.21611-0.43747 0.1084-0.62022 0.32589 0.17431 0.37466 0.38597 0.43075 0.58767 0.0646 0.23382-0.0593 0.39153 0.0438 0.47328 0.14287 0.11325 0.42132 0.0966 0.58823 5e-3 -0.15591 0.3602-0.66802 0.49781-0.95566 0.43009zm-0.23401-0.34432c0.0897 0.0898 0.24397 0.0483 0.27691-0.0744 0.0329-0.12272-0.0798-0.23549-0.20251-0.20255-0.12271 0.033-0.16416 0.18715-0.0744 0.27693z"/>
</g>
</g>
<style type="text/css">.st0{fill:#94A6B0;}
	.st1{fill:#4A5A63;}</style>
<style type="text/css">.st0{fill:#94A6B0;}
	.st1{fill:#4A5A63;}</style>
<style type="text/css">.st0{fill:#94A6B0;}
	.st1{fill:#4A5A63;}</style>
<style type="text/css">.st0{fill:#94A6B0;}
	.st1{fill:#4A5A63;}</style>
</svg>
