<svg width="20" height="20" viewBox="0 0 20 20" fill="none" xmlns="http://www.w3.org/2000/svg">
<g clip-path="url(#clip0_40_7689)">
<path d="M6.92318 1.53857H2.30773C1.66662 1.53857 1.12179 1.76296 0.672979 2.21159C0.224382 2.66032 0 3.20515 0 3.8463V8.46159C0 9.1027 0.224256 9.64745 0.672979 10.0961C1.12174 10.5447 1.66674 10.7692 2.30773 10.7692H5.00002C5.32043 10.7692 5.59293 10.8814 5.81731 11.1057C6.04169 11.3299 6.15384 11.6024 6.15384 11.9231V12.3075C6.15384 13.1569 5.85331 13.8818 5.2524 14.4829C4.65145 15.0837 3.92635 15.3842 3.07686 15.3842H2.30773C2.09926 15.3842 1.91904 15.4605 1.76673 15.6127C1.61454 15.7648 1.53839 15.9451 1.53839 16.1535V17.6921C1.53839 17.9001 1.61454 18.0808 1.76673 18.233C1.91916 18.3851 2.09922 18.4615 2.30773 18.4615H3.0769C3.91031 18.4615 4.70559 18.299 5.46285 17.9746C6.22006 17.6501 6.87507 17.2113 7.42798 16.6584C7.98077 16.1054 8.41951 15.4505 8.74401 14.6933C9.06846 13.9361 9.23074 13.1408 9.23074 12.3075V3.84613C9.23074 3.20498 9.00636 2.66019 8.55772 2.21155C8.10909 1.76291 7.56413 1.53857 6.92318 1.53857Z" fill="white" fill-opacity="0.9"/>
<path d="M19.3269 2.21159C18.8783 1.76296 18.3334 1.53857 17.6923 1.53857H13.077C12.4359 1.53857 11.8911 1.76296 11.4424 2.21159C10.9938 2.66036 10.7695 3.20515 10.7695 3.8463V8.46159C10.7695 9.1027 10.9938 9.64745 11.4424 10.0961C11.8911 10.5447 12.4359 10.7692 13.077 10.7692H15.7693C16.0897 10.7692 16.3624 10.8814 16.5868 11.1057C16.8109 11.33 16.9233 11.6024 16.9233 11.9231V12.3075C16.9233 13.1569 16.6228 13.8818 16.0217 14.4829C15.4208 15.0837 14.6959 15.3842 13.8463 15.3842H13.077C12.8687 15.3842 12.6883 15.4605 12.5362 15.6127C12.3839 15.7648 12.3077 15.9451 12.3077 16.1535V17.6921C12.3077 17.9001 12.3839 18.0808 12.5362 18.233C12.6883 18.3851 12.8687 18.4615 13.077 18.4615H13.8463C14.6796 18.4615 15.4748 18.299 16.2322 17.9746C16.9893 17.6501 17.6442 17.2113 18.1971 16.6584C18.75 16.1054 19.189 15.4504 19.5133 14.6933C19.8377 13.9362 20.0001 13.1408 20.0001 12.3075V3.84613C20 3.20498 19.7758 2.66019 19.3269 2.21159Z" fill="white" fill-opacity="0.9"/>
</g>
<defs>
<clipPath id="clip0_40_7689">
<rect width="20" height="20" fill="white"/>
</clipPath>
</defs>
</svg>
