<svg width="30" height="30" viewBox="0 0 30 30" fill="none" xmlns="http://www.w3.org/2000/svg">
<path d="M26.6583 8.99828H22.7637C22.6047 8.99828 22.4487 9.04137 22.3123 9.12298C22.1759 9.20459 22.0642 9.32166 21.989 9.46172C21.989 9.46172 20.4357 12.3224 19.9368 13.2859C18.5945 15.8779 17.7253 15.0642 17.7253 13.8612V9.71337C17.7253 9.36676 17.5876 9.03435 17.3425 8.78926C17.0974 8.54417 16.765 8.40648 16.4184 8.40648H13.4902C13.0914 8.37683 12.6917 8.44962 12.329 8.61793C11.9662 8.78625 11.6526 9.04449 11.4177 9.36815C11.4177 9.36815 12.9046 9.12774 12.9046 11.1312C12.9046 11.628 12.9302 13.0572 12.9535 14.2559C12.9579 14.4325 12.908 14.6063 12.8105 14.7536C12.7131 14.901 12.5727 15.0149 12.4084 15.08C12.2442 15.1451 12.0639 15.1582 11.8919 15.1176C11.7199 15.0769 11.5646 14.9845 11.4468 14.8528C10.2483 13.1858 9.25546 11.3801 8.48998 9.47503C8.42424 9.33251 8.319 9.21185 8.18675 9.12735C8.0545 9.04284 7.90078 8.99805 7.74384 8.99828C6.89923 8.99828 5.20908 8.99828 4.20536 8.99828C4.10803 8.99761 4.01199 9.02059 3.9255 9.06523C3.83901 9.10988 3.76465 9.17485 3.7088 9.25457C3.65296 9.33429 3.61731 9.42638 3.60491 9.52292C3.59251 9.61946 3.60373 9.71756 3.63761 9.80881C4.71206 12.756 9.34045 22.0178 14.6233 22.0178H16.8469C17.0798 22.0178 17.3033 21.9252 17.468 21.7605C17.6327 21.5957 17.7253 21.3723 17.7253 21.1393V19.7967C17.7253 19.6282 17.7746 19.4635 17.8671 19.3227C17.9595 19.1819 18.0912 19.0713 18.2458 19.0044C18.4004 18.9376 18.5711 18.9174 18.7371 18.9464C18.903 18.9754 19.0568 19.0523 19.1795 19.1676L21.841 21.6682C22.08 21.8927 22.3956 22.0178 22.7236 22.0178H26.2185C27.9041 22.0178 27.9041 20.8481 26.9851 19.943C26.3383 19.306 24.0044 16.846 24.0044 16.846C23.8046 16.6389 23.6854 16.3672 23.6684 16.0799C23.6513 15.7927 23.7377 15.5088 23.9117 15.2796C24.6661 14.2868 25.9 12.6618 26.4233 11.9656C27.1385 11.0141 28.4331 8.99828 26.6583 8.99828Z" fill="white" fill-opacity="0.7"/>
</svg>
