<svg width="30" height="30" viewBox="0 0 30 30" fill="none" xmlns="http://www.w3.org/2000/svg">
<path d="M26.6582 8.99828H22.7637C22.6047 8.99828 22.4487 9.04137 22.3123 9.12298C22.1759 9.20459 22.0641 9.32166 21.989 9.46172C21.989 9.46172 20.4357 12.3224 19.9367 13.2859C18.5945 15.8779 17.7253 15.0642 17.7253 13.8612V9.71337C17.7253 9.36676 17.5876 9.03435 17.3425 8.78926C17.0974 8.54417 16.765 8.40648 16.4184 8.40648H13.4902C13.0914 8.37683 12.6917 8.44962 12.3289 8.61793C11.9662 8.78625 11.6525 9.04449 11.4177 9.36815C11.4177 9.36815 12.9046 9.12774 12.9046 11.1312C12.9046 11.628 12.9302 13.0572 12.9535 14.2559C12.9579 14.4325 12.908 14.6063 12.8105 14.7536C12.713 14.901 12.5727 15.0149 12.4084 15.08C12.2441 15.1451 12.0638 15.1582 11.8919 15.1176C11.7199 15.0769 11.5646 14.9845 11.4468 14.8528C10.2482 13.1858 9.25543 11.3801 8.48995 9.47503C8.42421 9.33251 8.31897 9.21185 8.18672 9.12735C8.05447 9.04284 7.90075 8.99805 7.7438 8.99828C6.89919 8.99828 5.20905 8.99828 4.20533 8.99828C4.108 8.99761 4.01196 9.02059 3.92547 9.06523C3.83898 9.10988 3.76462 9.17485 3.70877 9.25457C3.65293 9.33429 3.61728 9.42638 3.60488 9.52292C3.59247 9.61946 3.6037 9.71756 3.63757 9.80881C4.71203 12.756 9.34042 22.0178 14.6233 22.0178H16.8468C17.0798 22.0178 17.3032 21.9252 17.468 21.7605C17.6327 21.5957 17.7253 21.3723 17.7253 21.1393V19.7967C17.7253 19.6282 17.7745 19.4635 17.867 19.3227C17.9595 19.1819 18.0912 19.0713 18.2457 19.0044C18.4003 18.9376 18.5711 18.9174 18.737 18.9464C18.9029 18.9754 19.0568 19.0523 19.1795 19.1676L21.8409 21.6682C22.08 21.8927 22.3956 22.0178 22.7236 22.0178H26.2185C27.9041 22.0178 27.9041 20.8481 26.9851 19.943C26.3383 19.306 24.0044 16.846 24.0044 16.846C23.8045 16.6389 23.6853 16.3672 23.6683 16.0799C23.6513 15.7927 23.7376 15.5088 23.9117 15.2796C24.666 14.2868 25.8999 12.6618 26.4232 11.9656C27.1385 11.0141 28.4331 8.99828 26.6582 8.99828Z" fill="#A3403B" fill-opacity="0.5"/>
</svg>
