<?xml version="1.0" encoding="UTF-8"?>
<!-- Created with Inkscape (http://www.inkscape.org/) -->
<svg width="93.906mm" height="21.983mm" version="1.1" viewBox="0 0 93.906 21.983" xmlns="http://www.w3.org/2000/svg">
<g transform="translate(-130.67 -299.82)">
<g transform="matrix(.41679 0 0 .41679 88.353 226.29)" fill="#8e7440"></g>
<g transform="matrix(.41679 0 0 .41679 88.353 226.29)" fill="#dace68"></g>
<g transform="matrix(.41679 0 0 .41679 88.353 226.29)" fill="#87583c"></g>
<g fill="#fff">
<g stroke-width=".26458" aria-label="THE LAST   AMURAI">
<path d="m171.62 300.61q0.26458 0 0.40216 0.0212t0.1905 0.11642q0.0635 0.0847 0.0635 0.27516 0.0106 0.1905 0.0317 0.53975h0.47625v-1.7462h-6.5828v1.7568h0.47624v-0.32808q0.0106-0.26458 0.0635-0.39158 0.0529-0.13758 0.22225-0.1905 0.17992-0.0529 0.508-0.0529 0.33867 0 0.89958 0h0.51858v4.9742q0 0.48683-0.0212 0.81491-0.0106 0.3175-0.10584 0.51858-0.0847 0.1905-0.28574 0.27517-0.1905 0.0847-0.53975 0.0847v0.47625h3.1326v-0.47625h-0.10583q-0.3175 0-0.48683-0.0847t-0.254-0.27517q-0.0847-0.20108-0.10583-0.51858-0.0106-0.32808-0.0106-0.81491v-4.9742z"/>
<path d="m174.03 300.3h0.10584q0.3175 0 0.48683 0.0847t0.254 0.28575q0.0847 0.1905 0.0952 0.51858 0.0212 0.3175 0.0212 0.80433v5.7785h1.2171v-3.4502h2.4448v3.4502h1.2171v-5.7785q0-0.48683 0.0106-0.80433 0.0212-0.32808 0.10583-0.51858 0.0952-0.20108 0.28575-0.28575 0.20108-0.0847 0.55033-0.0847v-0.47625h-3.1326v0.47625h0.10583q0.3175 0 0.48683 0.0847t0.254 0.28575q0.0847 0.1905 0.0952 0.51858 0.0212 0.3175 0.0212 0.80433v1.8415h-2.4448v-1.8415q0-0.48683 0.0106-0.80433 0.0212-0.32808 0.10583-0.51858 0.0953-0.20108 0.28575-0.28575 0.20108-0.0847 0.55033-0.0847v-0.47625h-3.1327z"/>
<path d="m188.11 307.18h-2.2331q-0.32808 0-0.65616-0.0847-0.32809-0.0847-0.59267-0.29633-0.254-0.22225-0.42333-0.5715-0.15875-0.34925-0.15875-0.87841v-1.5981h2.8892v-0.48683h-2.8892v-1.1748q0-0.43391 0.0106-0.74083 0.0106-0.30691 0.0741-0.49741 0.0741-0.20109 0.21166-0.30692 0.14817-0.10583 0.40217-0.13758h3.3761v-0.58208h-6.2547v0.4445l0.10583 0.0317q0.3175 0 0.48683 0.0847 0.16934 0.0847 0.254 0.28575 0.0847 0.1905 0.0952 0.51858 0.0212 0.3175 0.0212 0.80433v3.0162q0 1.2806 0.78316 2.0214 0.78317 0.74083 2.2648 0.75142h2.2331z"/>
<path d="m136.91 320.46h-2.2331q-0.32809 0-0.65617-0.0847t-0.59266-0.29633q-0.254-0.22225-0.42333-0.5715-0.15875-0.34924-0.15875-0.87841v-3.4078q0-0.43392 0.0106-0.74083 0.0106-0.30692 0.0741-0.49742 0.0741-0.20108 0.21167-0.30691 0.14816-0.10584 0.40216-0.13759h0.14817v-0.48683h-3.0268v0.4445l0.10583 0.0318q0.3175 0 0.48683 0.0847t0.254 0.28575q0.0847 0.19049 0.0952 0.51858 0.0212 0.3175 0.0212 0.80433v3.0162q0 1.2806 0.78316 2.0214t2.2648 0.75141h2.2331z"/>
<path d="m137.93 320.99h3.1327v-0.47625q-0.34925 0-0.55033-0.0847-0.1905-0.0847-0.28575-0.27516-0.0847-0.20109-0.10583-0.51859-0.0106-0.32808-0.0106-0.81491v-1.3547h3.6936v1.3547q0 0.48683-0.0212 0.81491-0.0106 0.3175-0.10584 0.51859-0.0847 0.19049-0.28574 0.27516-0.1905 0.0847-0.53975 0.0847v0.47625h3.1326v-0.47625h-0.10583q-0.3175 0-0.48683-0.0847t-0.254-0.27516q-0.0847-0.20109-0.10583-0.51859-0.0106-0.32808-0.0106-0.81491v-2.9845q0-0.64558-0.20108-1.1536-0.20108-0.51858-0.59266-0.87841-0.39159-0.35984-0.9525-0.55034-0.56092-0.20108-1.27-0.20108-1.5134 0-2.3177 0.75142-0.79375 0.74083-0.79375 2.032v2.9845q0 0.48683-0.0212 0.81491-0.0106 0.3175-0.0952 0.51859-0.0847 0.19049-0.254 0.27516-0.16934 0.0847-0.48683 0.0847l-0.10584 0.0318zm2.1802-5.4822q0-0.52917 0.15875-0.87842 0.16933-0.35983 0.43392-0.5715 0.26458-0.21166 0.59266-0.29633 0.32808-0.0953 0.65617-0.0847 0.32808-0.0106 0.65616 0.0741 0.33867 0.0847 0.60325 0.29633 0.26458 0.21167 0.42333 0.5715 0.16933 0.35983 0.16933 0.889v1.4711h-3.6936z"/>
<path d="m147.32 315.11q-0.0212 0.60325 0.39159 1.1324 0.41274 0.51858 1.2594 0.8255l1.6722 0.60324q0.28575 0.10584 0.46567 0.29634 0.19049 0.17991 0.29633 0.39158 0.11641 0.20108 0.16933 0.41275 0.0529 0.21166 0.0529 0.35983 0.0106 0.35983-0.10584 0.59266-0.11641 0.23284-0.32808 0.37042-0.20108 0.127-0.48683 0.1905-0.27517 0.0529-0.59266 0.0529-0.381-0.0317-0.73025-0.0741-0.33867-0.0529-0.61383-0.14816-0.26459-0.10584-0.42334-0.26459-0.14816-0.16933-0.14816-0.43391l0.0106-0.89958h-0.508q-0.0212 0.20108-0.0529 0.45508t-0.0741 0.51858q-0.0318 0.26458-0.0741 0.51858-0.0318 0.254-0.0741 0.45508 0.70908 0.22225 1.4076 0.381 0.70908 0.14817 1.4393 0.14817 0.52917 0 0.98425-0.13758 0.46567-0.14817 0.80433-0.41275 0.34925-0.27517 0.55033-0.65617 0.21167-0.381 0.23284-0.86783 0.0106-0.28575-0.0635-0.58208-0.0635-0.30691-0.23284-0.58208-0.16933-0.28575-0.44449-0.52917-0.26459-0.24341-0.64559-0.40216l-1.5663-0.65617q-0.28575-0.11641-0.55034-0.26458-0.26458-0.14816-0.46566-0.3175-0.1905-0.17991-0.3175-0.35983-0.11642-0.17991-0.11642-0.35983-0.0106-0.28575 0.11642-0.49742 0.127-0.22225 0.33867-0.37041 0.22225-0.14817 0.50799-0.22225 0.28575-0.0741 0.59267-0.0952 0.28575 0.0212 0.62441 0.0847 0.33867 0.0529 0.62442 0.16933 0.28575 0.10583 0.47625 0.28575 0.20108 0.16933 0.20108 0.41275l-0.0212 0.89958 0.508 0.0106q0.0317-0.20108 0.0635-0.45508 0.0317-0.254 0.0635-0.51858 0.0423-0.26459 0.0741-0.51859 0.0423-0.25399 0.0847-0.45508-0.75141-0.28575-1.4393-0.40216-0.67733-0.127-1.4922-0.127-1.1748 0.0741-1.8098 0.53975-0.62441 0.45508-0.635 1.5028z"/>
<path d="m159.5 313.84q0.26459 0 0.40217 0.0212t0.1905 0.11641q0.0635 0.0847 0.0635 0.27517 0.0106 0.1905 0.0318 0.53975h0.47625v-1.7462h-6.5828v1.7568h0.47625v-0.32808q0.0106-0.26459 0.0635-0.39159 0.0529-0.13758 0.22225-0.19049 0.17992-0.0529 0.508-0.0529 0.33867 0 0.89958 0h0.51858v4.9742q0 0.48683-0.0212 0.81491-0.0106 0.3175-0.10584 0.51859-0.0847 0.19049-0.28575 0.27516-0.1905 0.0847-0.53974 0.0847v0.47625h3.1326v-0.47625h-0.10583q-0.3175 0-0.48683-0.0847-0.16934-0.0847-0.254-0.27516-0.0847-0.20109-0.10584-0.51859-0.0106-0.32808-0.0106-0.81491v-4.9742z"/>
<path d="m175.33 320.99h3.1326v-0.47625q-0.34924 0-0.55033-0.0847-0.1905-0.0847-0.28575-0.27516-0.0847-0.20109-0.10583-0.51859-0.0106-0.32808-0.0106-0.81491v-1.3547h3.6936v1.3547q0 0.48683-0.0212 0.81491-0.0106 0.3175-0.10583 0.51859-0.0847 0.19049-0.28575 0.27516-0.1905 0.0847-0.53975 0.0847v0.47625h3.1327v-0.47625h-0.10583q-0.3175 0-0.48684-0.0847-0.16933-0.0847-0.254-0.27516-0.0847-0.20109-0.10583-0.51859-0.0106-0.32808-0.0106-0.81491v-2.9845q0-0.64558-0.20108-1.1536-0.20109-0.51858-0.59267-0.87841-0.39158-0.35984-0.9525-0.55034-0.56091-0.20108-1.27-0.20108-1.5134 0-2.3177 0.75142-0.79375 0.74083-0.79375 2.032v2.9845q0 0.48683-0.0212 0.81491-0.0106 0.3175-0.0952 0.51859-0.0847 0.19049-0.254 0.27516-0.16933 0.0847-0.48683 0.0847l-0.10583 0.0318zm2.1802-5.4822q0-0.52917 0.15875-0.87842 0.16933-0.35983 0.43391-0.5715 0.26458-0.21166 0.59267-0.29633 0.32808-0.0953 0.65616-0.0847 0.32808-0.0106 0.65617 0.0741 0.33866 0.0847 0.60324 0.29633 0.26459 0.21167 0.42334 0.5715 0.16933 0.35983 0.16933 0.889v1.4711h-3.6936z"/>
<path d="m190.01 313.66q0.33866 0.0423 0.70908 0.16934 0.37041 0.11641 0.67733 0.33866 0.30691 0.21167 0.508 0.52917 0.20108 0.3175 0.20108 0.76199v3.3549q0 0.48683-0.0212 0.81491-0.0106 0.3175-0.10583 0.51859-0.0847 0.19049-0.28575 0.27516-0.1905 0.0847-0.53975 0.0847v0.47625h3.1327v-0.47625h-0.10583q-0.3175 0-0.48683-0.0847-0.16934-0.0847-0.254-0.27516-0.0847-0.20109-0.10584-0.51859-0.0106-0.32808-0.0106-0.81491v-3.0268q0-0.58209-0.27517-1.0583-0.26458-0.48684-0.71966-0.84667t-1.0478-0.5715q-0.58208-0.22225-1.2277-0.28575 0.0529-0.34924 0.24342-0.48683 0.20108-0.14816 0.66674-0.14816v-0.47625h-3.1326v0.47625h0.10583q0.41275 0 0.58208 0.15875 0.17992 0.14816 0.23283 0.51858-0.63499 0.0952-1.2171 0.32808-0.58208 0.22225-1.0266 0.5715-0.43391 0.34925-0.69849 0.81491-0.254 0.45508-0.254 1.0054v3.0268q0 0.48683-0.0212 0.81491-0.0106 0.3175-0.0952 0.51859-0.0847 0.19049-0.254 0.27516-0.16933 0.0847-0.48683 0.0847l-0.10583 0.0318v0.4445h3.1326v-0.47625q-0.34924 0-0.55033-0.0847-0.1905-0.0847-0.28575-0.27516-0.0847-0.20109-0.10583-0.51859-0.0106-0.32808-0.0106-0.81491v-3.3549q0-0.41274 0.17991-0.70908 0.1905-0.30691 0.48684-0.51858 0.29633-0.21166 0.64558-0.33866 0.35983-0.13759 0.70908-0.20109v4.1804q0 0.48683-0.0212 0.79374-0.0106 0.29634-0.10583 0.46567-0.0847 0.16933-0.28575 0.23283-0.1905 0.0529-0.53975 0.0529v0.47625h3.1327v-0.47625h-0.10584q-0.31749 0-0.48683-0.0529-0.16933-0.0635-0.254-0.23283-0.0847-0.16933-0.10583-0.46567-0.0106-0.30691-0.0106-0.79374z"/>
<path d="m197.16 318.53v-3.3126q0-0.48683 0.0106-0.80433 0.0212-0.32809 0.10584-0.51858 0.0953-0.20109 0.28575-0.28575 0.20108-0.0847 0.55033-0.0847v-0.47625h-3.1327v0.4445l0.10583 0.0318q0.3175 0 0.48684 0.0847 0.16933 0.0847 0.25399 0.28575 0.0847 0.19049 0.0952 0.51858 0.0212 0.3175 0.0212 0.80433v2.9845q0 1.2912 0.79375 2.0426 0.80433 0.74083 2.3177 0.74083 0.70908 0 1.27-0.1905 0.56091-0.20109 0.95249-0.56092 0.39159-0.35983 0.59267-0.86783 0.20108-0.51858 0.20108-1.1642v-2.9845q0-0.48683 0.0106-0.80433 0.0212-0.32809 0.10584-0.51858 0.0847-0.20109 0.254-0.28575 0.16933-0.0847 0.48683-0.0847h0.10583v-0.47625h-3.1327v0.47625q0.34925 0 0.53975 0.0847 0.20109 0.0847 0.28575 0.28575 0.0952 0.19049 0.10584 0.51858 0.0212 0.3175 0.0212 0.80433v3.3126q0 0.52917-0.16933 0.889-0.15875 0.35983-0.42333 0.5715-0.26459 0.21166-0.60325 0.29633-0.32808 0.0847-0.65617 0.0741-0.32808 0.0106-0.65616-0.0741-0.32808-0.0953-0.59266-0.30692-0.26459-0.21166-0.43392-0.56091-0.15875-0.35983-0.15875-0.889z"/>
<path d="m206.89 320.99v-0.47625h-0.10583q-0.3175 0-0.48683-0.0847-0.16934-0.0847-0.254-0.27516-0.0847-0.20109-0.10584-0.51859-0.0106-0.32808-0.0106-0.81491v-1.2065q0.28575 0.27517 0.64558 0.4445t0.65617 0.24342q0.37041 0.14816 0.60324 0.26458 0.24342 0.11642 0.39159 0.26458 0.14816 0.13759 0.21166 0.35984 0.0741 0.21166 0.10584 0.56091-0.0212 0.254-0.0635 0.40217-0.0423 0.14816-0.14817 0.23283-0.10583 0.0741-0.28575 0.10583-0.16933 0.0212-0.4445 0.0212v0.47625h3.048v-0.47625h-0.0212q-0.28575 0-0.46567-0.0212-0.16933-0.0212-0.26458-0.0741-0.0847-0.0529-0.11642-0.14817-0.0212-0.10583-0.0106-0.26458 0-0.35983-0.0741-0.635-0.0635-0.27516-0.1905-0.47625-0.127-0.21166-0.3175-0.37041t-0.4445-0.29634q0.97366-0.21166 1.5134-0.86783 0.53975-0.65616 0.58208-1.6722-0.0529-1.2277-0.83608-1.9367-0.78316-0.70908-2.1802-0.70908-1.4711 0-2.2754 0.70908-0.79375 0.70908-0.83608 1.9367v3.1327q0 0.48683-0.0212 0.81491-0.0106 0.3175-0.10583 0.51859-0.0847 0.19049-0.28575 0.27516-0.1905 0.0847-0.53975 0.0847v0.47625zm-0.96308-5.4927q0-0.52916 0.15875-0.87841 0.16933-0.35983 0.43392-0.5715 0.26458-0.21166 0.59266-0.29633 0.32808-0.0953 0.65616-0.0847 0.32809-0.0106 0.65617 0.0741 0.33866 0.0847 0.60325 0.29633 0.26458 0.21166 0.42333 0.5715 0.16933 0.35983 0.16933 0.88899v0.37042q0 0.52916-0.16933 0.889-0.15875 0.35983-0.42333 0.57149-0.26459 0.21167-0.60325 0.29634-0.32808 0.0847-0.65617 0.0741-0.31749 0.0106-0.63499-0.0635-0.3175-0.0847-0.58208-0.27517-0.254-0.20108-0.43392-0.51858-0.16933-0.32808-0.1905-0.81491z"/>
<path d="m212.09 320.99h3.1327v-0.47625q-0.34925 0-0.55034-0.0847-0.1905-0.0847-0.28575-0.27516-0.0847-0.20109-0.10583-0.51859-0.0106-0.32808-0.0106-0.81491v-1.3547h3.6936v1.3547q0 0.48683-0.0212 0.81491-0.0106 0.3175-0.10583 0.51859-0.0847 0.19049-0.28575 0.27516-0.1905 0.0847-0.53975 0.0847v0.47625h3.1327v-0.47625h-0.10583q-0.3175 0-0.48684-0.0847-0.16933-0.0847-0.25399-0.27516-0.0847-0.20109-0.10584-0.51859-0.0106-0.32808-0.0106-0.81491v-2.9845q0-0.64558-0.20108-1.1536-0.20109-0.51858-0.59267-0.87841-0.39158-0.35984-0.9525-0.55034-0.56091-0.20108-1.27-0.20108-1.5134 0-2.3177 0.75142-0.79375 0.74083-0.79375 2.032v2.9845q0 0.48683-0.0212 0.81491-0.0106 0.3175-0.0952 0.51859-0.0847 0.19049-0.254 0.27516-0.16933 0.0847-0.48683 0.0847l-0.10583 0.0318zm2.1802-5.4822q0-0.52917 0.15875-0.87842 0.16933-0.35983 0.43391-0.5715 0.26459-0.21166 0.59267-0.29633 0.32808-0.0953 0.65616-0.0847 0.32808-0.0106 0.65617 0.0741 0.33866 0.0847 0.60324 0.29633 0.26459 0.21167 0.42334 0.5715 0.16933 0.35983 0.16933 0.889v1.4711h-3.6936z"/>
<path d="m223.61 315.22q0-0.48683 0.0106-0.80433 0.0212-0.32809 0.10583-0.51858 0.0952-0.20109 0.28575-0.28575 0.20109-0.0847 0.55034-0.0847v-0.47625h-3.1327v0.47625h0.10583q0.3175 0 0.48683 0.0847 0.16934 0.0847 0.254 0.28575 0.0847 0.19049 0.0952 0.51858 0.0212 0.3175 0.0212 0.80433v3.5983q0 0.48683-0.0212 0.81491-0.0106 0.3175-0.10583 0.51859-0.0847 0.19049-0.28575 0.27516-0.1905 0.0847-0.53975 0.0847v0.47625h3.1327v-0.47625h-0.10583q-0.3175 0-0.48684-0.0847-0.16933-0.0847-0.254-0.27516-0.0847-0.20109-0.10583-0.51859-0.0106-0.32808-0.0106-0.81491z"/>
</g>
<g>
<path d="m166.34 317.18c0.75094-0.78035 1.0974-0.66095 1.5766-0.79794-0.74036 0.83633-0.51632 0.97738-0.62702 1.3598-0.12777-0.10374-0.2845-0.30097-0.51258-0.38556-0.14868-0.0571-0.32138-0.11112-0.43695-0.17625z" stroke="#000" stroke-width=".047115px"/>
<g transform="matrix(.27859 -.067573 .067573 .27859 133.54 291.9)">
<path d="m94.18 120.94c6.02 5.4861 11.913 3.6515 12.562 3.4294 3.452-1.4197 2.8436-4.1092 1.0141-5.4335-9.6749-6.8077-8.8748-8.9613-8.4691-10.882 2.4647-7.3633 8.6676-5.266 10.068-5.725-1.1748-2.1211-4.213-2.4116-4.213-2.4116 0.0914-0.04169 5.1529-1.6832 8.1085 2.3008 0.0694-0.77227 0.20315-1.5445 0.32995-2.3168 0.5616 0.83928 0.99794 1.6786 1.4124 2.5179 0.2382 0.94573 0.48394 1.6428 0.6087 2.7587 1.5285 1.0625 2.7442 1.96 4.3106 2.7634 0.55103 0.28263-0.85874 3.6946-0.9843 3.739-2.1363 2.5e-4 -9.2167-2.1459-9.2322-2.393-0.11437-1.8229-0.39516-2.7986-0.83714-2.9537-3.8339-0.36296-3.859 2.2882-3.8382 3.1906 0.28413 3.5814 6.9724 4.7809 9.6034 7.0278 5.7478 5.5559 0.1157 10.009-0.44751 10.445-6.1697 4.7431-10.364 3.485-11.227 3.3897-6.7152-1.2686-9.2006-4.6748-11.53-8.3931 0.69874-0.31621 2.3862-1.3741 2.7598-1.0538" fill="#fff" stroke="#000" stroke-width=".26458px"/>
<path d="m110.45 103.62c0.9546 0.11538 1.5998 0.56354 2.2143 1.0447 1.0371 0.844 1.39 1.3398 1.9008 1.916-2.7954 0.53937-4.5466-0.0407-4.1152-2.9607z" stroke="#000" stroke-width=".26458px"/>
</g>
<path d="m167.37 319.77c0.15884-0.0982 0.60633-0.33283 0.71192-0.42608-1.3328-0.67728-1.2071-1.7026-1.11-2.2688-0.28157 0.27895-0.88164 1.4887 0.39806 2.6949z" stroke-opacity="0"/>
<g transform="translate(66.783 181.26)" stroke="#000" stroke-width=".028426">
<path d="m75.73 129.77a0.36101 0.36101 0 0 1-0.15421-0.12342l-0.02712-0.0379a0.36297 0.36297 0 0 0-0.29534-0.15199h-0.16771a0.36297 0.36297 0 0 0-0.29534 0.15199l-0.02712 0.0379a0.36101 0.36101 0 0 1-0.15421 0.12343 5.1248 5.1248 0 0 0-0.54396 0.27004s-1.177 0.8374-1.5179 1.589c0 0 0.57704 0.93592 2.6223 0.93592s2.6421-0.94891 2.6421-0.94891c-0.32323-0.71255-1.4554-1.5284-1.4554-1.5284a5.182 5.182 0 0 0-0.62605-0.3176z"/>
<path d="m76.356 130.09c0.0036 0.24748-0.05256 0.92216-0.74504 1.1623a1.2292 1.2292 0 0 1-0.81912-6e-3c-0.7275-0.26348-0.73674-1.0132-0.72679-1.2042-0.51911 0.29594-1.2203 0.81013-1.5611 1.5617 0 0 0.62022 0.96307 2.6656 0.96307 2.0454 0 2.6656-0.96307 2.6656-0.96307-0.32334-0.71263-0.97043-1.2118-1.4792-1.5139z"/>
<path d="m78.086 130.56c-0.12567 0.26675-0.44998 0.8613-0.99746 1.256 0 0-0.32042 0.2848-0.5539 0.35248l0.86932 1.1806c0.09813 0.13423 0.24603 0.18636 0.38534 0.0956a0.68643 0.68643 0 0 1 0.08781-0.0396c0.39037-0.26865 1.0159-0.81298 1.2492-1.6586a0.47005 0.47005 0 0 0-0.11805-0.45692l-0.75345-0.75848a0.10452 0.10452 0 0 0-0.16882 0.0288z"/>
<circle cx="77.812" cy="131.76" r=".26069"/>
<path d="m72.254 130.56c0.12661 0.26868 0.45481 0.87006 1.0095 1.2646 0 0 0.32371 0.26848 0.55211 0.33454l-0.8777 1.2014c-0.09812 0.13422-0.26263 0.16828-0.40191 0.0775l-0.0718-0.0321c-0.39031-0.26834-1.0169-0.81298-1.2505-1.6594a0.47005 0.47005 0 0 1 0.11805-0.45692l0.75345-0.75848a0.10452 0.10452 0 0 1 0.16882 0.0288z"/>
<circle cx="72.528" cy="131.76" r=".26069"/>
<path d="m72.536 133.46a0.31234 0.31234 0 0 0 0.42315-0.0765l0.91596-1.2528a2.0266 2.0266 0 0 1-0.61189-0.30034c-0.0033 3e-3 -0.0066 7e-3 -0.0096 0.0103-0.0703 0.0833-0.17954 0.25779-0.18272 0.53958a0.17476 0.17476 0 0 0 0.03667 0.10875 0.17399 0.17399 0 0 1-0.0015 0.21507l-0.51658 0.64737a0.15469 0.15469 0 0 1-0.12564 0.0603c0.02507 0.0173 0.04923 0.0334 0.0722 0.0484z"/>
<path d="m77.771 133.35-0.51655-0.6474a0.17391 0.17391 0 0 1-0.0015-0.21507 0.17473 0.17473 0 0 0 0.03664-0.10875c-0.0032-0.28179-0.1124-0.45624-0.18272-0.53958a0.16623 0.16623 0 0 0-0.01876-0.0187 2.0318 2.0318 0 0 1-0.62398 0.30876l0.91596 1.2529a0.31234 0.31234 0 0 0 0.42315 0.0766q0.03505-0.0227 0.07345-0.0492a0.15495 0.15495 45 0 1-0.10569-0.0595z"/>
<path d="m76.776 131.78a0.63105 0.63105 0 0 0-0.14437-0.0794 0.42451 0.42451 0 0 0-0.28116-9e-3l-1.1808 0.37028-1.1808-0.37028a0.42451 0.42451 0 0 0-0.28116 9e-3 0.63361 0.63361 0 0 0-0.10594 0.0533c0.10608 0.15134 0.55092 0.68157 1.5785 0.68157 0.8812 0 1.3886-0.42852 1.5957-0.65553z"/>
<path d="m77.25 128.1a1.191 1.191 0 0 0-0.48324 0.35854 0.43287 0.43287 0 0 1-0.39728 0.15193 0.70124 0.70124 0 0 0-0.1842-4.8e-4 0.1998 0.1998 0 0 0-0.10694 0.34566c0.78308 0.71411 0.38091 1.7919 0.38091 1.7919-0.32673 0.9057-1.2897 0.83114-1.2897 0.83114s-0.96295 0.0747-1.2898-0.831c0 0-0.40217-1.0778 0.3809-1.7919a0.1998 0.1998 0 0 0-0.10694-0.34566 0.70124 0.70124 0 0 0-0.1842 4.9e-4 0.43287 0.43287 0 0 1-0.39728-0.15194 1.191 1.191 0 0 0-0.48324-0.35853 0.14119 0.14119 0 0 0-0.17601 0.20074l0.0063 0.0111a1.5894 1.5894 0 0 1 0.19136 0.92384c-0.06063 0.66988-0.10094 2.9106 2.0589 3.0067 2.1598-0.0961 2.1195-2.3368 2.0588-3.0068a1.5894 1.5894 0 0 1 0.19136-0.92384c0.0021-4e-3 0.0042-7e-3 0.0063-0.0111a0.14119 0.14119 0 0 0-0.17604-0.20075z"/>
<path d="m75.5 131.98a0.64456 0.64456 0 0 0 0.25424-0.50188 1.4716 1.4716 0 0 1-0.58418 0.0986 1.4716 1.4716 0 0 1-0.58418-0.0984 0.64456 0.64456 0 0 0 0.25424 0.50189 0.61613 0.61613 0 0 0 0.32994 0.11728 0.61613 0.61613 0 0 0 0.32994-0.11743z"/>
<path d="m78.726 132a0.1137 0.1137 0 1 1 0-0.22741 0.11333 0.11333 45 0 1 0.08044 0.0333 0.11385 0.11385 0 0 1-0.08044 0.19415z"/>
<path d="m78.346 132.59a0.11504 0.11504 0 0 1-0.08045-0.0333 0.11635 0.11635 0 0 1-0.01393-0.0173 0.11464 0.11464 0 0 1-0.01706-0.0409 0.10921 0.10921 0 0 1 0-0.0443 0.11464 0.11464 0 0 1 0.01706-0.0409 0.10253 0.10253 0 0 1 0.03127-0.0313 0.11464 0.11464 0 0 1 0.04093-0.0171 0.10597 0.10597 0 0 1 0.04435 0 0.11464 0.11464 0 0 1 0.04093 0.0171 0.11635 0.11635 0 0 1 0.01734 0.0139 0.13983 0.13983 0 0 1 0.01421 0.0173 0.1286 0.1286 0 0 1 0.01023 0.0196 0.10893 0.10893 0 0 1 0.0065 0.0213 0.10921 0.10921 0 0 1 0 0.0443 0.10893 0.10893 0 0 1-0.0065 0.0213 0.1286 0.1286 0 0 1-0.01023 0.0196 0.1137 0.1137 0 0 1-0.03155 0.0316 0.1286 0.1286 0 0 1-0.01961 0.0102 0.10893 0.10893 0 0 1-0.02132 7e-3 0.11737 0.11737 0 0 1-0.02217 2e-3z"/>
<path d="m77.864 133.08a0.11797 0.11797 0 0 1-0.02246-2e-3 0.11245 0.11245 0 0 1-0.02103-7e-3 0.10233 0.10233 0 0 1-0.0199-0.0105 0.11407 0.11407 0 0 1-0.01705-0.0139 0.10248 0.10248 0 0 1-0.01421-0.0173 0.13016 0.13016 0 0 1-0.01052-0.0196 0.10893 0.10893 0 0 1-0.0065-0.0213 0.10924 0.10924 0 0 1 0-0.0443 0.11464 0.11464 0 0 1 0.01706-0.0409 0.092412 0.092412 0 0 1 0.01421-0.0173 0.13701 0.13701 0 0 1 0.01706-0.0142 0.11939 0.11939 0 0 1 0.0199-0.0102 0.11245 0.11245 0 0 1 0.02103-7e-3 0.10734 0.10734 0 0 1 0.04463 0 0.12223 0.12223 0 0 1 0.02132 7e-3 0.1286 0.1286 0 0 1 0.01961 0.0102 0.13701 0.13701 0 0 1 0.01705 0.0142 0.105 0.105 0 0 1 0.01421 0.0173 0.11464 0.11464 0 0 1 0.01706 0.0409 0.10924 0.10924 0 0 1 0 0.0443 0.11464 0.11464 0 0 1-0.01706 0.0409 0.11828 0.11828 0 0 1-0.01421 0.0173 0.11407 0.11407 0 0 1-0.01706 0.0139 0.10881 0.10881 0 0 1-0.01961 0.0105 0.12223 0.12223 0 0 1-0.02132 7e-3 0.11737 0.11737 0 0 1-0.02217 2e-3z"/>
<path d="m71.613 132a0.11404 0.11404 0 1 1 0.08045-0.0335 0.1137 0.1137 0 0 1-0.08045 0.0335z"/>
<path d="m71.994 132.59a0.11737 0.11737 0 0 1-0.02217-2e-3 0.10893 0.10893 0 0 1-0.02132-7e-3 0.1286 0.1286 0 0 1-0.01961-0.0102 0.1137 0.1137 0 0 1-0.03155-0.0316 0.1286 0.1286 0 0 1-0.01023-0.0196 0.10893 0.10893 0 0 1-0.0065-0.0213 0.10924 0.10924 0 0 1 0-0.0443 0.10893 0.10893 0 0 1 0.0065-0.0213 0.1286 0.1286 0 0 1 0.01023-0.0196 0.13983 0.13983 0 0 1 0.01421-0.0173 0.11635 0.11635 0 0 1 0.01734-0.0139 0.11464 0.11464 0 0 1 0.04093-0.0171 0.106 0.106 0 0 1 0.04434 0 0.11464 0.11464 0 0 1 0.04093 0.0171 0.11635 0.11635 0 0 1 0.01734 0.0139 0.13983 0.13983 0 0 1 0.01421 0.0173 0.1286 0.1286 0 0 1 0.01023 0.0196 0.10893 0.10893 0 0 1 0.0065 0.0213 0.10921 0.10921 0 0 1 0 0.0443 0.10893 0.10893 0 0 1-0.0065 0.0213 0.1286 0.1286 0 0 1-0.01023 0.0196 0.1137 0.1137 0 0 1-0.03155 0.0316 0.1286 0.1286 0 0 1-0.01961 0.0102 0.10893 0.10893 0 0 1-0.02132 7e-3 0.11737 0.11737 0 0 1-0.02217 2e-3z"/>
<path d="m72.476 133.08a0.11356 0.11356 0 0 1-0.11342-0.1137 0.11694 0.11694 0 0 1 2e-3 -0.0222 0.11464 0.11464 0 0 1 0.01705-0.0409 0.092412 0.092412 0 0 1 0.01421-0.0173 0.1143 0.1143 0 0 1 0.10262-0.031 0.11245 0.11245 0 0 1 0.02104 7e-3 0.10165 0.10165 0 0 1 0.03695 0.0245 0.092412 0.092412 0 0 1 0.01421 0.0173 0.11464 0.11464 0 0 1 0.01705 0.0409 0.10921 0.10921 0 0 1 0 0.0443 0.11464 0.11464 0 0 1-0.01705 0.0409 0.10248 0.10248 0 0 1-0.01421 0.0173 0.11453 0.11453 0 0 1-0.08044 0.0332z"/>
<path d="m77.028 132.9 0.13528 0.18502a3.6965 3.6965 0 0 0 1.6814-1.9556l-0.17996-0.18116a3.5143 3.5143 0 0 1-1.6367 1.9517z"/>
<path d="m71.675 130.95-0.17996 0.18116a3.6965 3.6965 0 0 0 1.6814 1.9557l0.13528-0.18502a3.5143 3.5143 0 0 1-1.6367-1.9518z"/>
<path d="m75.564 131.16c-0.14054-0.21572-0.39395-0.21652-0.39395-0.21652s-0.25342 8e-4 -0.39392 0.21652a0.48483 0.48483 0 0 0 0.12834 0.65829 0.51471 0.51471 0 0 0 0.26558 0.0892 0.51491 0.51491 0 0 0 0.26561-0.0892 0.48489 0.48489 0 0 0 0.12834-0.65829z"/>
</g>
</g>
</g>
<g transform="matrix(.24679 0 0 .24679 166.32 286.4)">
<path d="m151.8 129.74c-0.14924 1.3408-0.68032 2.6979-0.65457 3.9934-1.276 2.4463-1.2031 3.0964-2.0654 4.6256-0.20004 0.40243-0.86594 0.9426-0.67442 1.207 0.18273 0.25229 0.85471 0.40903 1.3894 0.69146 0.43329 0.22887 1.3914 0.91263 1.695 0.99612 1.2742 0.43847 1.5414-0.19804 0.72892-0.94496-0.58678-0.51113-1.9278-1.2391-1.5636-1.819 1.2655-2.015 1.6804-3.7137 2.0688-3.8331 0.53859-0.60845 0.35098-0.83808 0.38784-1.1298 0.58692-0.83774 0.89187-1.6798 0.91695-2.6358" fill="#fff" stroke="#fff" stroke-width=".26458px"/>
<path d="m152.88 115.9c0.37191 7e-3 0.36247-0.55885 0.23213-0.71688-0.66109-0.95269-0.19055-1.3827 0.21221-1.3291 0.21997 0.0305 0.28317 0.47993 0.54727 0.40207 0.36193-0.10671 0.24748-0.78389 0-1.0387-1.2759-1.3136-1.6352-1.457-1.6018-1.5348 0.56225-1.3076 3.0537-0.5203 3.0537-0.5203-0.0881-1.4153-0.28849-1.1736-0.78182-1.3291-1.1556-0.15526-1.477 0.20634-2.0662 0.48026-0.33191-0.10889-0.38491 0.0365-0.48004 0.15297-1.264 0.36034-1.0728 0.95539-0.50544 1.6111-1.0107 2.1784 0.042 3.2877 0.8416 3.6675 0.21679 0.10299 0.41498 0.15236 0.54837 0.15487z" stroke="#fff" stroke-width=".26458px"/>
<g fill="#fff" stroke-width=".26458px">
<path d="m152.95 111.09c-0.26762-0.19679-0.38587-0.54613-0.47699-0.84588-0.39971 4.2e-4 -0.41787 0.0657-0.48004 0.15297 0.0819 0.40226 0.22031 0.80953 0.46561 1.0336z" stroke="#fff"/>
<g stroke="#000">
<path d="m152.88 115.9c-0.16406-0.0241-0.39791-0.093-0.61788-0.18764 0.0257 0.27513-0.0565 0.63194 0.0515 0.9227 0.61123 0.30939 1.2056 0.75458 1.787 1.3766 0.085-0.58642-0.0981-1.2914 0.14614-1.5971 0.23618-0.29563 0.68504 0.14052 1.0936 0.36016 0.3096 0.16645 0.53259-0.0304 0.65896-0.22896 0.11807-0.60022 0.3976-1.2221 0.84324-1.7479 0.11429-0.1787 0.0483-0.3574-0.0112-0.5361-0.23382-0.35018-0.20713-0.49568-0.24571-0.69246-0.1-1.2217-0.55333-1.9865-1.2621-2.4069-0.94473-0.31413-1.6873-0.33497-2.338-0.13409-0.13096 0.0639-0.33013 0.20104-0.56181 0.40321-0.24785 0.2483-0.19644 0.28749-0.0223 0.44675 0.53798 0.42809 1.0798 0.92939 1.5652 1.4732 0.138 0.27394 0.16157 0.48024 0.0772 0.74237-0.19527 0.29571-0.36188 0.12469-0.41222 0.0338-0.0394-0.0958-0.10997-0.22178-0.23455-0.26805-0.32951-0.12237-0.64504 0.0917-0.62545 0.45234 0.0243 0.4482 0.18273 0.65927 0.34065 0.87116 0.15154 0.30776 0.0797 0.63439-0.23215 0.71689z"/>
<path d="m165.42 117.25 1.4646-1.3554c0.14845-0.12795 0.33911-0.15812 0.47526-0.0552l0.81713 0.88439c0.17968 0.22024 0.0123 0.50733-0.0881 0.7067-0.17617 0.39119-0.56368 0.73898-1.0928 1.0443-0.34307-0.31867-0.97684-0.76581-1.576-1.2247z"/>
<path d="m165.03 114.67c-0.32322 0.40689-0.12023 0.46639-0.0353 0.58816l0.88339 0.93139c0.17834 0.16884 0.3615 0.30326 0.5959 0.0719l0.45521-0.43693c0.20484-0.20942 0.18287-0.35276 0.0488-0.46342l-1.1279-1.1222c-0.26639-0.29297-0.45313 0.0375-0.82005 0.43113z"/>
<path d="m168.11 117.5 0.59486 0.65383c0.19898 0.25809 0.11621 0.46498-0.0197 0.61601l-0.44218 0.42732c-0.14436 0.16866-0.38061 0.11356-0.50997-0.0132l-0.7318-0.70324c0.42183-0.27609 0.85663-0.5263 1.1088-0.98074z"/>
<path d="m164.22 115.54 1.3472 1.5392 0.64501-0.57574c-0.4801-0.50189-1.0101-0.95602-1.4393-1.5243-0.21992 0.20725-0.34696 0.35199-0.55296 0.56082z"/>
<path d="m165.86 113.79-2.2584 2.1593c-0.13945 0.13455-0.3112 0.0972-0.40264-0.0178l-0.30049-0.3715c-0.0648-0.11078-0.076-0.2351 0.0974-0.41044l2.2074-2.0077c0.13618-0.1275 0.27826-0.18488 0.43973-0.0117l0.26243 0.31096c0.084 0.0827 0.13226 0.17759-0.045 0.34893z"/>
</g>
<path d="m163.74 114.42c-5.2972-4.2407-10.565-6.7204-15.231-9.2064 0.85549-0.84603 1.8342-0.31006 3.602 0.62943 2.5851 1.4569 8.4531 4.3506 12.463 7.8542z" stroke="#fff"/>
</g>
<path d="m150.37 106.19c2.1995 1.1672 8.7741 4.5812 13.365 8.2302l0.83368-0.7227c-0.41904-0.36901-0.86782-0.72446-1.3193-1.0605-0.16552 0.19642-0.20609 0.32725-0.19978 0.6086-3.8624-2.9658-7.8598-5.1179-11.342-7.0251-0.33973-0.14919-1.1485-0.36373-1.3371-0.0305z" stroke="#fff" stroke-width=".26458px"/>
<g fill="#fff" stroke-width=".26458px">
<path d="m163.27 118.66c0.56988 1.169 1.1437 2.1852 1.4814 3.5216l-0.66956 0.16794c-0.38609-1.256-0.7522-2.2534-1.3467-3.3801z" stroke="#fff"/>
<path d="m165.42 117.25c-0.38432 0.34988-0.81676 0.6463-1.2899 0.89753l1.0725 1.7793c0.5925-0.48531 1.043-1.0052 1.7934-1.4521z" stroke="#000"/>
<path d="m164.22 115.54c-0.15424 0.3073-0.70169 0.58793-0.85592 0.79685l0.47879 1.8091c1.0351-0.54092 1.005-0.62127 1.7243-1.0668z" stroke="#000"/>
</g>
<path d="m148.4 138.7c-0.16798 0.23951-0.2857 0.48031-0.33636 0.80374 0.57758 0.81468 2.5389 1.4211 3.4674 2.1521 0.70439 0.55457 1.5785 0.62645 1.5502 0.37282-0.22019-1.9746-1.5407-2.2681-1.9535-2.661-0.71565-0.52116-8e-3 -1.3755 0.40327-1.8259-1.2199-0.64016-2.0055-1.0957-2.0055-1.0957-0.20895 0.80328-0.61972 1.5952-1.1255 2.254z" stroke="#fff" stroke-width=".25474px"/>
<path d="m163 118.82-0.79674-1.2516c-0.13304 0.1081-0.26183 0.21406-0.42477 0.33726l0.73477 1.1891z" fill="#fff" stroke="#fff" stroke-width=".26458px"/>
<path d="m151.55 131.56c1.3636 1.3357 2.1993 2.6234 4.8369 3.3436-0.416 3.5205 0.52627 4.3001 0.70389 6.382 0.19492 0.65764-0.50747 1.5232-0.0632 1.7059 1.0115 0.41587 2.6277-0.15435 3.9859 0.11727 1.4687 9e-3 0.86282-1.0996-0.0503-1.2398-1.0816-0.47664-2.5256-0.143-2.4454-0.5427 0.53712-2.6774 0.10667-4.2664 0.0892-6.485 0.18625-0.9213-0.44645-1.5258-1.1261-1.7767-0.55189-0.54941-0.97183-1.0047-1.3517-1.4121" fill="#fff" stroke="#000" stroke-width=".26458px"/>
<g stroke="#fff" stroke-width=".26458px">
<path d="m156.76 142.23c-0.0163 0.28347-0.0212 0.57688 0.0945 0.8926 0.93812 0.4333 3.0408-0.0302 4.2587 0.14802 0.924 0.13522 1.7616-0.24903 1.6085-0.46171-1.1919-1.6558-2.55-1.2409-3.1256-1.381-0.91759-0.0995-0.69664-1.2282-0.54562-1.8426-1.4396 0.0527-2.3885 0.0479-2.3885 0.0479 0.27476 0.60261 0.18512 2.0788 0.0979 2.5968z"/>
<path d="m152.31 116.63c-0.20192 0.077-0.40369 0.15398-0.46025 0.26003-0.0533 0.36306-0.0517 0.74443-0.0158 1.1372-0.50499 0.17015-0.60546 0.42121-0.67129 0.67919-0.1526 0.16509-0.3006 0.28871-0.48175 0.71077-0.0671 1.4393-0.12112 2.8852-0.24482 4.2962 0.18489 0.69518 0.54951 1.0608 0.90822 1.4374 0.0496 0.32699 0.0126 0.65691-0.0474 1.2083-1.3238 2.238-1.1074 3.8147-1.2034 5.4749 1.8769-0.15783 5.1642-0.0649 7.3226 0.0295-0.81822-1.7538-0.76456-4.4956-2.5708-5.5167l0.0335-1.1616c0.28909-0.0388 0.82623-0.0588 0.76995-1.1746 0.0323-0.70663 0.72272-3.1291-1.5518-6.0041-0.65792-0.69896-1.2324-1.0761-1.787-1.3766z"/>
<path d="m153.27 121.44c1.3769 0.49639 5.6598 1.9764 7.3824 1.63 1.8984-0.51471 4.0053-0.63749 5.2449-1.3403 0.0388-1.1079-1.1163-2.2813-1.762-3.5759-1.344 0.58065-2.857 1.8704-3.8653 2.3775-1.8096 0.92002-4.2496-1.2404-6.4543-1.6365-3.4766 0.41453-1.233 2.3348-0.5457 2.5453z"/>
<path d="m163.36 116.34c-1.1315 1.3181-2.3817 2.1906-3.4029 2.7928-3.1578 0.99414-4.2428-0.48079-5.8609-1.121 0.16613 0.26517 0.343 0.72189 0.57141 1.1228 0.45603 0.12707 1.0287 0.40185 1.5128 0.61654 1.0247 0.39996 3.1016 1.5996 4.3891 0.60681 0.96585-0.52309 1.597-1.1549 3.3006-2.0894-0.17444-0.68837-0.34488-1.3855-0.51008-1.9286z"/>
</g>
<path d="m154.85 126.35c-1.1828-0.0635-2.3656-0.0428-3.5484 0.0123 0.057-0.40275 0.10726-0.80551 0.0474-1.2083 1.1698 0.0785 2.3498 0.0747 3.5345 0.0344-0.0112 0.39974-0.0223 0.79146-0.0335 1.1616z" fill="#fff" stroke="#fff" stroke-width=".26458px"/>
</g>
</g>
</svg>
