<svg width="225" height="62" viewBox="0 0 225 62" fill="none" xmlns="http://www.w3.org/2000/svg">
<g clip-path="url(#clip0_10_690)">
<path d="M56.7934 14.4133C56.7934 13.2137 56.6062 12.1421 56.2319 11.1981C55.8575 10.2345 55.3058 9.41843 54.5768 8.74984C53.8477 8.08124 52.961 7.56989 51.9167 7.21592C50.8724 6.84228 49.6902 6.6554 48.37 6.6554C45.5524 6.6554 43.3949 7.35363 41.8975 8.74984C40.4197 10.1264 39.6807 12.0141 39.6807 14.4133V21.0501C39.6807 23.4492 40.4197 25.3469 41.8975 26.7431C43.3949 28.1196 45.5525 28.8078 48.37 28.8078C49.6902 28.8078 50.8724 28.6308 51.9167 28.2768C52.961 27.9032 53.8477 27.3821 54.5768 26.7135C55.3058 26.0449 55.8575 25.2387 56.2319 24.2948C56.6062 23.3313 56.7934 22.2495 56.7934 21.0499V14.4133ZM43.0797 21.9644V13.4989C43.0797 12.5157 43.2275 11.6995 43.5231 11.0506C43.8383 10.382 44.2422 9.85096 44.7348 9.45768C45.2274 9.06438 45.7792 8.78908 46.39 8.63178C47.0008 8.45489 47.6116 8.37615 48.2224 8.39566C48.8332 8.37596 49.444 8.44497 50.0549 8.60235C50.6854 8.75973 51.2469 9.03502 51.7395 9.42825C52.2321 9.82155 52.6262 10.3524 52.9218 11.021C53.237 11.6896 53.3947 12.5155 53.3947 13.4987V21.9644C53.3947 22.9477 53.237 23.7735 52.9218 24.4421C52.6262 25.1108 52.2321 25.6418 51.7395 26.0351C51.2469 26.4284 50.6854 26.7037 50.0549 26.861C49.444 27.0184 48.8332 27.0872 48.2224 27.0675C47.6116 27.0872 47.0008 27.0184 46.39 26.861C45.7792 26.6841 45.2274 26.3989 44.7348 26.0055C44.2422 25.6122 43.8383 25.0911 43.5231 24.4421C43.2275 23.7735 43.0797 22.9477 43.0797 21.9644Z" fill="white"/>
<path d="M64.7246 17.7857C64.7246 14.836 65.3257 12.5648 66.5276 10.972C67.7295 9.3595 69.355 8.55317 71.4041 8.55317C72.9016 8.55317 74.1725 8.97595 75.2167 9.82153C76.2807 10.6671 77.0886 12.0633 77.6403 14.0101H78.527C78.3496 13.2038 78.2313 12.4271 78.1723 11.6799C78.1328 10.9129 78.1034 10.2443 78.0838 9.67405C78.0641 9.08412 78.0443 8.62193 78.0246 8.28762C78.0246 7.93365 77.9655 7.75669 77.8472 7.75669C77.3743 7.75669 76.8522 7.69776 76.2808 7.57977C75.7094 7.46179 75.1183 7.33399 74.5075 7.19634C73.9164 7.03896 73.3153 6.90124 72.7045 6.7833C72.0937 6.66531 71.5124 6.60638 70.9607 6.60638C69.4829 6.60638 68.1234 6.88168 66.8821 7.43229C65.6604 7.98291 64.5964 8.75962 63.69 9.7625C62.7836 10.7458 62.0743 11.9354 61.562 13.3317C61.0694 14.7082 60.8231 16.2323 60.8231 17.9038C60.8231 19.2017 60.9807 20.4406 61.296 21.6205C61.6113 22.7807 62.0842 23.8426 62.7147 24.8062C63.3452 25.7501 64.1235 26.5662 65.0495 27.2544C65.9756 27.923 67.0495 28.395 68.2712 28.6703C69.1381 28.8866 70.015 28.9947 70.9017 28.9947C71.4534 28.9947 72.0346 28.9358 72.6455 28.8178C73.2563 28.6998 73.8572 28.5719 74.4483 28.4342C75.0592 28.2768 75.6503 28.1392 76.2217 28.0213C76.7931 27.9033 77.3153 27.8444 77.7882 27.8444C77.9064 27.8444 77.9655 27.6772 77.9655 27.3429C77.9853 26.9889 78.005 26.5267 78.0248 25.9565C78.0445 25.3665 78.0741 24.6979 78.1136 23.9507C78.1726 23.1837 78.2908 22.3971 78.4682 21.5909H77.5815C77.0298 23.5376 76.2219 24.9338 75.1579 25.7794C74.1136 26.625 72.8428 27.0478 71.3453 27.0478C71.2469 27.1067 71.0498 27.1166 70.7542 27.0774C70.4784 27.038 70.173 26.9888 69.838 26.9299C69.5228 26.8513 69.2272 26.7628 68.9513 26.6645C68.6755 26.5662 68.4982 26.468 68.4194 26.3697C67.2568 25.7011 66.3505 24.6194 65.7002 23.1248C65.05 21.6302 64.7249 19.8505 64.7249 17.7857H64.7246Z" fill="white"/>
<path d="M84.8041 6.6651V7.9925C85.4543 7.9925 85.9568 8.07106 86.3115 8.22844C86.6858 8.38583 86.9518 8.65135 87.1094 9.02492C87.2869 9.37888 87.3854 9.8606 87.405 10.4702C87.4445 11.0601 87.4642 11.8076 87.4642 12.7121V22.0036C87.4642 22.9672 87.3164 23.7733 87.0209 24.4222C86.7253 25.0712 86.3411 25.6022 85.8682 26.0152C85.3953 26.4085 84.8731 26.6935 84.3017 26.8705C83.7303 27.0279 83.1786 27.1066 82.6466 27.1066C82.4298 27.1066 82.223 27.0967 82.026 27.077C81.8289 27.0377 81.6319 26.9984 81.4348 26.9592V28.788C81.5925 28.8077 81.76 28.8176 81.9373 28.8176C82.1146 28.8373 82.3017 28.8471 82.4989 28.8471C83.819 28.8471 84.9914 28.6701 86.016 28.3162C87.0603 27.9425 87.9371 27.4214 88.6464 26.7528C89.3755 26.0842 89.9272 25.278 90.3016 24.3341C90.6759 23.3706 90.8631 22.2888 90.8631 21.0892V12.712C90.8631 11.8861 90.873 11.188 90.8927 10.6177C90.9124 10.0277 90.9814 9.5558 91.0996 9.20184C91.2179 8.82821 91.405 8.55292 91.6612 8.37593C91.9173 8.19904 92.272 8.10071 92.7252 8.08096H98.0157V22.741C98.0157 23.6456 97.996 24.4026 97.9565 25.0122C97.9367 25.6021 97.848 26.084 97.6903 26.4577C97.5326 26.8116 97.2962 27.0672 96.981 27.2245C96.6657 27.3819 96.2126 27.4606 95.6215 27.4606H95.3259V28.788H104.075V27.4606C103.424 27.4606 102.912 27.3819 102.538 27.2245C102.183 27.0672 101.917 26.8116 101.74 26.4577C101.582 26.084 101.483 25.6021 101.444 25.0122C101.424 24.4026 101.414 23.6456 101.414 22.741V8.08096H104.074V6.6651H84.8041Z" fill="white"/>
<path d="M113.401 17.5906H121.47V16.2338H113.401L113.372 8.85956H122.268C122.761 8.85956 123.135 8.8792 123.391 8.91859C123.647 8.95798 123.825 9.06626 123.923 9.24317C124.041 9.40055 124.1 9.65613 124.1 10.01C124.12 10.364 124.15 10.8654 124.189 11.5144H125.519V6.6474L107.342 6.677V8.0044C107.993 8.0044 108.495 8.08313 108.85 8.24051C109.224 8.3979 109.49 8.66325 109.648 9.03682C109.825 9.39078 109.924 9.87267 109.943 10.4823C109.983 11.0722 110.003 11.8195 110.003 12.724V26.5878H107.343V28.8001H125.549V23.9332H124.219C124.179 24.5821 124.15 25.0837 124.13 25.4377C124.13 25.7916 124.071 26.057 123.953 26.234C123.854 26.3913 123.677 26.4897 123.421 26.5289C123.165 26.5683 122.79 26.5881 122.298 26.5881H113.401L113.401 17.5906Z" fill="white"/>
<path d="M130.241 6.7486V8.07599C130.891 8.07599 131.394 8.15473 131.748 8.31211C132.123 8.46949 132.389 8.73484 132.546 9.10841C132.724 9.46238 132.822 9.94427 132.842 10.5539C132.882 11.1438 132.901 11.8911 132.901 12.7956V21.9988C132.901 23.2573 132.645 24.2603 132.133 25.0076C131.64 25.7352 131.049 26.2661 130.359 26.6004H128.675V31.4967H130.005V30.5824C130.024 30.0908 130.084 29.7172 130.182 29.4615C130.281 29.2255 130.487 29.0583 130.803 28.96C131.138 28.8617 131.611 28.8125 132.221 28.8125C132.852 28.8125 133.689 28.8125 134.734 28.8125H146.97C147.462 28.8125 147.837 28.8323 148.093 28.8717C148.349 28.9111 148.526 29.0094 148.625 29.1667C148.743 29.3436 148.802 29.6089 148.802 29.963C148.822 30.317 148.852 30.8185 148.891 31.4675H150.221V26.6005H146.822L146.793 8.16462H149.512V6.74877L130.241 6.7486ZM136.3 21.0842V12.7956C136.3 11.9697 136.31 11.2716 136.33 10.7014C136.349 10.1114 136.418 9.63947 136.537 9.2855C136.655 8.91188 136.842 8.63658 137.098 8.4596C137.354 8.28271 137.709 8.18439 138.162 8.16462H143.453V26.6004H134.261C134.596 26.4235 134.891 26.1482 135.147 25.7745C135.404 25.3812 135.611 24.9387 135.768 24.4471C135.945 23.9358 136.073 23.395 136.152 22.8247C136.251 22.2347 136.3 21.6547 136.3 21.0844V21.0842Z" fill="white"/>
<path d="M153.728 27.5407H154.023C154.614 27.5407 155.067 27.462 155.383 27.3046C155.698 27.1472 155.934 26.8916 156.092 26.5377C156.25 26.1641 156.338 25.6822 156.358 25.0923C156.398 24.4827 156.417 23.7257 156.417 22.8211V6.71558H159.816V16.3318H166.644V6.71558H170.043V22.8211C170.043 23.7257 170.053 24.4827 170.072 25.0923C170.112 25.6822 170.21 26.1641 170.368 26.5377C170.545 26.8917 170.811 27.1473 171.166 27.3046C171.54 27.462 172.052 27.5407 172.703 27.5407V28.8681H163.954V27.5407H164.25C164.841 27.5407 165.294 27.462 165.609 27.3046C165.925 27.1472 166.161 26.8916 166.319 26.5377C166.476 26.1641 166.565 25.6822 166.585 25.0923C166.624 24.4827 166.644 23.7257 166.644 22.8211V17.6886H159.817V22.8211C159.817 23.7257 159.826 24.4827 159.846 25.0923C159.886 25.6822 159.984 26.1641 160.142 26.5377C160.319 26.8917 160.585 27.1473 160.94 27.3046C161.314 27.462 161.826 27.5407 162.477 27.5407V28.8681H153.728L153.728 27.5407Z" fill="white"/>
<path d="M179.085 12.6852C179.085 11.7806 179.065 11.0334 179.026 10.4435C179.006 9.83385 178.908 9.35214 178.73 8.99817C178.573 8.62455 178.307 8.35902 177.932 8.2017C177.578 8.04432 177.075 7.96558 176.425 7.96558V6.63818H185.174V7.96558H184.878C184.287 7.96558 183.834 8.04432 183.519 8.2017C183.203 8.35908 182.967 8.6246 182.809 8.99817C182.652 9.35214 182.553 9.83385 182.514 10.4435C182.494 11.0334 182.484 11.7806 182.484 12.6852V21.2984L192.622 9.97139C192.523 9.2438 192.287 8.73245 191.912 8.43748C191.558 8.1425 190.937 7.99501 190.05 7.99501V6.66778H198.799V7.99501H198.504C197.755 7.99501 197.193 8.13275 196.819 8.40805C196.444 8.68336 196.208 9.14553 196.11 9.79447V22.7437C196.11 23.6483 196.119 24.4055 196.139 25.0151C196.179 25.605 196.277 26.0867 196.435 26.4603C196.612 26.8143 196.878 27.0701 197.233 27.2274C197.607 27.3848 198.119 27.4633 198.77 27.4633V28.7907H190.021V27.4633H190.317C190.908 27.4633 191.361 27.3848 191.676 27.2274C191.991 27.07 192.228 26.8143 192.385 26.4603C192.543 26.0867 192.632 25.605 192.652 25.0151C192.691 24.4055 192.711 23.6483 192.711 22.7437V14.5434C191.45 15.8609 189.952 17.4833 188.218 19.4103C186.504 21.3178 184.662 23.5302 182.691 26.0471C182.849 26.5584 183.105 26.9221 183.46 27.1384C183.834 27.3351 184.396 27.4334 185.144 27.4334V28.7608H176.396V27.4334H176.691C177.282 27.4334 177.736 27.3547 178.051 27.1973C178.366 27.0399 178.602 26.7843 178.76 26.4304C178.918 26.0568 179.007 25.5751 179.026 24.9851C179.066 24.3755 179.086 23.6183 179.086 22.7138L179.085 12.6852Z" fill="white"/>
<path d="M205.225 12.6853C205.225 11.7807 205.205 11.0334 205.166 10.4435C205.146 9.83389 205.047 9.35217 204.87 8.99821C204.712 8.62458 204.446 8.35906 204.072 8.20173C203.717 8.04435 203.215 7.96562 202.565 7.96562V6.63822H211.313V7.96562H211.018C210.427 7.96562 209.973 8.04435 209.658 8.20173C209.343 8.35911 209.106 8.62464 208.949 8.99821C208.791 9.35217 208.693 9.83389 208.653 10.4435C208.633 11.0334 208.624 11.7807 208.624 12.6853V21.2984L218.761 9.97143C218.663 9.24383 218.426 8.73248 218.052 8.43751C217.697 8.14254 217.077 7.99505 216.19 7.99505V6.66782H224.939V7.99505H224.643C223.894 7.99505 223.333 8.13279 222.958 8.40808C222.584 8.6834 222.348 9.14557 222.249 9.79451V22.7437C222.249 23.6483 222.259 24.4055 222.279 25.0151C222.318 25.605 222.417 26.0868 222.574 26.4604C222.751 26.8143 223.017 27.0701 223.372 27.2274C223.747 27.3848 224.259 27.4634 224.909 27.4634V28.7908H216.161V27.4634H216.456C217.047 27.4634 217.501 27.3848 217.816 27.2274C218.131 27.07 218.368 26.8143 218.525 26.4604C218.683 26.0868 218.771 25.605 218.791 25.0151C218.831 24.4055 218.85 23.6483 218.85 22.7437V14.5434C217.589 15.8609 216.092 17.4833 214.358 19.4104C212.643 21.3179 210.801 23.5302 208.831 26.0472C208.988 26.5584 209.245 26.9221 209.599 27.1385C209.974 27.3351 210.535 27.4334 211.284 27.4334V28.7608H202.535V27.4334H202.831C203.422 27.4334 203.875 27.3547 204.191 27.1973C204.506 27.0399 204.742 26.7843 204.9 26.4304C205.058 26.0568 205.146 25.5751 205.166 24.9852C205.206 24.3755 205.225 23.6184 205.225 22.7138L205.225 12.6853ZM213.944 2.27276C213.609 2.27276 213.343 2.21383 213.146 2.09584C212.949 1.95816 212.801 1.7812 212.702 1.56492C212.604 1.3486 212.525 1.11254 212.466 0.856906C212.426 0.581592 212.397 0.296376 212.377 0.00140381H210.604C210.564 0.47336 210.604 0.935533 210.722 1.38783C210.84 1.84011 211.037 2.2432 211.313 2.59717C211.609 2.95114 211.973 3.23635 212.407 3.45267C212.84 3.66897 213.362 3.76731 213.973 3.74765C214.623 3.72795 215.175 3.60992 215.628 3.39364C216.082 3.17734 216.446 2.89228 216.722 2.53831C216.998 2.18434 217.195 1.79104 217.313 1.3584C217.431 0.906122 217.49 0.453701 217.49 0.00140381H215.835C215.796 0.276718 215.747 0.552181 215.688 0.827476C215.629 1.08313 215.53 1.31902 215.392 1.53532C215.254 1.75164 215.067 1.9286 214.83 2.06624C214.594 2.20393 214.298 2.27276 213.944 2.27276Z" fill="white"/>
<path d="M143.227 6.10763C142.543 5.94681 142.671 7.3867 142.888 7.87086C141.116 6.85397 141.778 5.18293 141.697 5.01788C141.226 4.63649 140.653 4.60813 139.926 4.86427C140.352 4.07174 141.434 3.4378 142.625 3.66565C143.173 3.77044 143.229 2.4463 142.928 1.93695C143.838 2.42278 143.974 3.01281 144.131 3.57498C144.311 4.22667 143.965 4.66619 144.253 4.89404C144.652 5.20968 145.43 5.16329 145.896 4.90799C145.461 5.91192 144.031 6.29552 143.227 6.10678L143.227 6.10763ZM142.574 5.14802C142.824 5.3983 143.255 5.28263 143.347 4.94065C143.439 4.59861 143.124 4.28423 142.781 4.37604C142.439 4.46802 142.323 4.89762 142.574 5.14785V5.14802Z" fill="white"/>
<path d="M13.5443 5.02057H10.3567V27.3283H13.5443V5.02057Z" fill="white"/>
<path d="M22.1792 5.15991H18.9917V9.60067H22.1792V5.15991Z" fill="white"/>
<path d="M8.34874 28.6834L10.3556 27.3478L13.5479 27.3471L15.6761 28.6759L8.34874 28.6834Z" fill="white"/>
<path d="M25.2249 28.6555L27.2318 27.32L30.4241 27.3193L32.5523 28.6482L25.2249 28.6555Z" fill="white"/>
<path d="M30.421 5.07629H27.2468V27.3355H30.421V5.07629Z" fill="white"/>
<path d="M0.127042 3.59912C14.2268 5.51952 28.0536 5.36854 41.6627 3.60027L40.3917 4.92207C27.8824 6.62059 14.9048 6.80036 1.34158 4.92207L0.127042 3.59912Z" fill="white"/>
<path d="M3.14317 6.21906C15.3824 8.25554 27.1418 8.17782 38.5628 6.22108L37.8609 8.53596C27.323 10.2953 15.5614 10.1958 3.82369 8.44956L3.14317 6.21906Z" fill="white"/>
<path d="M46.9995 57.6978L47.451 54.6351C38.6021 56.4019 35.352 54.7566 32.7673 52.3921C33.2036 54.0726 34.987 55.4579 38.1427 56.4917C38.36 56.5519 38.3873 56.6266 38.4252 56.7008L38.572 57.5947C37.7025 57.6861 36.9547 57.9843 35.0036 57.3708C34.745 57.2897 34.8843 56.6224 34.5775 56.4699C34.2759 56.34 33.955 56.6837 33.5684 56.7222C32.7924 56.7994 32.0245 55.979 31.9296 55.7189C31.7807 55.3113 31.87 54.8655 31.7142 54.6963C31.4171 54.4549 30.8441 54.8343 30.6534 54.5788C30.6534 54.5788 30.0357 54.0114 29.9433 53.6266C29.8598 53.2788 30.1248 52.5689 30.1248 52.5689C30.1843 52.4858 29.3678 52.2703 29.1221 51.9757C28.9232 51.7371 28.833 51.3868 28.8716 51.0788C28.9221 50.6756 29.4792 50.0211 29.4792 50.0211C29.5601 50.0043 28.7879 49.6812 28.6271 49.3568C28.4975 49.0951 28.5357 48.7458 28.66 48.4817C28.839 48.1015 29.5966 47.5934 29.5218 47.5616C29.5913 47.4367 29.1685 46.8387 29.172 46.4914C29.1748 46.1786 29.3212 45.8448 29.5515 45.6326C29.8174 45.3879 30.5836 45.261 30.5919 45.2302C30.6435 45.2357 30.5625 44.4769 30.6873 44.1528C30.7817 43.9084 31.0405 43.7319 31.2879 43.644C31.649 43.5158 32.4376 43.6663 32.4376 43.6663C32.5549 43.6858 32.656 42.9739 32.8581 42.7235C33.091 42.435 33.5096 42.2113 33.8759 42.2719C34.2134 42.3276 34.7488 42.8837 34.7727 42.8312C35.0123 42.6414 35.1677 42.4051 35.3579 42.188C35.5855 41.9282 36.5239 42.1184 36.6652 42.2552C36.9709 42.5513 37.2087 42.8973 37.5862 43.1406C37.7596 43.2126 38.286 42.9047 38.5678 43.0343C39.8643 43.6312 40.5406 45.2055 40.9961 46.556C41.4323 47.7967 40.025 51.7512 38.8802 51.2913C38.9413 49.4718 38.6666 48.3275 36.4548 47.8366C35.2267 47.6566 34.1169 48.271 34.3936 49.6145C34.8391 51.6234 35.7589 52.2933 38.1068 52.6505C41.2327 53.0905 42.1101 51.7321 43.6444 50.0199C43.8709 49.7841 44.951 47.596 44.4793 45.3414C43.9794 43.6053 43.2957 41.1345 40.216 39.9235C37.1379 38.8903 34.8939 39.1915 32.9455 40.3232C31.0828 41.2084 30.2126 42.179 29.0486 43.981C27.6571 46.6472 27.4228 49.2221 28.1311 52.0427C28.7412 54.7713 30.2726 56.1952 31.7811 57.6515C33.4282 58.9901 35.4612 60.1391 39.0644 60.5535C39.067 60.907 39.0672 61.2606 39.2303 61.5983L46.1899 61.8768L46.5409 60.1146C45.1073 61.7282 42.2781 59.4272 43.5812 57.4513C44.7343 56.0603 46.3516 56.7486 46.9992 57.6978H46.9995Z" fill="white" stroke="white" stroke-width="0.093243"/>
<path d="M39.9898 56.4994C40.8578 56.2683 41.8742 56.0635 43.0878 56.0419C43.0794 56.6351 43.0562 57.2307 42.5943 57.7152C41.6151 57.4914 40.9104 57.3021 39.9899 56.4994H39.9898Z" fill="white" stroke="black" stroke-width="0.093243"/>
<path d="M62.2112 39.8041L56.4773 53.4319C55.8862 54.9067 55.3443 56.1161 54.8517 57.0599C54.3788 57.9842 53.9158 58.7216 53.4626 59.2722C53.0094 59.8228 52.5365 60.2062 52.0439 60.4225C51.5514 60.6389 50.9898 60.7766 50.3593 60.8356V62.0155H59.6692V60.806H58.6644C57.955 60.806 57.423 60.7078 57.0684 60.5112C56.7137 60.2948 56.5363 59.931 56.5363 59.4197C56.5363 58.9084 56.6644 58.2398 56.9206 57.4139C57.1964 56.5683 57.6003 55.4965 58.1323 54.1986H66.0532C66.5655 55.4768 66.9498 56.5387 67.2059 57.3843C67.4818 58.2299 67.6197 58.9084 67.6197 59.4197C67.6197 59.9507 67.4424 60.3144 67.0877 60.511C66.733 60.7076 66.1813 60.806 65.4325 60.806H64.4277V62.0153H75.452V60.8356C74.7821 60.7962 74.1911 60.629 73.6787 60.3341C73.1665 60.0391 72.6837 59.5966 72.2305 59.0067C71.7773 58.4167 71.3242 57.6695 70.871 56.7649C70.4178 55.8407 69.9252 54.7296 69.3932 53.4317L63.6296 39.8041H62.2112ZM62.1521 44.6418L65.5214 52.8714H58.6941L62.1521 44.6418Z" fill="white"/>
<path d="M96.0865 47.6639V55.8642C96.0865 56.7688 96.0668 57.5259 96.0273 58.1356C96.0076 58.7255 95.9189 59.2072 95.7612 59.5808C95.6035 59.9348 95.367 60.1906 95.0518 60.3479C94.7365 60.5053 94.2834 60.5838 93.6923 60.5838H93.3967V61.9112H102.145V60.5838C101.495 60.5838 100.983 60.5053 100.608 60.3479C100.254 60.1905 99.9876 59.9347 99.8102 59.5808C99.6525 59.2072 99.554 58.7255 99.5147 58.1356C99.4949 57.5259 99.485 56.7688 99.485 55.8642V42.915C99.5835 42.266 99.8199 41.8038 100.194 41.5285C100.569 41.2532 101.13 41.1155 101.879 41.1155H102.175V39.7883H93.4259V41.1155C94.3126 41.1155 94.9333 41.263 95.288 41.558C95.6623 41.8529 95.8988 42.3643 95.9973 43.0919L90.3226 49.4928H90.2634L90.293 49.4633L84.5887 43.0919C84.6872 42.3643 84.9137 41.8529 85.2685 41.558C85.6428 41.263 86.2734 41.1155 87.16 41.1155V39.7883H78.4113V41.1155H78.707C79.4557 41.1155 80.0173 41.2532 80.3917 41.5285C80.766 41.8038 81.0025 42.266 81.101 42.915V55.8642C81.101 56.7688 81.0812 57.5259 81.0418 58.1356C81.022 58.7255 80.9235 59.2072 80.7462 59.5808C80.5885 59.9348 80.3225 60.1906 79.9482 60.3479C79.5935 60.5053 79.0911 60.5838 78.4408 60.5838V61.9112H87.1892V60.5838H86.8936C86.3025 60.5838 85.8494 60.5053 85.5341 60.3479C85.2188 60.1905 84.9824 59.9347 84.8248 59.5808C84.6671 59.2072 84.5685 58.7255 84.5292 58.1356C84.5095 57.5259 84.4996 56.7688 84.4996 55.8642V47.6639C85.2878 48.4898 86.1646 49.4337 87.13 50.4956C88.0955 51.5378 89.1399 52.7079 90.263 54.0057V54.0353L90.3221 53.9174V54.0057C91.4452 52.7078 92.4797 51.5378 93.4254 50.4956C94.3908 49.4337 95.2776 48.4898 96.0854 47.6639H96.0865ZM90.323 54.0057L90.2934 54.0353C90.2934 54.055 90.3032 54.0649 90.323 54.0649V54.0057ZM90.2934 54.0353H90.2638V54.0649L90.2934 54.0353Z" fill="white"/>
<path d="M107.844 61.934H116.356V60.6066C115.844 60.6066 115.42 60.5969 115.085 60.5772C114.75 60.5378 114.484 60.4591 114.287 60.3411C114.11 60.2034 113.972 60.0067 113.873 59.7511C113.794 59.4955 113.745 59.1316 113.725 58.6597C113.804 58.1484 113.972 57.7355 114.228 57.4209C114.484 57.1063 114.799 56.8507 115.174 56.654C115.568 56.4574 115.991 56.3099 116.445 56.2116C116.898 56.1133 117.351 56.0148 117.804 55.9164C119.597 55.5231 120.898 54.6776 121.706 53.3797C122.533 52.0621 122.947 50.4005 122.947 48.3947V45.8579C122.947 44.9534 122.957 44.2061 122.976 43.6162C123.016 43.0066 123.114 42.5247 123.272 42.1707C123.43 41.7971 123.666 41.5317 123.981 41.3744C124.297 41.217 124.75 41.1383 125.341 41.1383L125.636 41.05V39.8111H116.888V41.1385C117.538 41.1385 118.041 41.217 118.395 41.3744C118.77 41.5318 119.036 41.7973 119.193 42.1709C119.371 42.5249 119.469 43.0067 119.489 43.6163C119.528 44.2063 119.548 44.9535 119.548 45.8581V49.309C119.548 50.2923 119.45 51.1183 119.253 51.7869C119.075 52.4358 118.809 52.9569 118.455 53.3502C118.12 53.7435 117.706 54.0286 117.213 54.2056C116.721 54.363 116.169 54.4318 115.558 54.4121C114.947 54.4318 114.396 54.363 113.903 54.2056C113.43 54.0482 113.026 53.7729 112.691 53.3797C112.356 52.9864 112.1 52.4555 111.923 51.7869C111.746 51.1183 111.657 50.2923 111.657 49.309V45.8581C111.657 44.9535 111.667 44.2063 111.687 43.6163C111.726 43.0067 111.825 42.5249 111.982 42.1709C112.159 41.7972 112.425 41.5317 112.78 41.3744C113.154 41.217 113.667 41.1385 114.317 41.1385V39.8111H105.568V41.1385H105.864C106.455 41.1385 106.908 41.217 107.224 41.3744C107.539 41.5318 107.775 41.7973 107.933 42.1709C108.091 42.5249 108.179 43.0067 108.199 43.6163C108.238 44.2063 108.258 44.9535 108.258 45.8581V48.3948C108.258 50.0663 108.544 51.4921 109.115 52.672C109.686 53.8519 110.544 54.7467 111.686 55.3562C111.923 55.5136 112.159 55.6217 112.396 55.6806C112.632 55.72 112.878 55.7889 113.135 55.8872C112.681 56.1231 112.287 56.3592 111.952 56.5952C111.617 56.8115 111.332 57.0474 111.095 57.303C110.859 57.5586 110.672 57.8536 110.534 58.1879C110.415 58.5222 110.337 58.9156 110.297 59.3679C110.317 59.6628 110.297 59.8989 110.238 60.0759C110.199 60.2332 110.09 60.3511 109.913 60.4297C109.755 60.5083 109.509 60.5575 109.174 60.5772C108.859 60.5969 108.435 60.6068 107.903 60.6068H107.844L107.844 61.934Z" fill="white"/>
<path d="M140.099 39.7764C137.36 39.7764 135.242 40.435 133.745 41.7526C132.267 43.0701 131.489 44.8694 131.41 47.1504V55.8817C131.41 56.7863 131.39 57.5434 131.351 58.1531C131.331 58.743 131.232 59.2247 131.055 59.5983C130.897 59.9523 130.631 60.2079 130.257 60.3652C129.902 60.5226 129.4 60.6013 128.75 60.6013V61.9287H137.498V60.6013H137.203C136.611 60.6013 136.158 60.5226 135.843 60.3652C135.528 60.2078 135.291 59.9522 135.134 59.5983C134.976 59.2247 134.877 58.743 134.838 58.1531C134.818 57.5434 134.808 56.7863 134.808 55.8817V53.2565C136.168 54.0824 137.932 54.4954 140.099 54.4954C142.7 54.4954 144.729 53.8464 146.188 52.5485C147.646 51.231 148.424 49.4317 148.523 47.1504C148.424 44.8693 147.646 43.07 146.188 41.7526C144.73 40.435 142.7 39.7762 140.099 39.7762L140.099 39.7764ZM134.809 46.6195C134.809 45.6363 134.957 44.8202 135.252 44.1712C135.567 43.5026 135.971 42.9718 136.464 42.5785C136.957 42.1852 137.508 41.9099 138.119 41.7526C138.73 41.5757 139.341 41.4969 139.952 41.5164C140.562 41.4968 141.173 41.5656 141.784 41.723C142.415 41.8803 142.976 42.1556 143.469 42.5489C143.961 42.9422 144.355 43.473 144.651 44.1416C144.966 44.8102 145.124 45.6363 145.124 46.6195V47.6519C145.124 48.6352 144.966 49.461 144.651 50.1296C144.355 50.7982 143.961 51.3291 143.469 51.7224C142.976 52.1157 142.415 52.3912 141.784 52.5485C141.173 52.7059 140.562 52.7747 139.952 52.755C139.36 52.7747 138.769 52.7156 138.178 52.5779C137.587 52.4205 137.045 52.1649 136.553 51.811C136.08 51.4374 135.676 50.9555 135.341 50.3656C135.026 49.756 134.848 48.999 134.809 48.0944V46.6195Z" fill="white"/>
<path d="M163.195 39.8041L157.461 53.4319C156.87 54.9067 156.328 56.1161 155.835 57.0599C155.362 57.9842 154.899 58.7216 154.446 59.2722C153.993 59.8228 153.52 60.2062 153.027 60.4225C152.535 60.6389 151.973 60.7766 151.343 60.8356V62.0155H160.653V60.806H159.648C158.939 60.806 158.407 60.7078 158.052 60.5112C157.697 60.2948 157.52 59.931 157.52 59.4197C157.52 58.9084 157.648 58.2398 157.904 57.4139C158.18 56.5683 158.584 55.4965 159.116 54.1986H167.037C167.549 55.4768 167.933 56.5387 168.189 57.3843C168.465 58.2299 168.603 58.9084 168.603 59.4197C168.603 59.9507 168.426 60.3144 168.071 60.511C167.717 60.7076 167.165 60.806 166.416 60.806H165.411V62.0153H176.436V60.8356C175.766 60.7962 175.175 60.629 174.662 60.3341C174.15 60.0391 173.667 59.5966 173.214 59.0067C172.761 58.4167 172.308 57.6695 171.854 56.7649C171.401 55.8407 170.909 54.7296 170.377 53.4317L164.613 39.8041H163.195ZM163.136 44.6418L166.505 52.8714H159.678L163.136 44.6418Z" fill="white"/>
<path d="M182.241 45.8244C182.241 44.9198 182.221 44.1726 182.182 43.5827C182.162 42.973 182.063 42.4912 181.886 42.1372C181.728 41.7636 181.462 41.498 181.088 41.3407C180.734 41.1833 180.231 41.1048 179.581 41.1048V39.7774H188.329V41.1048H188.034C187.443 41.1048 186.989 41.1833 186.674 41.3407C186.359 41.4981 186.122 41.7636 185.965 42.1372C185.807 42.4912 185.709 42.973 185.669 43.5827C185.649 44.1726 185.64 44.9198 185.64 45.8244V54.4374L195.777 43.1106C195.679 42.383 195.442 41.8716 195.068 41.5767C194.713 41.2817 194.093 41.1342 193.206 41.1342V39.8068H201.955V41.1342H201.659C200.91 41.1342 200.349 41.2719 199.974 41.5472C199.6 41.8225 199.364 42.2846 199.265 42.9335V55.8829C199.265 56.7875 199.275 57.5446 199.295 58.1543C199.334 58.7442 199.433 59.2259 199.59 59.5995C199.768 59.9535 200.034 60.2091 200.388 60.3664C200.763 60.5238 201.275 60.6025 201.925 60.6025V61.9299H193.177V60.6025H193.472C194.063 60.6025 194.517 60.5238 194.832 60.3664C195.147 60.209 195.384 59.9534 195.541 59.5995C195.699 59.2259 195.788 58.7442 195.807 58.1543C195.847 57.5446 195.866 56.7875 195.866 55.8829V47.6826C194.605 49.0001 193.108 50.6224 191.374 52.5495C189.66 54.457 187.817 56.6692 185.847 59.1862C186.005 59.6975 186.261 60.0613 186.615 60.2776C186.99 60.4743 187.551 60.5726 188.3 60.5726V61.9H179.551V60.5726H179.847C180.438 60.5726 180.891 60.4939 181.206 60.3365C181.522 60.1791 181.758 59.9235 181.916 59.5696C182.073 59.196 182.162 58.7143 182.182 58.1243C182.221 57.5147 182.241 56.7575 182.241 55.853V45.8244ZM190.96 35.4119C190.625 35.4119 190.359 35.3528 190.162 35.2348C189.965 35.0971 189.817 34.9202 189.719 34.7039C189.62 34.4876 189.541 34.2517 189.482 33.9961C189.443 33.7208 189.413 33.4355 189.394 33.1406H187.62C187.581 33.6125 187.62 34.0747 187.738 34.527C187.857 34.9793 188.054 35.3824 188.329 35.7363C188.625 36.0903 188.99 36.3755 189.423 36.5918C189.857 36.8082 190.379 36.9065 190.989 36.8868C191.64 36.8671 192.191 36.7491 192.645 36.5328C193.098 36.3165 193.462 36.0313 193.738 35.6773C194.014 35.3233 194.211 34.9302 194.329 34.4976C194.447 34.0453 194.507 33.5928 194.507 33.1406H192.852C192.812 33.4159 192.763 33.6912 192.704 33.9665C192.645 34.2221 192.546 34.4582 192.408 34.6745C192.27 34.8908 192.083 35.0678 191.847 35.2054C191.61 35.3431 191.315 35.4119 190.96 35.4119Z" fill="white"/>
<path d="M169.719 44.506C170.088 45.1022 171.018 43.9939 171.207 43.4983C171.74 45.4681 170.088 46.1826 170.028 46.3562C170.091 46.9586 170.477 47.3833 171.172 47.7152C170.309 47.9744 169.095 47.6591 168.414 46.6574C168.101 46.1967 167.123 47.0937 166.975 47.666C166.676 46.6803 166.997 46.1671 167.285 45.659C167.619 45.071 168.175 45.0043 168.133 44.6401C168.075 44.1353 167.492 43.6194 166.982 43.4704C168.001 43.0678 169.284 43.8057 169.719 44.506ZM169.501 45.6458C169.501 45.292 169.114 45.0698 168.807 45.2467C168.5 45.4237 168.5 45.8682 168.807 46.045C169.114 46.222 169.501 45.9995 169.501 45.6458Z" fill="white"/>
<path d="M155.364 56.0169C154.68 55.8561 154.808 57.296 155.025 57.7801C153.253 56.7632 153.915 55.0924 153.834 54.9273C153.363 54.5459 152.789 54.5176 152.062 54.7737C152.489 53.9812 153.571 53.3471 154.762 53.5749C155.31 53.6797 155.366 52.3558 155.065 51.8464C155.975 52.3322 156.111 52.9221 156.268 53.4843C156.448 54.136 156.102 54.5755 156.39 54.8033C156.789 55.119 157.567 55.0726 158.033 54.8173C157.598 55.8212 156.168 56.2048 155.364 56.0161L155.364 56.0169ZM154.711 55.0573C154.961 55.3076 155.392 55.1919 155.484 54.8499C155.576 54.5079 155.261 54.1935 154.918 54.2853C154.576 54.3773 154.46 54.8069 154.711 55.0571V55.0573Z" fill="white"/>
</g>
<defs>
<clipPath id="clip0_10_690">
<rect width="224.803" height="62" fill="white" transform="translate(0.129028)"/>
</clipPath>
</defs>
</svg>
